G04 Layer: BottomLayer*
G04 EasyEDA v6.4.19.2, 2021-05-28T18:10:01+02:00*
G04 3d613cfe214941e49b762df90ee4d122,cfe1dd9c90504c3bbdd6ef614714b9c7,10*
G04 Gerber Generator version 0.2*
G04 Scale: 100 percent, Rotated: No, Reflected: No *
G04 Dimensions in inches *
G04 leading zeros omitted , absolute positions ,3 integer and 6 decimal *
%FSLAX36Y36*%
%MOIN*%

%ADD10C,0.0100*%
%ADD11C,0.0157*%
%ADD12C,0.0787*%
%ADD16C,0.0118*%
%ADD17C,0.0240*%
%ADD20C,0.0709*%
%ADD21C,0.0630*%
%ADD22C,0.0618*%
%ADD23R,0.0618X0.0618*%
%ADD24R,0.0630X0.0630*%
%ADD25C,0.0984*%
%ADD26C,0.0600*%
%ADD27C,0.0197*%

%LPD*%
D10*
X3535000Y2760000D02*
G01*
X3535000Y2825000D01*
X3595000Y2885000D01*
X3595000Y3035000D01*
X3540000Y3090000D01*
X3540000Y3265000D01*
X3540000Y3265000D02*
G01*
X3615000Y3265000D01*
X3655000Y3225000D01*
X3655000Y3130000D01*
D11*
X980000Y2065000D02*
G01*
X980000Y2165000D01*
X980000Y1965000D02*
G01*
X980000Y2065000D01*
X725000Y965000D02*
G01*
X725000Y1605000D01*
X965000Y1845000D01*
X1175000Y1845000D01*
X1175000Y1845000D02*
G01*
X1100000Y1845000D01*
X980000Y1965000D01*
D10*
X3535000Y2760000D02*
G01*
X3635000Y2760000D01*
X3805000Y2615000D02*
G01*
X3855000Y2615000D01*
X3920000Y2550000D01*
X3920000Y2195198D01*
X3809801Y2085000D01*
X3635000Y2615000D02*
G01*
X3805000Y2615000D01*
X3635000Y2760000D02*
G01*
X3635000Y2615000D01*
X3535000Y2760000D02*
G01*
X3535000Y2615000D01*
X3035000Y2615000D02*
G01*
X3035000Y2760000D01*
X2135000Y2615000D02*
G01*
X2135000Y2535000D01*
X2195000Y2475000D01*
X2675000Y2475000D01*
X2780000Y2370000D01*
X2780000Y1505000D01*
X2590000Y1315000D01*
D11*
X3910000Y1375000D02*
G01*
X3960000Y1375000D01*
X4000000Y1335000D01*
X4000000Y1040000D01*
X3800000Y840000D01*
X3615000Y600000D02*
G01*
X3915000Y600000D01*
X3615000Y600000D02*
G01*
X3615000Y700000D01*
X3410000Y905000D01*
X3410000Y1035000D01*
X2830000Y1615000D01*
D10*
X2935000Y2615000D02*
G01*
X2935000Y2760000D01*
D12*
X2490000Y1955000D02*
G01*
X2365000Y2095000D01*
X1565000Y2095000D01*
D10*
X2235000Y2615000D02*
G01*
X2235000Y2760000D01*
X2335000Y2615000D02*
G01*
X2335000Y2760000D01*
X3235000Y2615000D02*
G01*
X3235000Y2760000D01*
X3135000Y2615000D02*
G01*
X3135000Y2760000D01*
X2835000Y2615000D02*
G01*
X2835000Y2760000D01*
X2735000Y2615000D02*
G01*
X2735000Y2760000D01*
X2635000Y2615000D02*
G01*
X2635000Y2760000D01*
X2535000Y2615000D02*
G01*
X2535000Y2760000D01*
X1475000Y2615000D02*
G01*
X1475000Y2850000D01*
X1730000Y3105000D01*
X2325000Y3105000D01*
X1375000Y2615000D02*
G01*
X1375000Y2940000D01*
X1640000Y3205000D01*
X2325000Y3205000D01*
X975000Y2615000D02*
G01*
X975000Y2875000D01*
X1305000Y3205000D01*
X830195Y1528015D02*
G01*
X830195Y1570194D01*
X925000Y1665000D01*
X1380000Y1665000D01*
X1590000Y1875000D01*
X1970000Y1875000D01*
X2100000Y2005000D01*
X930195Y1528015D02*
G01*
X930195Y1560194D01*
X995000Y1625000D01*
X1430000Y1625000D01*
X1635000Y1830000D01*
X2010000Y1830000D01*
X2185000Y2005000D01*
D27*
X1635000Y715000D02*
G01*
X1635000Y781374D01*
X1556373Y860000D01*
D12*
X2495000Y1210000D02*
G01*
X2495000Y2055000D01*
X2535000Y2095000D01*
X2590000Y2095000D01*
X295000Y1265000D02*
G01*
X700000Y860000D01*
X2125000Y860000D01*
X2480000Y1215000D01*
X2590000Y1215000D01*
D16*
X2450000Y1070000D02*
G01*
X2450000Y1065000D01*
X2170000Y785000D01*
X1905000Y785000D01*
X1835000Y715000D01*
X1875000Y1055000D02*
G01*
X1704691Y1055000D01*
X1509691Y860000D01*
D10*
X1835000Y2615000D02*
G01*
X1835000Y2495000D01*
X2035000Y2295000D01*
X2590000Y2295000D01*
X1935000Y2615000D02*
G01*
X1935000Y2485000D01*
X2055000Y2365000D01*
X2640000Y2365000D01*
X2670000Y2335000D01*
X2670000Y2275000D01*
X2590000Y2195000D01*
X2035000Y2615000D02*
G01*
X2035000Y2515000D01*
X2130000Y2420000D01*
X2655000Y2420000D01*
X2725000Y2350000D01*
X2725000Y1550000D01*
X2590000Y1415000D01*
X1635000Y2615000D02*
G01*
X1635000Y2365000D01*
X1565000Y2295000D01*
X1735000Y2615000D02*
G01*
X1735000Y2365000D01*
X1565000Y2195000D01*
X1275000Y2615000D02*
G01*
X1275000Y2905000D01*
X1305000Y2935000D01*
X1305000Y3105000D01*
X675000Y1845000D02*
G01*
X580000Y1940000D01*
X580000Y2420000D01*
X665000Y2505000D01*
X1480000Y2505000D01*
X1550000Y2435000D01*
X2040000Y2230000D02*
G01*
X2275000Y2230000D01*
X2040000Y2175000D02*
G01*
X2275000Y2175000D01*
X3305000Y2945000D02*
G01*
X3305000Y1645000D01*
X3535000Y1415000D01*
X675000Y1745000D02*
G01*
X525000Y1895000D01*
X525000Y2470000D01*
X600000Y2545000D01*
X1500000Y2545000D01*
X1550000Y2495000D01*
X3085000Y2355000D02*
G01*
X3115000Y2355000D01*
X3150000Y2320000D01*
X3150000Y1575000D01*
X3410000Y1315000D01*
X3535000Y1315000D01*
X3085000Y2390000D02*
G01*
X3150000Y2390000D01*
X3190000Y2350000D01*
X3190000Y1610000D01*
X3435000Y1365000D01*
X3585000Y1365000D01*
X3635000Y1415000D01*
D20*
G01*
X2590000Y1995000D03*
G01*
X2590000Y2095000D03*
G01*
X2590000Y2195000D03*
G01*
X2590000Y2295000D03*
D21*
G01*
X985000Y2395000D03*
D22*
G01*
X980000Y1965000D03*
G01*
X980000Y2065000D03*
G01*
X980000Y2165000D03*
G01*
X880000Y2165000D03*
G01*
X880000Y2065000D03*
G01*
X880000Y1965000D03*
G01*
X1330000Y2245000D03*
G01*
X1330000Y2045000D03*
G01*
X1330000Y1945000D03*
D23*
G01*
X1025000Y1189000D03*
D22*
G01*
X1025000Y1089000D03*
D23*
G01*
X1125000Y1189000D03*
D22*
G01*
X1125000Y1089000D03*
G01*
X1125000Y989000D03*
D23*
G01*
X1225000Y1189000D03*
D22*
G01*
X1225000Y1089000D03*
G01*
X1225000Y989000D03*
D23*
G01*
X1325000Y1189000D03*
D22*
G01*
X1325000Y1089000D03*
G01*
X1325000Y989000D03*
G01*
X1430000Y989000D03*
G01*
X1430000Y1089000D03*
D23*
G01*
X1430000Y1189000D03*
G01*
X925000Y1189000D03*
D22*
G01*
X925000Y1089000D03*
G01*
X925000Y989000D03*
G01*
X1025000Y989000D03*
G01*
X930200Y1428020D03*
G01*
X930200Y1528020D03*
G36*
X1404293Y1358913D02*
G01*
X1466094Y1358913D01*
X1466094Y1297114D01*
X1404293Y1297114D01*
G37*
G36*
X899293Y1358913D02*
G01*
X961094Y1358913D01*
X961094Y1297114D01*
X899293Y1297114D01*
G37*
G01*
X1435200Y1528020D03*
G01*
X1435200Y1428020D03*
G01*
X1330200Y1428020D03*
G01*
X1330200Y1528020D03*
G36*
X1004293Y1358913D02*
G01*
X1066094Y1358913D01*
X1066094Y1297114D01*
X1004293Y1297114D01*
G37*
G01*
X1230200Y1428020D03*
G01*
X1230200Y1528020D03*
G36*
X1104293Y1358913D02*
G01*
X1166094Y1358913D01*
X1166094Y1297114D01*
X1104293Y1297114D01*
G37*
G01*
X1130200Y1428020D03*
G01*
X1130200Y1528020D03*
G36*
X1204293Y1358913D02*
G01*
X1266094Y1358913D01*
X1266094Y1297114D01*
X1204293Y1297114D01*
G37*
G01*
X1030200Y1428020D03*
G01*
X1030200Y1528020D03*
G36*
X1304293Y1358913D02*
G01*
X1366094Y1358913D01*
X1366094Y1297114D01*
X1304293Y1297114D01*
G37*
G01*
X1330000Y2145000D03*
G01*
X825000Y989000D03*
G01*
X825000Y1089000D03*
D23*
G01*
X825000Y1189000D03*
D20*
G01*
X1565000Y2295000D03*
G01*
X1565000Y2195000D03*
G01*
X1565000Y2095000D03*
G01*
X1565000Y1995000D03*
G01*
X2590000Y1415000D03*
G01*
X2590000Y1315000D03*
G01*
X2590000Y1215000D03*
G01*
X2590000Y1115000D03*
G01*
X3345000Y3105000D03*
G01*
X3345000Y3205000D03*
G01*
X3345000Y3305000D03*
G01*
X3345000Y3405000D03*
G01*
X2325000Y3405000D03*
G01*
X2325000Y3305000D03*
G01*
X2325000Y3205000D03*
G01*
X2325000Y3105000D03*
G01*
X1305000Y3405000D03*
G01*
X1305000Y3305000D03*
G01*
X1305000Y3205000D03*
G01*
X1305000Y3105000D03*
G01*
X695000Y580000D03*
G01*
X795000Y580000D03*
G01*
X895000Y580000D03*
G01*
X1330000Y580000D03*
G01*
X1430000Y580000D03*
G01*
X1530000Y580000D03*
G01*
X1630000Y580000D03*
G01*
X1935000Y595000D03*
G01*
X2035000Y595000D03*
G01*
X2135000Y595000D03*
G01*
X2235000Y595000D03*
G01*
X2335000Y595000D03*
G01*
X2435000Y595000D03*
G01*
X2535000Y595000D03*
G01*
X2735000Y595000D03*
G01*
X2835000Y595000D03*
G01*
X2935000Y595000D03*
G01*
X3035000Y595000D03*
G01*
X3135000Y595000D03*
G01*
X3235000Y595000D03*
G01*
X3335000Y595000D03*
G01*
X3435000Y595000D03*
D21*
G01*
X3910000Y1275000D03*
G01*
X3810000Y1275000D03*
G36*
X3778500Y1406500D02*
G01*
X3841499Y1406500D01*
X3841499Y1343499D01*
X3778500Y1343499D01*
G37*
G01*
X3910000Y1375000D03*
G01*
X3810000Y1175000D03*
G01*
X3910000Y1175000D03*
G01*
X3810000Y1075000D03*
G01*
X3910000Y1075000D03*
D23*
G01*
X2295000Y1315000D03*
D22*
G01*
X2195000Y1315000D03*
D20*
G01*
X3615000Y600000D03*
G01*
X3815000Y600000D03*
G01*
X3715000Y600000D03*
G01*
X3915000Y600000D03*
G01*
X495000Y580000D03*
G01*
X595000Y580000D03*
G01*
X1730000Y580000D03*
G01*
X395000Y580000D03*
G01*
X1330000Y580000D03*
G01*
X1230000Y580000D03*
D21*
G01*
X3910000Y1515000D03*
G01*
X3810000Y1515000D03*
G01*
X3810000Y1615000D03*
G01*
X3910000Y1615000D03*
G01*
X3910000Y1715000D03*
G01*
X3810000Y1715000D03*
G01*
X3810000Y1815000D03*
G01*
X3910000Y1815000D03*
G01*
X3810000Y1915000D03*
G01*
X3910000Y1915000D03*
D23*
G01*
X825190Y1328009D03*
D22*
G01*
X830200Y1528020D03*
G01*
X830200Y1428000D03*
D20*
G01*
X2635000Y2760000D03*
G01*
X2735000Y2760000D03*
G01*
X2835000Y2760000D03*
G01*
X2935000Y2760000D03*
G01*
X3035000Y2760000D03*
G01*
X3135000Y2760000D03*
G01*
X3235000Y2760000D03*
G01*
X2535000Y2760000D03*
G01*
X2235000Y2760000D03*
G01*
X2335000Y2760000D03*
G01*
X575000Y2760000D03*
G01*
X675000Y2760000D03*
G01*
X775000Y2760000D03*
G01*
X875000Y2760000D03*
G01*
X1635000Y2760000D03*
G01*
X1735000Y2760000D03*
G01*
X1835000Y2760000D03*
G01*
X1935000Y2760000D03*
G01*
X3635000Y2760000D03*
G01*
X3535000Y2760000D03*
G01*
X3805000Y2915000D03*
G01*
X3805000Y2815000D03*
G01*
X3805000Y2715000D03*
G01*
X3805000Y2615000D03*
G01*
X3809799Y2085000D03*
G01*
X3809799Y2185000D03*
G01*
X3809799Y2285000D03*
G01*
X3809799Y2385000D03*
G01*
X3655000Y3130000D03*
G01*
X3755000Y3130000D03*
G01*
X3855000Y3130000D03*
D21*
G01*
X985000Y2395000D03*
D24*
G01*
X886599Y2395000D03*
D22*
G01*
X1175000Y2245000D03*
G01*
X1175000Y2345000D03*
G01*
X1175000Y2445000D03*
G01*
X1175000Y2145000D03*
G01*
X1175000Y2045000D03*
G01*
X1175000Y1945000D03*
G01*
X1175000Y1845000D03*
G01*
X1175000Y1745000D03*
G01*
X675000Y1745000D03*
G01*
X675000Y1845000D03*
G01*
X675000Y1945000D03*
G01*
X675000Y2045000D03*
G01*
X675000Y2145000D03*
G01*
X675000Y2245000D03*
G01*
X675000Y2345000D03*
G01*
X675000Y2445000D03*
D25*
G01*
X295000Y2335000D03*
G01*
X295000Y2135000D03*
G01*
X295000Y1900000D03*
G01*
X295000Y1700000D03*
D22*
G01*
X1945000Y1160000D03*
G01*
X2245000Y1160000D03*
D25*
G01*
X300000Y1030000D03*
G01*
X300000Y830000D03*
G01*
X295000Y1465000D03*
G01*
X295000Y1265000D03*
D22*
G01*
X1875000Y1055000D03*
G01*
X2175000Y1055000D03*
D26*
G01*
X1605000Y1500000D03*
G01*
X1743500Y1500000D03*
G01*
X1605000Y1140000D03*
G01*
X1743500Y1140000D03*
D21*
G01*
X1965000Y1405000D03*
G01*
X1965000Y1305000D03*
G01*
X3800000Y840000D03*
G36*
X3866904Y871496D02*
G01*
X3929895Y871496D01*
X3929895Y808503D01*
X3866904Y808503D01*
G37*
D20*
G01*
X775000Y2615000D03*
G01*
X675000Y2615000D03*
G01*
X2835000Y715000D03*
G01*
X2935000Y715000D03*
G01*
X3035000Y715000D03*
G01*
X3135000Y715000D03*
G01*
X3235000Y715000D03*
G01*
X3335000Y715000D03*
G01*
X3435000Y715000D03*
G01*
X2735000Y715000D03*
G01*
X2635000Y2615000D03*
G01*
X2735000Y2615000D03*
G01*
X2835000Y2615000D03*
G01*
X2935000Y2615000D03*
G01*
X3035000Y2615000D03*
G01*
X3135000Y2615000D03*
G01*
X3235000Y2615000D03*
G01*
X2535000Y2615000D03*
G01*
X1935000Y715000D03*
G01*
X2035000Y715000D03*
G01*
X2135000Y715000D03*
G01*
X2235000Y715000D03*
G01*
X2335000Y715000D03*
G01*
X2435000Y715000D03*
G01*
X2535000Y715000D03*
G01*
X1835000Y715000D03*
G01*
X1735000Y2615000D03*
G01*
X1835000Y2615000D03*
G01*
X1935000Y2615000D03*
G01*
X2035000Y2615000D03*
G01*
X2135000Y2615000D03*
G01*
X2235000Y2615000D03*
G01*
X2335000Y2615000D03*
G01*
X1635000Y2615000D03*
G01*
X875000Y2615000D03*
G01*
X975000Y2615000D03*
G01*
X1075000Y2615000D03*
G01*
X1175000Y2615000D03*
G01*
X1275000Y2615000D03*
G01*
X1375000Y2615000D03*
G01*
X1475000Y2615000D03*
D21*
G01*
X3635000Y1815000D03*
G01*
X3535000Y1815000D03*
G01*
X3635000Y1915000D03*
G01*
X3535000Y1915000D03*
G01*
X3635000Y2015000D03*
G01*
X3535000Y2015000D03*
G01*
X3635000Y2115000D03*
G01*
X3535000Y2115000D03*
G01*
X3635000Y2215000D03*
G01*
X3535000Y2215000D03*
G01*
X3635000Y2315000D03*
G01*
X3535000Y2315000D03*
G01*
X3635000Y2415000D03*
G01*
X3535000Y2415000D03*
G01*
X3635000Y2515000D03*
G01*
X3535000Y2515000D03*
G01*
X3635000Y1015000D03*
G01*
X3535000Y1015000D03*
G01*
X3635000Y1115000D03*
G01*
X3535000Y1115000D03*
G01*
X3635000Y1215000D03*
G01*
X3535000Y1215000D03*
G01*
X3635000Y1315000D03*
G01*
X3535000Y1315000D03*
G01*
X3635000Y1415000D03*
G01*
X3535000Y1415000D03*
G01*
X3635000Y1515000D03*
G01*
X3535000Y1515000D03*
G01*
X3635000Y1615000D03*
G01*
X3535000Y1615000D03*
G01*
X3635000Y1715000D03*
G01*
X3535000Y1715000D03*
G01*
X3535000Y915000D03*
G01*
X3635000Y915000D03*
G01*
X3535000Y2615000D03*
G01*
X3635000Y2615000D03*
D20*
G01*
X1135000Y715000D03*
G01*
X1235000Y715000D03*
G01*
X1335000Y715000D03*
G01*
X1435000Y715000D03*
G01*
X1535000Y715000D03*
G01*
X1635000Y715000D03*
G01*
X1035000Y715000D03*
G01*
X935000Y715000D03*
G01*
X575000Y2615000D03*
D22*
G01*
X3540000Y3265000D03*
G01*
X3540000Y2965000D03*
D17*
G01*
X2450000Y1070000D03*
G01*
X2830000Y1615000D03*
G01*
X2185000Y2005000D03*
G01*
X2100000Y2005000D03*
G01*
X725000Y965000D03*
G01*
X3305000Y2945000D03*
G01*
X1550000Y2495000D03*
G01*
X1550000Y2435000D03*
G01*
X2040000Y2230000D03*
G01*
X2040000Y2175000D03*
G01*
X2275000Y2230000D03*
G01*
X2275000Y2175000D03*
G01*
X3085000Y2355000D03*
G01*
X3085000Y2390000D03*
M02*
