G04 Layer: TopSolderMaskLayer*
G04 EasyEDA v6.4.19.2, 2021-05-28T18:10:01+02:00*
G04 3d613cfe214941e49b762df90ee4d122,cfe1dd9c90504c3bbdd6ef614714b9c7,10*
G04 Gerber Generator version 0.2*
G04 Scale: 100 percent, Rotated: No, Reflected: No *
G04 Dimensions in inches *
G04 leading zeros omitted , absolute positions ,3 integer and 6 decimal *
%FSLAX36Y36*%
%MOIN*%

%ADD38C,0.0789*%
%ADD39C,0.0710*%
%ADD40C,0.0698*%
%ADD43C,0.1064*%
%ADD44C,0.0680*%

%LPD*%
D38*
G01*
X2590000Y1995000D03*
G01*
X2590000Y2095000D03*
G01*
X2590000Y2195000D03*
G01*
X2590000Y2295000D03*
D39*
G01*
X985000Y2395000D03*
D40*
G01*
X980000Y1965000D03*
G01*
X980000Y2065000D03*
G01*
X980000Y2165000D03*
G01*
X880000Y2165000D03*
G01*
X880000Y2065000D03*
G01*
X880000Y1965000D03*
G01*
X1330000Y2245000D03*
G01*
X1330000Y2045000D03*
G01*
X1330000Y1945000D03*
G36*
X990100Y1154099D02*
G01*
X990100Y1223899D01*
X1059899Y1223899D01*
X1059899Y1154099D01*
G37*
G01*
X1025000Y1089000D03*
G36*
X1090100Y1154099D02*
G01*
X1090100Y1223899D01*
X1159899Y1223899D01*
X1159899Y1154099D01*
G37*
G01*
X1125000Y1089000D03*
G01*
X1125000Y989000D03*
G36*
X1190100Y1154099D02*
G01*
X1190100Y1223899D01*
X1259899Y1223899D01*
X1259899Y1154099D01*
G37*
G01*
X1225000Y1089000D03*
G01*
X1225000Y989000D03*
G36*
X1290100Y1154099D02*
G01*
X1290100Y1223899D01*
X1359899Y1223899D01*
X1359899Y1154099D01*
G37*
G01*
X1325000Y1089000D03*
G01*
X1325000Y989000D03*
G01*
X1430000Y989000D03*
G01*
X1430000Y1089000D03*
G36*
X1395100Y1154099D02*
G01*
X1395100Y1223899D01*
X1464899Y1223899D01*
X1464899Y1154099D01*
G37*
G36*
X890100Y1154099D02*
G01*
X890100Y1223899D01*
X959899Y1223899D01*
X959899Y1154099D01*
G37*
G01*
X925000Y1089000D03*
G01*
X925000Y989000D03*
G01*
X1025000Y989000D03*
G01*
X930200Y1428020D03*
G01*
X930200Y1528020D03*
G36*
X1400299Y1293099D02*
G01*
X1400299Y1362899D01*
X1470100Y1362899D01*
X1470100Y1293099D01*
G37*
G36*
X895299Y1293099D02*
G01*
X895299Y1362899D01*
X965100Y1362899D01*
X965100Y1293099D01*
G37*
G01*
X1435200Y1528020D03*
G01*
X1435200Y1428020D03*
G01*
X1330200Y1428020D03*
G01*
X1330200Y1528020D03*
G36*
X1000299Y1293099D02*
G01*
X1000299Y1362899D01*
X1070100Y1362899D01*
X1070100Y1293099D01*
G37*
G01*
X1230200Y1428020D03*
G01*
X1230200Y1528020D03*
G36*
X1100299Y1293099D02*
G01*
X1100299Y1362899D01*
X1170100Y1362899D01*
X1170100Y1293099D01*
G37*
G01*
X1130200Y1428020D03*
G01*
X1130200Y1528020D03*
G36*
X1200299Y1293099D02*
G01*
X1200299Y1362899D01*
X1270100Y1362899D01*
X1270100Y1293099D01*
G37*
G01*
X1030200Y1428020D03*
G01*
X1030200Y1528020D03*
G36*
X1300299Y1293099D02*
G01*
X1300299Y1362899D01*
X1370100Y1362899D01*
X1370100Y1293099D01*
G37*
G01*
X1330000Y2145000D03*
G01*
X825000Y989000D03*
G01*
X825000Y1089000D03*
G36*
X790100Y1154099D02*
G01*
X790100Y1223899D01*
X859899Y1223899D01*
X859899Y1154099D01*
G37*
D38*
G01*
X1565000Y2295000D03*
G01*
X1565000Y2195000D03*
G01*
X1565000Y2095000D03*
G01*
X1565000Y1995000D03*
G01*
X2590000Y1415000D03*
G01*
X2590000Y1315000D03*
G01*
X2590000Y1215000D03*
G01*
X2590000Y1115000D03*
G01*
X3345000Y3105000D03*
G01*
X3345000Y3205000D03*
G01*
X3345000Y3305000D03*
G01*
X3345000Y3405000D03*
G01*
X2325000Y3405000D03*
G01*
X2325000Y3305000D03*
G01*
X2325000Y3205000D03*
G01*
X2325000Y3105000D03*
G01*
X1305000Y3405000D03*
G01*
X1305000Y3305000D03*
G01*
X1305000Y3205000D03*
G01*
X1305000Y3105000D03*
G01*
X695000Y580000D03*
G01*
X795000Y580000D03*
G01*
X895000Y580000D03*
G01*
X1330000Y580000D03*
G01*
X1430000Y580000D03*
G01*
X1530000Y580000D03*
G01*
X1630000Y580000D03*
G01*
X1935000Y595000D03*
G01*
X2035000Y595000D03*
G01*
X2135000Y595000D03*
G01*
X2235000Y595000D03*
G01*
X2335000Y595000D03*
G01*
X2435000Y595000D03*
G01*
X2535000Y595000D03*
G01*
X2735000Y595000D03*
G01*
X2835000Y595000D03*
G01*
X2935000Y595000D03*
G01*
X3035000Y595000D03*
G01*
X3135000Y595000D03*
G01*
X3235000Y595000D03*
G01*
X3335000Y595000D03*
G01*
X3435000Y595000D03*
D39*
G01*
X3910000Y1275000D03*
G01*
X3810000Y1275000D03*
G36*
X3774499Y1339499D02*
G01*
X3774499Y1410500D01*
X3845500Y1410500D01*
X3845500Y1339499D01*
G37*
G01*
X3910000Y1375000D03*
G01*
X3810000Y1175000D03*
G01*
X3910000Y1175000D03*
G01*
X3810000Y1075000D03*
G01*
X3910000Y1075000D03*
G36*
X2260100Y1280100D02*
G01*
X2260100Y1349899D01*
X2329899Y1349899D01*
X2329899Y1280100D01*
G37*
D40*
G01*
X2195000Y1315000D03*
D38*
G01*
X3615000Y600000D03*
G01*
X3815000Y600000D03*
G01*
X3715000Y600000D03*
G01*
X3915000Y600000D03*
G01*
X495000Y580000D03*
G01*
X595000Y580000D03*
G01*
X1730000Y580000D03*
G01*
X395000Y580000D03*
G01*
X1330000Y580000D03*
G01*
X1230000Y580000D03*
D39*
G01*
X3910000Y1515000D03*
G01*
X3810000Y1515000D03*
G01*
X3810000Y1615000D03*
G01*
X3910000Y1615000D03*
G01*
X3910000Y1715000D03*
G01*
X3810000Y1715000D03*
G01*
X3810000Y1815000D03*
G01*
X3910000Y1815000D03*
G01*
X3810000Y1915000D03*
G01*
X3910000Y1915000D03*
G36*
X790299Y1293099D02*
G01*
X790299Y1362899D01*
X860100Y1362899D01*
X860100Y1293099D01*
G37*
D40*
G01*
X830200Y1528020D03*
G01*
X830200Y1428000D03*
D38*
G01*
X2635000Y2760000D03*
G01*
X2735000Y2760000D03*
G01*
X2835000Y2760000D03*
G01*
X2935000Y2760000D03*
G01*
X3035000Y2760000D03*
G01*
X3135000Y2760000D03*
G01*
X3235000Y2760000D03*
G01*
X2535000Y2760000D03*
G01*
X2235000Y2760000D03*
G01*
X2335000Y2760000D03*
G01*
X575000Y2760000D03*
G01*
X675000Y2760000D03*
G01*
X775000Y2760000D03*
G01*
X875000Y2760000D03*
G01*
X1635000Y2760000D03*
G01*
X1735000Y2760000D03*
G01*
X1835000Y2760000D03*
G01*
X1935000Y2760000D03*
G01*
X3635000Y2760000D03*
G01*
X3535000Y2760000D03*
G01*
X3805000Y2915000D03*
G01*
X3805000Y2815000D03*
G01*
X3805000Y2715000D03*
G01*
X3805000Y2615000D03*
G01*
X3809799Y2085000D03*
G01*
X3809799Y2185000D03*
G01*
X3809799Y2285000D03*
G01*
X3809799Y2385000D03*
G01*
X3655000Y3130000D03*
G01*
X3755000Y3130000D03*
G01*
X3855000Y3130000D03*
D39*
G01*
X985000Y2395000D03*
G36*
X851099Y2359499D02*
G01*
X851099Y2430500D01*
X922100Y2430500D01*
X922100Y2359499D01*
G37*
D40*
G01*
X1175000Y2245000D03*
G01*
X1175000Y2345000D03*
G01*
X1175000Y2445000D03*
G01*
X1175000Y2145000D03*
G01*
X1175000Y2045000D03*
G01*
X1175000Y1945000D03*
G01*
X1175000Y1845000D03*
G01*
X1175000Y1745000D03*
G01*
X675000Y1745000D03*
G01*
X675000Y1845000D03*
G01*
X675000Y1945000D03*
G01*
X675000Y2045000D03*
G01*
X675000Y2145000D03*
G01*
X675000Y2245000D03*
G01*
X675000Y2345000D03*
G01*
X675000Y2445000D03*
D43*
G01*
X295000Y2335000D03*
G01*
X295000Y2135000D03*
G01*
X295000Y1900000D03*
G01*
X295000Y1700000D03*
D40*
G01*
X1945000Y1160000D03*
G01*
X2245000Y1160000D03*
D43*
G01*
X300000Y1030000D03*
G01*
X300000Y830000D03*
G01*
X295000Y1465000D03*
G01*
X295000Y1265000D03*
D40*
G01*
X1875000Y1055000D03*
G01*
X2175000Y1055000D03*
D44*
G01*
X1605000Y1500000D03*
G01*
X1743500Y1500000D03*
G01*
X1605000Y1140000D03*
G01*
X1743500Y1140000D03*
G36*
X2091499Y1605000D02*
G01*
X2091499Y1655999D01*
X2184499Y1655999D01*
X2184499Y1605000D01*
G37*
G36*
X2091499Y1514000D02*
G01*
X2091499Y1565000D01*
X2184499Y1565000D01*
X2184499Y1514000D01*
G37*
G36*
X2091499Y1424000D02*
G01*
X2091499Y1475000D01*
X2184499Y1475000D01*
X2184499Y1424000D01*
G37*
G36*
X2335500Y1466500D02*
G01*
X2335500Y1612500D01*
X2428500Y1612500D01*
X2428500Y1466500D01*
G37*
D39*
G01*
X1965000Y1405000D03*
G01*
X1965000Y1305000D03*
G01*
X3800000Y840000D03*
G36*
X3862899Y804499D02*
G01*
X3862899Y875500D01*
X3933900Y875500D01*
X3933900Y804499D01*
G37*
D38*
G01*
X775000Y2615000D03*
G01*
X675000Y2615000D03*
G01*
X2835000Y715000D03*
G01*
X2935000Y715000D03*
G01*
X3035000Y715000D03*
G01*
X3135000Y715000D03*
G01*
X3235000Y715000D03*
G01*
X3335000Y715000D03*
G01*
X3435000Y715000D03*
G01*
X2735000Y715000D03*
G01*
X2635000Y2615000D03*
G01*
X2735000Y2615000D03*
G01*
X2835000Y2615000D03*
G01*
X2935000Y2615000D03*
G01*
X3035000Y2615000D03*
G01*
X3135000Y2615000D03*
G01*
X3235000Y2615000D03*
G01*
X2535000Y2615000D03*
G01*
X1935000Y715000D03*
G01*
X2035000Y715000D03*
G01*
X2135000Y715000D03*
G01*
X2235000Y715000D03*
G01*
X2335000Y715000D03*
G01*
X2435000Y715000D03*
G01*
X2535000Y715000D03*
G01*
X1835000Y715000D03*
G01*
X1735000Y2615000D03*
G01*
X1835000Y2615000D03*
G01*
X1935000Y2615000D03*
G01*
X2035000Y2615000D03*
G01*
X2135000Y2615000D03*
G01*
X2235000Y2615000D03*
G01*
X2335000Y2615000D03*
G01*
X1635000Y2615000D03*
G01*
X875000Y2615000D03*
G01*
X975000Y2615000D03*
G01*
X1075000Y2615000D03*
G01*
X1175000Y2615000D03*
G01*
X1275000Y2615000D03*
G01*
X1375000Y2615000D03*
G01*
X1475000Y2615000D03*
D39*
G01*
X3635000Y1815000D03*
G01*
X3535000Y1815000D03*
G01*
X3635000Y1915000D03*
G01*
X3535000Y1915000D03*
G01*
X3635000Y2015000D03*
G01*
X3535000Y2015000D03*
G01*
X3635000Y2115000D03*
G01*
X3535000Y2115000D03*
G01*
X3635000Y2215000D03*
G01*
X3535000Y2215000D03*
G01*
X3635000Y2315000D03*
G01*
X3535000Y2315000D03*
G01*
X3635000Y2415000D03*
G01*
X3535000Y2415000D03*
G01*
X3635000Y2515000D03*
G01*
X3535000Y2515000D03*
G01*
X3635000Y1015000D03*
G01*
X3535000Y1015000D03*
G01*
X3635000Y1115000D03*
G01*
X3535000Y1115000D03*
G01*
X3635000Y1215000D03*
G01*
X3535000Y1215000D03*
G01*
X3635000Y1315000D03*
G01*
X3535000Y1315000D03*
G01*
X3635000Y1415000D03*
G01*
X3535000Y1415000D03*
G01*
X3635000Y1515000D03*
G01*
X3535000Y1515000D03*
G01*
X3635000Y1615000D03*
G01*
X3535000Y1615000D03*
G01*
X3635000Y1715000D03*
G01*
X3535000Y1715000D03*
G01*
X3535000Y915000D03*
G01*
X3635000Y915000D03*
G01*
X3535000Y2615000D03*
G01*
X3635000Y2615000D03*
D38*
G01*
X1135000Y715000D03*
G01*
X1235000Y715000D03*
G01*
X1335000Y715000D03*
G01*
X1435000Y715000D03*
G01*
X1535000Y715000D03*
G01*
X1635000Y715000D03*
G01*
X1035000Y715000D03*
G01*
X935000Y715000D03*
G01*
X575000Y2615000D03*
D40*
G01*
X3540000Y3265000D03*
G01*
X3540000Y2965000D03*
M02*
