M48
INCH,LZ
;FILE_FORMAT=2:4
;TYPE=PLATED
;Layer: Drill PTH
;EasyEDA v6.4.19.2, 2021-05-28T18:10:01+02:00
;3d613cfe214941e49b762df90ee4d122,cfe1dd9c90504c3bbdd6ef614714b9c7,10
;Gerber Generator version 0.2
;Holesize 1 = 0.0120 inch
T01C0.0120
;Holesize 2 = 0.0350 inch
T02C0.0350
;Holesize 3 = 0.0350 inch
T03C0.0350
;Holesize 4 = 0.0360 inch
T04C0.0360
;Holesize 5 = 0.0390 inch
T05C0.0390
;Holesize 6 = 0.0430 inch
T06C0.0430
;Holesize 7 = 0.0430 inch
T07C0.0430
%
G05
G90
T01
X024500Y010700
X028300Y016150
X021850Y020050
X021000Y020050
X007250Y009650
X033050Y029450
X015500Y024950
X015500Y024350
X020400Y022300
X020400Y021750
X022750Y022300
X022750Y021750
X030850Y023550
X030850Y023900
T02
X009800Y019650
X009800Y020650
X009800Y021650
X008800Y021650
X008800Y020650
X008800Y019650
X013300Y022450
X013300Y020450
X013300Y019450
X010250Y011890
X010250Y010890
X011250Y011890
X011250Y010890
X011250Y009890
X012250Y011890
X012250Y010890
X012250Y009890
X013250Y011890
X013250Y010890
X013250Y009890
X014300Y009890
X014300Y010890
X014300Y011890
X009250Y011890
X009250Y010890
X009250Y009890
X010250Y009890
X009302Y014280
X009302Y015280
X014352Y013280
X009302Y013280
X014352Y015280
X014352Y014280
X013302Y014280
X013302Y015280
X010352Y013280
X012302Y014280
X012302Y015280
X011352Y013280
X011302Y014280
X011302Y015280
X012352Y013280
X010302Y014280
X010302Y015280
X013352Y013280
X013300Y021450
X008250Y009890
X008250Y010890
X008250Y011890
X022950Y013150
X021950Y013150
X008252Y013280
X008302Y015280
X008302Y014280
X011750Y022450
X011750Y023450
X011750Y024450
X011750Y021450
X011750Y020450
X011750Y019450
X011750Y018450
X011750Y017450
X006750Y017450
X006750Y018450
X006750Y019450
X006750Y020450
X006750Y021450
X006750Y022450
X006750Y023450
X006750Y024450
X019450Y011600
X022450Y011600
X018750Y010550
X021750Y010550
X035400Y032650
X035400Y029650
T03
X009850Y023950
X039099Y012750G85X039101Y012750
X038099Y012750G85X038101Y012750
X038099Y013750G85X038101Y013750
X039099Y013750G85X039101Y013750
X038099Y011750G85X038101Y011750
X039099Y011750G85X039101Y011750
X038099Y010750G85X038101Y010750
X039099Y010750G85X039101Y010750
X039100Y015150
X038100Y015150
X038100Y016150
X039100Y016150
X039100Y017150
X038100Y017150
X038100Y018150
X039100Y018150
X038100Y019150
X039100Y019150
X009850Y023950
X008866Y023950
X038000Y008400
X038984Y008400
X036350Y018150
X035350Y018150
X036350Y019150
X035350Y019150
X036350Y020150
X035350Y020150
X036350Y021150
X035350Y021150
X036350Y022150
X035350Y022150
X036350Y023150
X035350Y023150
X036350Y024150
X035350Y024150
X036350Y025150
X035350Y025150
X036350Y010150
X035350Y010150
X036350Y011150
X035350Y011150
X036350Y012150
X035350Y012150
X036350Y013150
X035350Y013150
X036350Y014150
X035350Y014150
X036350Y015150
X035350Y015150
X036350Y016150
X035350Y016150
X036350Y017150
X035350Y017150
X035350Y009150
X036350Y009150
X035350Y026150
X036350Y026150
T04
X016050Y015000
X017435Y015000
X016050Y011400
X017435Y011400
T05
X006950Y005800
X007950Y005800
X008950Y005800
X013300Y005800
X014300Y005800
X015300Y005800
X016300Y005800
X019350Y005950
X020350Y005950
X021350Y005950
X022350Y005950
X023350Y005950
X024350Y005950
X025350Y005950
X027350Y005950
X028350Y005950
X029350Y005950
X030350Y005950
X031350Y005950
X032350Y005950
X033350Y005950
X034350Y005950
X036150Y006000
X038150Y006000
X037150Y006000
X039150Y006000
X004950Y005800
X005950Y005800
X017300Y005800
X003950Y005800
X013300Y005800
X012300Y005800
X026350Y027600
X027350Y027600
X028350Y027600
X029350Y027600
X030350Y027600
X031350Y027600
X032350Y027600
X025350Y027600
X022350Y027600
X023350Y027600
X005750Y027600
X006750Y027600
X007750Y027600
X008750Y027600
X016350Y027600
X017350Y027600
X018350Y027600
X019350Y027600
X036350Y027600
X035350Y027600
X038050Y029150
X038050Y028150
X038050Y027150
X038050Y026150
X038098Y020850
X038098Y021850
X038098Y022850
X038098Y023850
X036550Y031300
X037550Y031300
X038550Y031300
X019650Y014050
X019650Y013050
X007750Y026150
X006750Y026150
X028350Y007150
X029350Y007150
X030350Y007150
X031350Y007150
X032350Y007150
X033350Y007150
X034350Y007150
X027350Y007150
X026350Y026150
X027350Y026150
X028350Y026150
X029350Y026150
X030350Y026150
X031350Y026150
X032350Y026150
X025350Y026150
X019350Y007150
X020350Y007150
X021350Y007150
X022350Y007150
X023350Y007150
X024350Y007150
X025350Y007150
X018350Y007150
X017350Y026150
X018350Y026150
X019350Y026150
X020350Y026150
X021350Y026150
X022350Y026150
X023350Y026150
X016350Y026150
X008750Y026150
X009750Y026150
X010750Y026150
X011750Y026150
X012750Y026150
X013750Y026150
X014750Y026150
X011350Y007150
X012350Y007150
X013350Y007150
X014350Y007150
X015350Y007150
X016350Y007150
X010350Y007150
X009350Y007150
T06
X005750Y026150
T07
X025900Y019941G85X025900Y019959
X025900Y020941G85X025900Y020959
X025900Y021941G85X025900Y021959
X025900Y022941G85X025900Y022959
X015650Y022941G85X015650Y022959
X015650Y021941G85X015650Y021959
X015650Y020941G85X015650Y020959
X015650Y019941G85X015650Y019959
X025900Y014141G85X025900Y014159
X025900Y013141G85X025900Y013159
X025900Y012141G85X025900Y012159
X025900Y011141G85X025900Y011159
X033450Y031059G85X033450Y031041
X033450Y032059G85X033450Y032041
X033450Y033059G85X033450Y033041
X033450Y034059G85X033450Y034041
X023250Y034059G85X023250Y034041
X023250Y033059G85X023250Y033041
X023250Y032059G85X023250Y032041
X023250Y031059G85X023250Y031041
X013050Y034059G85X013050Y034041
X013050Y033059G85X013050Y033041
X013050Y032059G85X013050Y032041
X013050Y031059G85X013050Y031041
X002950Y023350
X002950Y021350
X002950Y019000
X002950Y017000
X003000Y010300
X003000Y008300
X002950Y014650
X002950Y012650
M30
