G04 Layer: TopSilkLayer*
G04 EasyEDA v6.4.19.2, 2021-05-28T18:10:01+02:00*
G04 3d613cfe214941e49b762df90ee4d122,cfe1dd9c90504c3bbdd6ef614714b9c7,10*
G04 Gerber Generator version 0.2*
G04 Scale: 100 percent, Rotated: No, Reflected: No *
G04 Dimensions in inches *
G04 leading zeros omitted , absolute positions ,3 integer and 6 decimal *
%FSLAX36Y36*%
%MOIN*%

%ADD10C,0.0100*%
%ADD15C,0.0098*%
%ADD16C,0.0118*%
%ADD28C,0.0050*%
%ADD29C,0.0079*%
%ADD30C,0.0059*%
%ADD31C,0.0080*%
%ADD32C,0.0039*%
%ADD33C,0.0071*%
%ADD34C,0.0071*%
%ADD35C,0.0079*%
%ADD36C,0.0070*%
%ADD37C,0.0040*%

%LPD*%
D30*
X2699998Y2265000D02*
G01*
X2737599Y2265000D01*
X2699998Y2276799D02*
G01*
X2737599Y2276799D01*
X2699998Y2276799D02*
G01*
X2737599Y2301900D01*
X2699998Y2301900D02*
G01*
X2737599Y2301900D01*
X2708999Y2315500D02*
G01*
X2707199Y2315500D01*
X2703599Y2317300D01*
X2701799Y2319000D01*
X2699998Y2322600D01*
X2699998Y2329800D01*
X2701799Y2333400D01*
X2703599Y2335200D01*
X2707199Y2336900D01*
X2710798Y2336900D01*
X2714299Y2335200D01*
X2719699Y2331599D01*
X2737599Y2313699D01*
X2737599Y2338699D01*
X2700000Y2165000D02*
G01*
X2737600Y2165000D01*
X2700000Y2176799D02*
G01*
X2737600Y2176799D01*
X2700000Y2176799D02*
G01*
X2737600Y2201900D01*
X2700000Y2201900D02*
G01*
X2737600Y2201900D01*
X2707200Y2213699D02*
G01*
X2705399Y2217300D01*
X2700000Y2222600D01*
X2737600Y2222600D01*
X2700000Y2055000D02*
G01*
X2737600Y2069299D01*
X2700000Y2083600D02*
G01*
X2737600Y2069299D01*
X2700000Y2095399D02*
G01*
X2737600Y2095399D01*
X2700000Y2095399D02*
G01*
X2737600Y2109800D01*
X2700000Y2124099D02*
G01*
X2737600Y2109800D01*
X2700000Y2124099D02*
G01*
X2737600Y2124099D01*
X2708999Y1961799D02*
G01*
X2705399Y1960100D01*
X2701800Y1956500D01*
X2700000Y1952899D01*
X2700000Y1945700D01*
X2701800Y1942199D01*
X2705399Y1938600D01*
X2708999Y1936799D01*
X2714300Y1935000D01*
X2723299Y1935000D01*
X2728699Y1936799D01*
X2732200Y1938600D01*
X2735799Y1942199D01*
X2737600Y1945700D01*
X2737600Y1952899D01*
X2735799Y1956500D01*
X2732200Y1960100D01*
X2728699Y1961799D01*
X2723299Y1961799D01*
X2723299Y1952899D02*
G01*
X2723299Y1961799D01*
X2700000Y1973699D02*
G01*
X2737600Y1973699D01*
X2700000Y1973699D02*
G01*
X2737600Y1998699D01*
X2700000Y1998699D02*
G01*
X2737600Y1998699D01*
X2700000Y2010500D02*
G01*
X2737600Y2010500D01*
X2700000Y2010500D02*
G01*
X2700000Y2023000D01*
X2701800Y2028400D01*
X2705399Y2031999D01*
X2708999Y2033800D01*
X2714300Y2035599D01*
X2723299Y2035599D01*
X2728699Y2033800D01*
X2732200Y2031999D01*
X2735799Y2028400D01*
X2737600Y2023000D01*
X2737600Y2010500D01*
D31*
X2812500Y1930000D02*
G01*
X2876300Y1930000D01*
X2812500Y1930000D02*
G01*
X2812500Y1951300D01*
X2815500Y1960399D01*
X2821599Y1966500D01*
X2827700Y1969499D01*
X2836800Y1972600D01*
X2851999Y1972600D01*
X2861099Y1969499D01*
X2867200Y1966500D01*
X2873299Y1960399D01*
X2876300Y1951300D01*
X2876300Y1930000D01*
X2812500Y1992699D02*
G01*
X2876300Y1992699D01*
X2812500Y1992699D02*
G01*
X2812500Y2020100D01*
X2815500Y2029200D01*
X2818500Y2032199D01*
X2824600Y2035300D01*
X2830699Y2035300D01*
X2836800Y2032199D01*
X2839799Y2029200D01*
X2842899Y2020100D01*
X2842899Y1992699D01*
X2842899Y2014000D02*
G01*
X2876300Y2035300D01*
X2812500Y2055300D02*
G01*
X2876300Y2079699D01*
X2812500Y2104000D02*
G01*
X2876300Y2079699D01*
X2812500Y2139299D02*
G01*
X2815500Y2130200D01*
X2821599Y2127100D01*
X2827700Y2127100D01*
X2833800Y2130200D01*
X2836800Y2136300D01*
X2839799Y2148400D01*
X2842899Y2157600D01*
X2848999Y2163600D01*
X2855100Y2166700D01*
X2864200Y2166700D01*
X2870299Y2163600D01*
X2873299Y2160599D01*
X2876300Y2151500D01*
X2876300Y2139299D01*
X2873299Y2130200D01*
X2870299Y2127100D01*
X2864200Y2124099D01*
X2855100Y2124099D01*
X2848999Y2127100D01*
X2842899Y2133200D01*
X2839799Y2142300D01*
X2836800Y2154499D01*
X2833800Y2160599D01*
X2827700Y2163600D01*
X2821599Y2163600D01*
X2815500Y2160599D01*
X2812500Y2151500D01*
X2812500Y2139299D01*
X2812500Y2201999D02*
G01*
X2815500Y2192800D01*
X2821599Y2189800D01*
X2827700Y2189800D01*
X2833800Y2192800D01*
X2836800Y2198899D01*
X2839799Y2211100D01*
X2842899Y2220200D01*
X2848999Y2226300D01*
X2855100Y2229400D01*
X2864200Y2229400D01*
X2870299Y2226300D01*
X2873299Y2223299D01*
X2876300Y2214099D01*
X2876300Y2201999D01*
X2873299Y2192800D01*
X2870299Y2189800D01*
X2864200Y2186799D01*
X2855100Y2186799D01*
X2848999Y2189800D01*
X2842899Y2195900D01*
X2839799Y2205000D01*
X2836800Y2217199D01*
X2833800Y2223299D01*
X2827700Y2226300D01*
X2821599Y2226300D01*
X2815500Y2223299D01*
X2812500Y2214099D01*
X2812500Y2201999D01*
X2812500Y2291999D02*
G01*
X2876300Y2261599D01*
X2812500Y2249400D02*
G01*
X2812500Y2291999D01*
X2824600Y2312100D02*
G01*
X2821599Y2318200D01*
X2812500Y2327300D01*
X2876300Y2327300D01*
X986000Y2297001D02*
G01*
X986000Y2355001D01*
X1015000Y2326001D02*
G01*
X956999Y2326001D01*
D30*
X995005Y1640720D02*
G01*
X995005Y1595619D01*
X995005Y1595619D02*
G01*
X1020805Y1595619D01*
X1034904Y1640720D02*
G01*
X1034904Y1595619D01*
X1034904Y1640720D02*
G01*
X1062905Y1640720D01*
X1034904Y1619220D02*
G01*
X1052105Y1619220D01*
X1089539Y1640720D02*
G01*
X1089539Y1595619D01*
X1089539Y1595619D02*
G01*
X1115339Y1595619D01*
X1129440Y1640720D02*
G01*
X1129440Y1595619D01*
X1129440Y1640720D02*
G01*
X1148840Y1640720D01*
X1155240Y1638519D01*
X1157439Y1636419D01*
X1159539Y1632120D01*
X1159539Y1627820D01*
X1157439Y1623519D01*
X1155240Y1621320D01*
X1148840Y1619220D01*
X1129440Y1619220D02*
G01*
X1148840Y1619220D01*
X1155240Y1617120D01*
X1157439Y1614920D01*
X1159539Y1610619D01*
X1159539Y1604220D01*
X1157439Y1599920D01*
X1155240Y1597719D01*
X1148840Y1595619D01*
X1129440Y1595619D01*
X1186171Y1640720D02*
G01*
X1186171Y1595619D01*
X1186171Y1640720D02*
G01*
X1205471Y1640720D01*
X1211971Y1638519D01*
X1214071Y1636419D01*
X1216271Y1632120D01*
X1216271Y1627820D01*
X1214071Y1623519D01*
X1211971Y1621320D01*
X1205471Y1619220D01*
X1186171Y1619220D01*
X1201171Y1619220D02*
G01*
X1216271Y1595619D01*
X1230371Y1640720D02*
G01*
X1230371Y1595619D01*
X1230371Y1640720D02*
G01*
X1258371Y1640720D01*
X1230371Y1619220D02*
G01*
X1247572Y1619220D01*
X1285005Y1640720D02*
G01*
X1285005Y1595621D01*
X1285005Y1640720D02*
G01*
X1304305Y1640720D01*
X1310805Y1638521D01*
X1312905Y1636421D01*
X1315105Y1632121D01*
X1315105Y1627820D01*
X1312905Y1623521D01*
X1310805Y1621320D01*
X1304305Y1619220D01*
X1285005Y1619220D01*
X1300005Y1619220D02*
G01*
X1315105Y1595621D01*
X1329205Y1640720D02*
G01*
X1329205Y1595621D01*
X1329205Y1640720D02*
G01*
X1348604Y1640720D01*
X1355005Y1638521D01*
X1357205Y1636421D01*
X1359305Y1632121D01*
X1359305Y1627820D01*
X1357205Y1623521D01*
X1355005Y1621320D01*
X1348604Y1619220D01*
X1329205Y1619220D02*
G01*
X1348604Y1619220D01*
X1355005Y1617121D01*
X1357205Y1614920D01*
X1359305Y1610621D01*
X1359305Y1604220D01*
X1357205Y1599920D01*
X1355005Y1597721D01*
X1348604Y1595621D01*
X1329205Y1595621D01*
D32*
X1426800Y1675799D02*
G01*
X1425100Y1679400D01*
X1421499Y1682899D01*
X1417899Y1684699D01*
X1410699Y1684699D01*
X1407200Y1682899D01*
X1403599Y1679400D01*
X1401800Y1675799D01*
X1400000Y1670399D01*
X1400000Y1661500D01*
X1401800Y1656100D01*
X1403599Y1652500D01*
X1407200Y1648899D01*
X1410699Y1647100D01*
X1417899Y1647100D01*
X1421499Y1648899D01*
X1425100Y1652500D01*
X1426800Y1656100D01*
X1460100Y1672199D02*
G01*
X1460100Y1647100D01*
X1460100Y1666799D02*
G01*
X1456499Y1670399D01*
X1453000Y1672199D01*
X1447600Y1672199D01*
X1443999Y1670399D01*
X1440399Y1666799D01*
X1438699Y1661500D01*
X1438699Y1657899D01*
X1440399Y1652500D01*
X1443999Y1648899D01*
X1447600Y1647100D01*
X1453000Y1647100D01*
X1456499Y1648899D01*
X1460100Y1652500D01*
X1471899Y1672199D02*
G01*
X1471899Y1647100D01*
X1471899Y1665000D02*
G01*
X1477299Y1670399D01*
X1480900Y1672199D01*
X1486300Y1672199D01*
X1489799Y1670399D01*
X1491599Y1665000D01*
X1491599Y1647100D01*
X1491599Y1665000D02*
G01*
X1496999Y1670399D01*
X1500600Y1672199D01*
X1505900Y1672199D01*
X1509499Y1670399D01*
X1511300Y1665000D01*
X1511300Y1647100D01*
X1296800Y2460799D02*
G01*
X1295100Y2464400D01*
X1291499Y2467899D01*
X1287899Y2469699D01*
X1280699Y2469699D01*
X1277200Y2467899D01*
X1273599Y2464400D01*
X1271800Y2460799D01*
X1270000Y2455399D01*
X1270000Y2446500D01*
X1271800Y2441100D01*
X1273599Y2437500D01*
X1277200Y2433899D01*
X1280699Y2432100D01*
X1287899Y2432100D01*
X1291499Y2433899D01*
X1295100Y2437500D01*
X1296800Y2441100D01*
X1330100Y2457199D02*
G01*
X1330100Y2432100D01*
X1330100Y2451799D02*
G01*
X1326499Y2455399D01*
X1323000Y2457199D01*
X1317600Y2457199D01*
X1313999Y2455399D01*
X1310399Y2451799D01*
X1308699Y2446500D01*
X1308699Y2442899D01*
X1310399Y2437500D01*
X1313999Y2433899D01*
X1317600Y2432100D01*
X1323000Y2432100D01*
X1326499Y2433899D01*
X1330100Y2437500D01*
X1341899Y2457199D02*
G01*
X1341899Y2432100D01*
X1341899Y2450000D02*
G01*
X1347299Y2455399D01*
X1350900Y2457199D01*
X1356300Y2457199D01*
X1359799Y2455399D01*
X1361599Y2450000D01*
X1361599Y2432100D01*
X1361599Y2450000D02*
G01*
X1366999Y2455399D01*
X1370600Y2457199D01*
X1375900Y2457199D01*
X1379499Y2455399D01*
X1381300Y2450000D01*
X1381300Y2432100D01*
X719997Y1624702D02*
G01*
X721796Y1622903D01*
X723596Y1624702D01*
X721796Y1626502D01*
X719997Y1624702D01*
X721796Y1612202D02*
G01*
X721796Y1587103D01*
X735397Y1624702D02*
G01*
X735397Y1587103D01*
X735397Y1624702D02*
G01*
X751496Y1624702D01*
X756896Y1622903D01*
X758697Y1621102D01*
X760397Y1617602D01*
X760397Y1614002D01*
X758697Y1610403D01*
X756896Y1608602D01*
X751496Y1606803D01*
X735397Y1606803D02*
G01*
X751496Y1606803D01*
X756896Y1605003D01*
X758697Y1603303D01*
X760397Y1599702D01*
X760397Y1594303D01*
X758697Y1590702D01*
X756896Y1588903D01*
X751496Y1587103D01*
X735397Y1587103D01*
X772296Y1624702D02*
G01*
X772296Y1597903D01*
X773996Y1592503D01*
X777596Y1588903D01*
X782996Y1587103D01*
X786597Y1587103D01*
X791896Y1588903D01*
X795496Y1592503D01*
X797296Y1597903D01*
X797296Y1624702D01*
X834197Y1619403D02*
G01*
X830596Y1622903D01*
X825196Y1624702D01*
X818096Y1624702D01*
X812696Y1622903D01*
X809097Y1619403D01*
X809097Y1615803D01*
X810897Y1612202D01*
X812696Y1610403D01*
X816297Y1608602D01*
X826997Y1605003D01*
X830596Y1603303D01*
X832397Y1601502D01*
X834197Y1597903D01*
X834197Y1592503D01*
X830596Y1588903D01*
X825196Y1587103D01*
X818096Y1587103D01*
X812696Y1588903D01*
X809097Y1592503D01*
X540900Y2085000D02*
G01*
X538800Y2089299D01*
X532299Y2095700D01*
X577399Y2095700D01*
X543100Y2112100D02*
G01*
X540900Y2112100D01*
X536599Y2114200D01*
X534499Y2116399D01*
X532299Y2120599D01*
X532299Y2129200D01*
X534499Y2133499D01*
X536599Y2135700D01*
X540900Y2137800D01*
X545200Y2137800D01*
X549499Y2135700D01*
X555900Y2131399D01*
X577399Y2109899D01*
X577399Y2140000D01*
X532299Y2154099D02*
G01*
X577399Y2171300D01*
X532299Y2188499D02*
G01*
X577399Y2171300D01*
X543100Y2302199D02*
G01*
X538800Y2300100D01*
X534499Y2295799D01*
X532299Y2291500D01*
X532299Y2282899D01*
X534499Y2278600D01*
X538800Y2274299D01*
X543100Y2272100D01*
X549499Y2270000D01*
X560200Y2270000D01*
X566700Y2272100D01*
X571000Y2274299D01*
X575299Y2278600D01*
X577399Y2282899D01*
X577399Y2291500D01*
X575299Y2295799D01*
X571000Y2300100D01*
X566700Y2302199D01*
X560200Y2302199D01*
X560200Y2291500D02*
G01*
X560200Y2302199D01*
X532299Y2316399D02*
G01*
X577399Y2316399D01*
X532299Y2316399D02*
G01*
X577399Y2346399D01*
X532299Y2346399D02*
G01*
X577399Y2346399D01*
X532299Y2360599D02*
G01*
X577399Y2360599D01*
X532299Y2360599D02*
G01*
X532299Y2375700D01*
X534499Y2382100D01*
X538800Y2386399D01*
X543100Y2388499D01*
X549499Y2390700D01*
X560200Y2390700D01*
X566700Y2388499D01*
X571000Y2386399D01*
X575299Y2382100D01*
X577399Y2375700D01*
X577399Y2360599D01*
D30*
X1991800Y1065799D02*
G01*
X1991800Y1067600D01*
X1993599Y1071100D01*
X1995399Y1072899D01*
X1998900Y1074699D01*
X2006099Y1074699D01*
X2009700Y1072899D01*
X2011499Y1071100D01*
X2013299Y1067600D01*
X2013299Y1064000D01*
X2011499Y1060399D01*
X2007899Y1055000D01*
X1990000Y1037100D01*
X2015100Y1037100D01*
X2026899Y1074699D02*
G01*
X2026899Y1037100D01*
X2051899Y1074699D02*
G01*
X2026899Y1049699D01*
X2035799Y1058600D02*
G01*
X2051899Y1037100D01*
X2065000Y1167600D02*
G01*
X2068599Y1169400D01*
X2073900Y1174699D01*
X2073900Y1137100D01*
X2085799Y1174699D02*
G01*
X2085799Y1137100D01*
X2110799Y1174699D02*
G01*
X2085799Y1149699D01*
X2094700Y1158600D02*
G01*
X2110799Y1137100D01*
D32*
X538800Y805799D02*
G01*
X534499Y803600D01*
X532299Y797199D01*
X532299Y792899D01*
X534499Y786399D01*
X540900Y782100D01*
X551700Y780000D01*
X562399Y780000D01*
X571000Y782100D01*
X575299Y786399D01*
X577399Y792899D01*
X577399Y795000D01*
X575299Y801500D01*
X571000Y805799D01*
X564499Y807899D01*
X562399Y807899D01*
X555900Y805799D01*
X551700Y801500D01*
X549499Y795000D01*
X549499Y792899D01*
X551700Y786399D01*
X555900Y782100D01*
X562399Y780000D01*
X532299Y822100D02*
G01*
X577399Y839299D01*
X532299Y856399D02*
G01*
X577399Y839299D01*
X538100Y992199D02*
G01*
X533800Y990100D01*
X529499Y985799D01*
X527299Y981500D01*
X527299Y972899D01*
X529499Y968600D01*
X533800Y964299D01*
X538100Y962100D01*
X544499Y960000D01*
X555200Y960000D01*
X561700Y962100D01*
X566000Y964299D01*
X570299Y968600D01*
X572399Y972899D01*
X572399Y981500D01*
X570299Y985799D01*
X566000Y990100D01*
X561700Y992199D01*
X555200Y992199D01*
X555200Y981500D02*
G01*
X555200Y992199D01*
X527299Y1006399D02*
G01*
X572399Y1006399D01*
X527299Y1006399D02*
G01*
X572399Y1036399D01*
X527299Y1036399D02*
G01*
X572399Y1036399D01*
X527299Y1050599D02*
G01*
X572399Y1050599D01*
X527299Y1050599D02*
G01*
X527299Y1065700D01*
X529499Y1072100D01*
X533800Y1076399D01*
X538100Y1078499D01*
X544499Y1080700D01*
X555200Y1080700D01*
X561700Y1078499D01*
X566000Y1076399D01*
X570299Y1072100D01*
X572399Y1065700D01*
X572399Y1050599D01*
D33*
X220000Y2537500D02*
G01*
X220000Y2473699D01*
X240100Y2537500D02*
G01*
X240100Y2473699D01*
X240100Y2537500D02*
G01*
X282700Y2473699D01*
X282700Y2537500D02*
G01*
X282700Y2473699D01*
X302700Y2537500D02*
G01*
X302700Y2473699D01*
X302700Y2537500D02*
G01*
X330100Y2537500D01*
X339300Y2534499D01*
X342299Y2531500D01*
X345299Y2525399D01*
X345299Y2516199D01*
X342299Y2510200D01*
X339300Y2507100D01*
X330100Y2504099D01*
X302700Y2504099D01*
X365399Y2537500D02*
G01*
X365399Y2491900D01*
X368500Y2482800D01*
X374499Y2476700D01*
X383699Y2473699D01*
X389799Y2473699D01*
X398900Y2476700D01*
X405000Y2482800D01*
X408000Y2491900D01*
X408000Y2537500D01*
X449399Y2537500D02*
G01*
X449399Y2473699D01*
X428100Y2537500D02*
G01*
X470699Y2537500D01*
D32*
X592299Y1185000D02*
G01*
X637399Y1185000D01*
X592299Y1170000D02*
G01*
X592299Y1200100D01*
X607399Y1225000D02*
G01*
X609499Y1220700D01*
X613800Y1216399D01*
X620200Y1214200D01*
X624499Y1214200D01*
X631000Y1216399D01*
X635299Y1220700D01*
X637399Y1225000D01*
X637399Y1231399D01*
X635299Y1235700D01*
X631000Y1240000D01*
X624499Y1242199D01*
X620200Y1242199D01*
X613800Y1240000D01*
X609499Y1235700D01*
X607399Y1231399D01*
X607399Y1225000D01*
X603100Y1321599D02*
G01*
X598800Y1319499D01*
X594499Y1315199D01*
X592299Y1310900D01*
X592299Y1302300D01*
X594499Y1298000D01*
X598800Y1293699D01*
X603100Y1291500D01*
X609499Y1289400D01*
X620200Y1289400D01*
X626700Y1291500D01*
X631000Y1293699D01*
X635299Y1298000D01*
X637399Y1302300D01*
X637399Y1310900D01*
X635299Y1315199D01*
X631000Y1319499D01*
X626700Y1321599D01*
X607399Y1346500D02*
G01*
X609499Y1342199D01*
X613800Y1337899D01*
X620200Y1335799D01*
X624499Y1335799D01*
X631000Y1337899D01*
X635299Y1342199D01*
X637399Y1346500D01*
X637399Y1353000D01*
X635299Y1357300D01*
X631000Y1361599D01*
X624499Y1363699D01*
X620200Y1363699D01*
X613800Y1361599D01*
X609499Y1357300D01*
X607399Y1353000D01*
X607399Y1346500D01*
X607399Y1377899D02*
G01*
X637399Y1377899D01*
X615900Y1377899D02*
G01*
X609499Y1384299D01*
X607399Y1388600D01*
X607399Y1395100D01*
X609499Y1399299D01*
X615900Y1401500D01*
X637399Y1401500D01*
X607399Y1415700D02*
G01*
X637399Y1428600D01*
X607399Y1441399D02*
G01*
X637399Y1428600D01*
X620200Y1455599D02*
G01*
X620200Y1481399D01*
X615900Y1481399D01*
X611700Y1479200D01*
X609499Y1477100D01*
X607399Y1472800D01*
X607399Y1466300D01*
X609499Y1462100D01*
X613800Y1457800D01*
X620200Y1455599D01*
X624499Y1455599D01*
X631000Y1457800D01*
X635299Y1462100D01*
X637399Y1466300D01*
X637399Y1472800D01*
X635299Y1477100D01*
X631000Y1481399D01*
X607399Y1495599D02*
G01*
X637399Y1495599D01*
X620200Y1495599D02*
G01*
X613800Y1497699D01*
X609499Y1501999D01*
X607399Y1506300D01*
X607399Y1512699D01*
X592299Y1533299D02*
G01*
X628800Y1533299D01*
X635299Y1535500D01*
X637399Y1539800D01*
X637399Y1544099D01*
X607399Y1526900D02*
G01*
X607399Y1541900D01*
X620200Y1558299D02*
G01*
X620200Y1584000D01*
X615900Y1584000D01*
X611700Y1581900D01*
X609499Y1579699D01*
X607399Y1575399D01*
X607399Y1569000D01*
X609499Y1564699D01*
X613800Y1560399D01*
X620200Y1558299D01*
X624499Y1558299D01*
X631000Y1560399D01*
X635299Y1564699D01*
X637399Y1569000D01*
X637399Y1575399D01*
X635299Y1579699D01*
X631000Y1584000D01*
X607399Y1598200D02*
G01*
X637399Y1598200D01*
X620200Y1598200D02*
G01*
X613800Y1600300D01*
X609499Y1604600D01*
X607399Y1608899D01*
X607399Y1615399D01*
X602299Y745000D02*
G01*
X647399Y745000D01*
X602299Y745000D02*
G01*
X602299Y772899D01*
X623800Y745000D02*
G01*
X623800Y762199D01*
X617399Y787100D02*
G01*
X647399Y787100D01*
X630200Y787100D02*
G01*
X623800Y789200D01*
X619499Y793499D01*
X617399Y797800D01*
X617399Y804299D01*
X617399Y829200D02*
G01*
X619499Y824899D01*
X623800Y820599D01*
X630200Y818400D01*
X634499Y818400D01*
X641000Y820599D01*
X645299Y824899D01*
X647399Y829200D01*
X647399Y835599D01*
X645299Y839899D01*
X641000Y844200D01*
X634499Y846399D01*
X630200Y846399D01*
X623800Y844200D01*
X619499Y839899D01*
X617399Y835599D01*
X617399Y829200D01*
X617399Y860500D02*
G01*
X647399Y860500D01*
X625900Y860500D02*
G01*
X619499Y866999D01*
X617399Y871300D01*
X617399Y877699D01*
X619499Y881999D01*
X625900Y884200D01*
X647399Y884200D01*
X625900Y884200D02*
G01*
X619499Y890599D01*
X617399Y894899D01*
X617399Y901300D01*
X619499Y905599D01*
X625900Y907800D01*
X647399Y907800D01*
X613100Y987199D02*
G01*
X608800Y985100D01*
X604499Y980799D01*
X602299Y976500D01*
X602299Y967899D01*
X604499Y963600D01*
X608800Y959299D01*
X613100Y957199D01*
X619499Y955000D01*
X630200Y955000D01*
X636700Y957199D01*
X641000Y959299D01*
X645299Y963600D01*
X647399Y967899D01*
X647399Y976500D01*
X645299Y980799D01*
X641000Y985100D01*
X636700Y987199D01*
X617399Y1012100D02*
G01*
X619499Y1007800D01*
X623800Y1003600D01*
X630200Y1001399D01*
X634499Y1001399D01*
X641000Y1003600D01*
X645299Y1007800D01*
X647399Y1012100D01*
X647399Y1018600D01*
X645299Y1022899D01*
X641000Y1027199D01*
X634499Y1029299D01*
X630200Y1029299D01*
X623800Y1027199D01*
X619499Y1022899D01*
X617399Y1018600D01*
X617399Y1012100D01*
X617399Y1043499D02*
G01*
X647399Y1043499D01*
X625900Y1043499D02*
G01*
X619499Y1049899D01*
X617399Y1054200D01*
X617399Y1060700D01*
X619499Y1065000D01*
X625900Y1067100D01*
X647399Y1067100D01*
X617399Y1081300D02*
G01*
X647399Y1094200D01*
X617399Y1107100D02*
G01*
X647399Y1094200D01*
X636700Y1123400D02*
G01*
X638800Y1121199D01*
X641000Y1123400D01*
X638800Y1125500D01*
X636700Y1123400D01*
X740497Y970603D02*
G01*
X744098Y967103D01*
X749498Y965302D01*
X756697Y965302D01*
X761998Y967103D01*
X765598Y970603D01*
X765598Y974203D01*
X763797Y977802D01*
X761998Y979603D01*
X758397Y981403D01*
X747698Y985003D01*
X744098Y986703D01*
X742298Y988503D01*
X740497Y992103D01*
X740497Y997503D01*
X744098Y1001102D01*
X749498Y1002903D01*
X756697Y1002903D01*
X761998Y1001102D01*
X765598Y997503D01*
X723396Y1098501D02*
G01*
X721595Y1102002D01*
X716195Y1103802D01*
X712596Y1103802D01*
X707295Y1102002D01*
X703695Y1096702D01*
X701895Y1087701D01*
X701895Y1078802D01*
X703695Y1071601D01*
X707295Y1068002D01*
X712596Y1066201D01*
X714395Y1066201D01*
X719795Y1068002D01*
X723396Y1071601D01*
X725195Y1077002D01*
X725195Y1078802D01*
X723396Y1084101D01*
X719795Y1087701D01*
X714395Y1089502D01*
X712596Y1089502D01*
X707295Y1087701D01*
X703695Y1084101D01*
X701895Y1078802D01*
X736995Y1103802D02*
G01*
X751296Y1066201D01*
X765595Y1103802D02*
G01*
X751296Y1066201D01*
X691796Y1195803D02*
G01*
X690096Y1199403D01*
X686496Y1202903D01*
X682897Y1204702D01*
X675697Y1204702D01*
X672196Y1202903D01*
X668596Y1199403D01*
X666796Y1195803D01*
X664997Y1190403D01*
X664997Y1181502D01*
X666796Y1176102D01*
X668596Y1172503D01*
X672196Y1168903D01*
X675697Y1167103D01*
X682897Y1167103D01*
X686496Y1168903D01*
X690096Y1172503D01*
X691796Y1176102D01*
X691796Y1181502D01*
X682897Y1181502D02*
G01*
X691796Y1181502D01*
X703697Y1204702D02*
G01*
X703697Y1167103D01*
X703697Y1204702D02*
G01*
X728697Y1167103D01*
X728697Y1204702D02*
G01*
X728697Y1167103D01*
X740496Y1204702D02*
G01*
X740496Y1167103D01*
X740496Y1204702D02*
G01*
X752996Y1204702D01*
X758397Y1202903D01*
X761997Y1199403D01*
X763797Y1195803D01*
X765596Y1190403D01*
X765596Y1181502D01*
X763797Y1176102D01*
X761997Y1172503D01*
X758397Y1168903D01*
X752996Y1167103D01*
X740496Y1167103D01*
D30*
X2972299Y1940000D02*
G01*
X3017399Y1940000D01*
X3017399Y1940000D02*
G01*
X3017399Y1965799D01*
X3000200Y1979899D02*
G01*
X3000200Y2005700D01*
X2995900Y2005700D01*
X2991700Y2003600D01*
X2989499Y2001399D01*
X2987399Y1997100D01*
X2987399Y1990700D01*
X2989499Y1986399D01*
X2993800Y1982100D01*
X3000200Y1979899D01*
X3004499Y1979899D01*
X3011000Y1982100D01*
X3015299Y1986399D01*
X3017399Y1990700D01*
X3017399Y1997100D01*
X3015299Y2001399D01*
X3011000Y2005700D01*
X2972299Y2037100D02*
G01*
X2972299Y2032800D01*
X2974499Y2028499D01*
X2980900Y2026300D01*
X3017399Y2026300D01*
X2987399Y2019899D02*
G01*
X2987399Y2034899D01*
X2972299Y2057699D02*
G01*
X3008800Y2057699D01*
X3015299Y2059800D01*
X3017399Y2064099D01*
X3017399Y2068400D01*
X2987399Y2051199D02*
G01*
X2987399Y2066300D01*
X2972299Y2115700D02*
G01*
X3017399Y2115700D01*
X2972299Y2115700D02*
G01*
X3017399Y2132800D01*
X2972299Y2150000D02*
G01*
X3017399Y2132800D01*
X2972299Y2150000D02*
G01*
X3017399Y2150000D01*
X2972299Y2164200D02*
G01*
X2974499Y2166300D01*
X2972299Y2168499D01*
X2970200Y2166300D01*
X2972299Y2164200D01*
X2987399Y2166300D02*
G01*
X3017399Y2166300D01*
X2972299Y2208400D02*
G01*
X3017399Y2208400D01*
X2993800Y2208400D02*
G01*
X2989499Y2204099D01*
X2987399Y2199800D01*
X2987399Y2193400D01*
X2989499Y2189099D01*
X2993800Y2184800D01*
X3000200Y2182700D01*
X3004499Y2182700D01*
X3011000Y2184800D01*
X3015299Y2189099D01*
X3017399Y2193400D01*
X3017399Y2199800D01*
X3015299Y2204099D01*
X3011000Y2208400D01*
X2972299Y2248400D02*
G01*
X3017399Y2248400D01*
X2993800Y2248400D02*
G01*
X2989499Y2244099D01*
X2987399Y2239800D01*
X2987399Y2233299D01*
X2989499Y2229000D01*
X2993800Y2224800D01*
X3000200Y2222600D01*
X3004499Y2222600D01*
X3011000Y2224800D01*
X3015299Y2229000D01*
X3017399Y2233299D01*
X3017399Y2239800D01*
X3015299Y2244099D01*
X3011000Y2248400D01*
X2972299Y2262500D02*
G01*
X3017399Y2262500D01*
X3000200Y2276700D02*
G01*
X3000200Y2302500D01*
X2995900Y2302500D01*
X2991700Y2300300D01*
X2989499Y2298200D01*
X2987399Y2293899D01*
X2987399Y2287500D01*
X2989499Y2283200D01*
X2993800Y2278899D01*
X3000200Y2276700D01*
X3004499Y2276700D01*
X3011000Y2278899D01*
X3015299Y2283200D01*
X3017399Y2287500D01*
X3017399Y2293899D01*
X3015299Y2298200D01*
X3011000Y2302500D01*
X2972299Y1090000D02*
G01*
X3017399Y1090000D01*
X3017399Y1090000D02*
G01*
X3017399Y1115799D01*
X3000200Y1129899D02*
G01*
X3000200Y1155700D01*
X2995900Y1155700D01*
X2991700Y1153600D01*
X2989499Y1151399D01*
X2987399Y1147100D01*
X2987399Y1140700D01*
X2989499Y1136399D01*
X2993800Y1132100D01*
X3000200Y1129899D01*
X3004499Y1129899D01*
X3011000Y1132100D01*
X3015299Y1136399D01*
X3017399Y1140700D01*
X3017399Y1147100D01*
X3015299Y1151399D01*
X3011000Y1155700D01*
X2972299Y1187100D02*
G01*
X2972299Y1182800D01*
X2974499Y1178499D01*
X2980900Y1176300D01*
X3017399Y1176300D01*
X2987399Y1169899D02*
G01*
X2987399Y1184899D01*
X2972299Y1207699D02*
G01*
X3008800Y1207699D01*
X3015299Y1209800D01*
X3017399Y1214099D01*
X3017399Y1218400D01*
X2987399Y1201199D02*
G01*
X2987399Y1216300D01*
X2972299Y1265700D02*
G01*
X3017399Y1265700D01*
X2972299Y1265700D02*
G01*
X2972299Y1285000D01*
X2974499Y1291399D01*
X2976599Y1293600D01*
X2980900Y1295700D01*
X2985200Y1295700D01*
X2989499Y1293600D01*
X2991700Y1291399D01*
X2993800Y1285000D01*
X2993800Y1265700D02*
G01*
X2993800Y1285000D01*
X2995900Y1291399D01*
X2998100Y1293600D01*
X3002399Y1295700D01*
X3008800Y1295700D01*
X3013100Y1293600D01*
X3015299Y1291399D01*
X3017399Y1285000D01*
X3017399Y1265700D01*
X2987399Y1335700D02*
G01*
X3017399Y1335700D01*
X2993800Y1335700D02*
G01*
X2989499Y1331399D01*
X2987399Y1327100D01*
X2987399Y1320599D01*
X2989499Y1316300D01*
X2993800Y1311999D01*
X3000200Y1309899D01*
X3004499Y1309899D01*
X3011000Y1311999D01*
X3015299Y1316300D01*
X3017399Y1320599D01*
X3017399Y1327100D01*
X3015299Y1331399D01*
X3011000Y1335700D01*
X2993800Y1375599D02*
G01*
X2989499Y1371300D01*
X2987399Y1366999D01*
X2987399Y1360599D01*
X2989499Y1356300D01*
X2993800Y1351999D01*
X3000200Y1349800D01*
X3004499Y1349800D01*
X3011000Y1351999D01*
X3015299Y1356300D01*
X3017399Y1360599D01*
X3017399Y1366999D01*
X3015299Y1371300D01*
X3011000Y1375599D01*
X2972299Y1389800D02*
G01*
X3017399Y1389800D01*
X2987399Y1411300D02*
G01*
X3008800Y1389800D01*
X3000200Y1398400D02*
G01*
X3017399Y1413400D01*
X932700Y3470000D02*
G01*
X887600Y3470000D01*
X932700Y3470000D02*
G01*
X932700Y3450700D01*
X930500Y3444200D01*
X928400Y3442100D01*
X924099Y3439899D01*
X919799Y3439899D01*
X915500Y3442100D01*
X913299Y3444200D01*
X911199Y3450700D01*
X911199Y3470000D01*
X911199Y3455000D02*
G01*
X887600Y3439899D01*
X932700Y3425799D02*
G01*
X930500Y3423600D01*
X932700Y3421500D01*
X934799Y3423600D01*
X932700Y3425799D01*
X917600Y3423600D02*
G01*
X887600Y3423600D01*
X917600Y3381500D02*
G01*
X883299Y3381500D01*
X876800Y3383699D01*
X874700Y3385799D01*
X872500Y3390100D01*
X872500Y3396599D01*
X874700Y3400900D01*
X911199Y3381500D02*
G01*
X915500Y3385799D01*
X917600Y3390100D01*
X917600Y3396599D01*
X915500Y3400900D01*
X911199Y3405100D01*
X904799Y3407300D01*
X900500Y3407300D01*
X893999Y3405100D01*
X889700Y3400900D01*
X887600Y3396599D01*
X887600Y3390100D01*
X889700Y3385799D01*
X893999Y3381500D01*
X932700Y3367399D02*
G01*
X887600Y3367399D01*
X909099Y3367399D02*
G01*
X915500Y3360900D01*
X917600Y3356599D01*
X917600Y3350200D01*
X915500Y3345900D01*
X909099Y3343699D01*
X887600Y3343699D01*
X932700Y3323099D02*
G01*
X896199Y3323099D01*
X889700Y3320999D01*
X887600Y3316700D01*
X887600Y3312399D01*
X917600Y3329600D02*
G01*
X917600Y3314499D01*
X932700Y3265100D02*
G01*
X887600Y3265100D01*
X932700Y3265100D02*
G01*
X932700Y3237199D01*
X911199Y3265100D02*
G01*
X911199Y3248000D01*
X917600Y3223000D02*
G01*
X887600Y3223000D01*
X904799Y3223000D02*
G01*
X911199Y3220900D01*
X915500Y3216599D01*
X917600Y3212300D01*
X917600Y3205900D01*
X917600Y3180999D02*
G01*
X915500Y3185200D01*
X911199Y3189499D01*
X904799Y3191700D01*
X900500Y3191700D01*
X893999Y3189499D01*
X889700Y3185200D01*
X887600Y3180999D01*
X887600Y3174499D01*
X889700Y3170200D01*
X893999Y3165900D01*
X900500Y3163800D01*
X904799Y3163800D01*
X911199Y3165900D01*
X915500Y3170200D01*
X917600Y3174499D01*
X917600Y3180999D01*
X917600Y3149600D02*
G01*
X887600Y3149600D01*
X909099Y3149600D02*
G01*
X915500Y3143200D01*
X917600Y3138899D01*
X917600Y3132399D01*
X915500Y3128099D01*
X909099Y3125999D01*
X887600Y3125999D01*
X932700Y3105399D02*
G01*
X896199Y3105399D01*
X889700Y3103200D01*
X887600Y3098899D01*
X887600Y3094600D01*
X917600Y3111799D02*
G01*
X917600Y3096799D01*
X1937700Y3470000D02*
G01*
X1892600Y3470000D01*
X1937700Y3470000D02*
G01*
X1937700Y3450700D01*
X1935500Y3444200D01*
X1933400Y3442100D01*
X1929099Y3439899D01*
X1924799Y3439899D01*
X1920500Y3442100D01*
X1918299Y3444200D01*
X1916199Y3450700D01*
X1916199Y3470000D01*
X1916199Y3455000D02*
G01*
X1892600Y3439899D01*
X1937700Y3425799D02*
G01*
X1935500Y3423600D01*
X1937700Y3421500D01*
X1939799Y3423600D01*
X1937700Y3425799D01*
X1922600Y3423600D02*
G01*
X1892600Y3423600D01*
X1922600Y3381500D02*
G01*
X1888299Y3381500D01*
X1881800Y3383699D01*
X1879700Y3385799D01*
X1877500Y3390100D01*
X1877500Y3396599D01*
X1879700Y3400900D01*
X1916199Y3381500D02*
G01*
X1920500Y3385799D01*
X1922600Y3390100D01*
X1922600Y3396599D01*
X1920500Y3400900D01*
X1916199Y3405100D01*
X1909799Y3407300D01*
X1905500Y3407300D01*
X1898999Y3405100D01*
X1894700Y3400900D01*
X1892600Y3396599D01*
X1892600Y3390100D01*
X1894700Y3385799D01*
X1898999Y3381500D01*
X1937700Y3367399D02*
G01*
X1892600Y3367399D01*
X1914099Y3367399D02*
G01*
X1920500Y3360900D01*
X1922600Y3356599D01*
X1922600Y3350200D01*
X1920500Y3345900D01*
X1914099Y3343699D01*
X1892600Y3343699D01*
X1937700Y3323099D02*
G01*
X1901199Y3323099D01*
X1894700Y3320999D01*
X1892600Y3316700D01*
X1892600Y3312399D01*
X1922600Y3329600D02*
G01*
X1922600Y3314499D01*
X1937700Y3265100D02*
G01*
X1892600Y3265100D01*
X1937700Y3265100D02*
G01*
X1892600Y3248000D01*
X1937700Y3230799D02*
G01*
X1892600Y3248000D01*
X1937700Y3230799D02*
G01*
X1892600Y3230799D01*
X1937700Y3216599D02*
G01*
X1935500Y3214499D01*
X1937700Y3212300D01*
X1939799Y3214499D01*
X1937700Y3216599D01*
X1922600Y3214499D02*
G01*
X1892600Y3214499D01*
X1937700Y3172399D02*
G01*
X1892600Y3172399D01*
X1916199Y3172399D02*
G01*
X1920500Y3176700D01*
X1922600Y3180999D01*
X1922600Y3187399D01*
X1920500Y3191700D01*
X1916199Y3195999D01*
X1909799Y3198099D01*
X1905500Y3198099D01*
X1898999Y3195999D01*
X1894700Y3191700D01*
X1892600Y3187399D01*
X1892600Y3180999D01*
X1894700Y3176700D01*
X1898999Y3172399D01*
X1937700Y3132399D02*
G01*
X1892600Y3132399D01*
X1916199Y3132399D02*
G01*
X1920500Y3136700D01*
X1922600Y3140999D01*
X1922600Y3147500D01*
X1920500Y3151700D01*
X1916199Y3155999D01*
X1909799Y3158200D01*
X1905500Y3158200D01*
X1898999Y3155999D01*
X1894700Y3151700D01*
X1892600Y3147500D01*
X1892600Y3140999D01*
X1894700Y3136700D01*
X1898999Y3132399D01*
X1937700Y3118200D02*
G01*
X1892600Y3118200D01*
X1909799Y3104099D02*
G01*
X1909799Y3078299D01*
X1914099Y3078299D01*
X1918299Y3080500D01*
X1920500Y3082600D01*
X1922600Y3086900D01*
X1922600Y3093299D01*
X1920500Y3097600D01*
X1916199Y3101900D01*
X1909799Y3104099D01*
X1905500Y3104099D01*
X1898999Y3101900D01*
X1894700Y3097600D01*
X1892600Y3093299D01*
X1892600Y3086900D01*
X1894700Y3082600D01*
X1898999Y3078299D01*
X2962700Y3450000D02*
G01*
X2917600Y3450000D01*
X2962700Y3450000D02*
G01*
X2962700Y3430700D01*
X2960500Y3424200D01*
X2958400Y3422100D01*
X2954099Y3419899D01*
X2949799Y3419899D01*
X2945500Y3422100D01*
X2943299Y3424200D01*
X2941199Y3430700D01*
X2941199Y3450000D01*
X2941199Y3435000D02*
G01*
X2917600Y3419899D01*
X2962700Y3405799D02*
G01*
X2960500Y3403600D01*
X2962700Y3401500D01*
X2964799Y3403600D01*
X2962700Y3405799D01*
X2947600Y3403600D02*
G01*
X2917600Y3403600D01*
X2947600Y3361500D02*
G01*
X2913299Y3361500D01*
X2906800Y3363699D01*
X2904700Y3365799D01*
X2902500Y3370100D01*
X2902500Y3376599D01*
X2904700Y3380900D01*
X2941199Y3361500D02*
G01*
X2945500Y3365799D01*
X2947600Y3370100D01*
X2947600Y3376599D01*
X2945500Y3380900D01*
X2941199Y3385100D01*
X2934799Y3387300D01*
X2930500Y3387300D01*
X2923999Y3385100D01*
X2919700Y3380900D01*
X2917600Y3376599D01*
X2917600Y3370100D01*
X2919700Y3365799D01*
X2923999Y3361500D01*
X2962700Y3347399D02*
G01*
X2917600Y3347399D01*
X2939099Y3347399D02*
G01*
X2945500Y3340900D01*
X2947600Y3336599D01*
X2947600Y3330200D01*
X2945500Y3325900D01*
X2939099Y3323699D01*
X2917600Y3323699D01*
X2962700Y3303099D02*
G01*
X2926199Y3303099D01*
X2919700Y3300999D01*
X2917600Y3296700D01*
X2917600Y3292399D01*
X2947600Y3309600D02*
G01*
X2947600Y3294499D01*
X2962700Y3245100D02*
G01*
X2917600Y3245100D01*
X2962700Y3245100D02*
G01*
X2962700Y3225799D01*
X2960500Y3219400D01*
X2958400Y3217199D01*
X2954099Y3215100D01*
X2949799Y3215100D01*
X2945500Y3217199D01*
X2943299Y3219400D01*
X2941199Y3225799D01*
X2941199Y3245100D02*
G01*
X2941199Y3225799D01*
X2939099Y3219400D01*
X2936899Y3217199D01*
X2932600Y3215100D01*
X2926199Y3215100D01*
X2921899Y3217199D01*
X2919700Y3219400D01*
X2917600Y3225799D01*
X2917600Y3245100D01*
X2947600Y3175100D02*
G01*
X2917600Y3175100D01*
X2941199Y3175100D02*
G01*
X2945500Y3179400D01*
X2947600Y3183699D01*
X2947600Y3190200D01*
X2945500Y3194499D01*
X2941199Y3198699D01*
X2934799Y3200900D01*
X2930500Y3200900D01*
X2923999Y3198699D01*
X2919700Y3194499D01*
X2917600Y3190200D01*
X2917600Y3183699D01*
X2919700Y3179400D01*
X2923999Y3175100D01*
X2941199Y3135200D02*
G01*
X2945500Y3139499D01*
X2947600Y3143800D01*
X2947600Y3150200D01*
X2945500Y3154499D01*
X2941199Y3158800D01*
X2934799Y3160999D01*
X2930500Y3160999D01*
X2923999Y3158800D01*
X2919700Y3154499D01*
X2917600Y3150200D01*
X2917600Y3143800D01*
X2919700Y3139499D01*
X2923999Y3135200D01*
X2962700Y3120999D02*
G01*
X2917600Y3120999D01*
X2947600Y3099499D02*
G01*
X2926199Y3120999D01*
X2934799Y3112399D02*
G01*
X2917600Y3097399D01*
X1947299Y1950000D02*
G01*
X1992399Y1950000D01*
X1992399Y1950000D02*
G01*
X1992399Y1975799D01*
X1975200Y1989899D02*
G01*
X1975200Y2015700D01*
X1970900Y2015700D01*
X1966700Y2013600D01*
X1964499Y2011399D01*
X1962399Y2007100D01*
X1962399Y2000700D01*
X1964499Y1996399D01*
X1968800Y1992100D01*
X1975200Y1989899D01*
X1979499Y1989899D01*
X1986000Y1992100D01*
X1990299Y1996399D01*
X1992399Y2000700D01*
X1992399Y2007100D01*
X1990299Y2011399D01*
X1986000Y2015700D01*
X1947299Y2047100D02*
G01*
X1947299Y2042800D01*
X1949499Y2038499D01*
X1955900Y2036300D01*
X1992399Y2036300D01*
X1962399Y2029899D02*
G01*
X1962399Y2044899D01*
X1947299Y2067699D02*
G01*
X1983800Y2067699D01*
X1990299Y2069800D01*
X1992399Y2074099D01*
X1992399Y2078400D01*
X1962399Y2061199D02*
G01*
X1962399Y2076300D01*
X1947299Y2125700D02*
G01*
X1992399Y2125700D01*
X1947299Y2125700D02*
G01*
X1947299Y2153600D01*
X1968800Y2125700D02*
G01*
X1968800Y2142800D01*
X1962399Y2167800D02*
G01*
X1992399Y2167800D01*
X1975200Y2167800D02*
G01*
X1968800Y2169899D01*
X1964499Y2174200D01*
X1962399Y2178499D01*
X1962399Y2184899D01*
X1962399Y2209800D02*
G01*
X1964499Y2205500D01*
X1968800Y2201300D01*
X1975200Y2199099D01*
X1979499Y2199099D01*
X1986000Y2201300D01*
X1990299Y2205500D01*
X1992399Y2209800D01*
X1992399Y2216300D01*
X1990299Y2220599D01*
X1986000Y2224899D01*
X1979499Y2226999D01*
X1975200Y2226999D01*
X1968800Y2224899D01*
X1964499Y2220599D01*
X1962399Y2216300D01*
X1962399Y2209800D01*
X1962399Y2241199D02*
G01*
X1992399Y2241199D01*
X1970900Y2241199D02*
G01*
X1964499Y2247600D01*
X1962399Y2251900D01*
X1962399Y2258400D01*
X1964499Y2262700D01*
X1970900Y2264800D01*
X1992399Y2264800D01*
X1947299Y2285399D02*
G01*
X1983800Y2285399D01*
X1990299Y2287600D01*
X1992399Y2291900D01*
X1992399Y2296199D01*
X1962399Y2279000D02*
G01*
X1962399Y2294000D01*
D31*
X1787500Y1930000D02*
G01*
X1851300Y1930000D01*
X1787500Y1930000D02*
G01*
X1787500Y1951300D01*
X1790500Y1960399D01*
X1796599Y1966500D01*
X1802700Y1969499D01*
X1811800Y1972600D01*
X1826999Y1972600D01*
X1836099Y1969499D01*
X1842200Y1966500D01*
X1848299Y1960399D01*
X1851300Y1951300D01*
X1851300Y1930000D01*
X1787500Y1992699D02*
G01*
X1851300Y1992699D01*
X1787500Y1992699D02*
G01*
X1787500Y2020100D01*
X1790500Y2029200D01*
X1793500Y2032199D01*
X1799600Y2035300D01*
X1805699Y2035300D01*
X1811800Y2032199D01*
X1814799Y2029200D01*
X1817899Y2020100D01*
X1817899Y1992699D01*
X1817899Y2014000D02*
G01*
X1851300Y2035300D01*
X1787500Y2055300D02*
G01*
X1851300Y2079699D01*
X1787500Y2104000D02*
G01*
X1851300Y2079699D01*
X1787500Y2139299D02*
G01*
X1790500Y2130200D01*
X1796599Y2127100D01*
X1802700Y2127100D01*
X1808800Y2130200D01*
X1811800Y2136300D01*
X1814799Y2148400D01*
X1817899Y2157600D01*
X1823999Y2163600D01*
X1830100Y2166700D01*
X1839200Y2166700D01*
X1845299Y2163600D01*
X1848299Y2160599D01*
X1851300Y2151500D01*
X1851300Y2139299D01*
X1848299Y2130200D01*
X1845299Y2127100D01*
X1839200Y2124099D01*
X1830100Y2124099D01*
X1823999Y2127100D01*
X1817899Y2133200D01*
X1814799Y2142300D01*
X1811800Y2154499D01*
X1808800Y2160599D01*
X1802700Y2163600D01*
X1796599Y2163600D01*
X1790500Y2160599D01*
X1787500Y2151500D01*
X1787500Y2139299D01*
X1787500Y2201999D02*
G01*
X1790500Y2192800D01*
X1796599Y2189800D01*
X1802700Y2189800D01*
X1808800Y2192800D01*
X1811800Y2198899D01*
X1814799Y2211100D01*
X1817899Y2220200D01*
X1823999Y2226300D01*
X1830100Y2229400D01*
X1839200Y2229400D01*
X1845299Y2226300D01*
X1848299Y2223299D01*
X1851300Y2214099D01*
X1851300Y2201999D01*
X1848299Y2192800D01*
X1845299Y2189800D01*
X1839200Y2186799D01*
X1830100Y2186799D01*
X1823999Y2189800D01*
X1817899Y2195900D01*
X1814799Y2205000D01*
X1811800Y2217199D01*
X1808800Y2223299D01*
X1802700Y2226300D01*
X1796599Y2226300D01*
X1790500Y2223299D01*
X1787500Y2214099D01*
X1787500Y2201999D01*
X1787500Y2291999D02*
G01*
X1851300Y2261599D01*
X1787500Y2249400D02*
G01*
X1787500Y2291999D01*
X1799600Y2312100D02*
G01*
X1796599Y2318200D01*
X1787500Y2327300D01*
X1851300Y2327300D01*
D30*
X1683999Y1961799D02*
G01*
X1680399Y1960100D01*
X1676800Y1956500D01*
X1675000Y1952899D01*
X1675000Y1945700D01*
X1676800Y1942199D01*
X1680399Y1938600D01*
X1683999Y1936799D01*
X1689300Y1935000D01*
X1698299Y1935000D01*
X1703699Y1936799D01*
X1707200Y1938600D01*
X1710799Y1942199D01*
X1712600Y1945700D01*
X1712600Y1952899D01*
X1710799Y1956500D01*
X1707200Y1960100D01*
X1703699Y1961799D01*
X1698299Y1961799D01*
X1698299Y1952899D02*
G01*
X1698299Y1961799D01*
X1675000Y1973699D02*
G01*
X1712600Y1973699D01*
X1675000Y1973699D02*
G01*
X1712600Y1998699D01*
X1675000Y1998699D02*
G01*
X1712600Y1998699D01*
X1675000Y2010500D02*
G01*
X1712600Y2010500D01*
X1675000Y2010500D02*
G01*
X1675000Y2023000D01*
X1676800Y2028400D01*
X1680399Y2031999D01*
X1683999Y2033800D01*
X1689300Y2035599D01*
X1698299Y2035599D01*
X1703699Y2033800D01*
X1707200Y2031999D01*
X1710799Y2028400D01*
X1712600Y2023000D01*
X1712600Y2010500D01*
X1675000Y2055000D02*
G01*
X1712600Y2069299D01*
X1675000Y2083600D02*
G01*
X1712600Y2069299D01*
X1675000Y2095399D02*
G01*
X1712600Y2095399D01*
X1675000Y2095399D02*
G01*
X1712600Y2109800D01*
X1675000Y2124099D02*
G01*
X1712600Y2109800D01*
X1675000Y2124099D02*
G01*
X1712600Y2124099D01*
X1675000Y2165000D02*
G01*
X1712600Y2165000D01*
X1675000Y2176799D02*
G01*
X1712600Y2176799D01*
X1675000Y2176799D02*
G01*
X1712600Y2201900D01*
X1675000Y2201900D02*
G01*
X1712600Y2201900D01*
X1682200Y2213699D02*
G01*
X1680399Y2217300D01*
X1675000Y2222600D01*
X1712600Y2222600D01*
X1674998Y2265000D02*
G01*
X1712599Y2265000D01*
X1674998Y2276799D02*
G01*
X1712599Y2276799D01*
X1674998Y2276799D02*
G01*
X1712599Y2301900D01*
X1674998Y2301900D02*
G01*
X1712599Y2301900D01*
X1683999Y2315500D02*
G01*
X1682199Y2315500D01*
X1678599Y2317300D01*
X1676799Y2319000D01*
X1674998Y2322600D01*
X1674998Y2329800D01*
X1676799Y2333400D01*
X1678599Y2335200D01*
X1682199Y2336900D01*
X1685798Y2336900D01*
X1689299Y2335200D01*
X1694699Y2331599D01*
X1712599Y2313699D01*
X1712599Y2338699D01*
D31*
X2812500Y1050000D02*
G01*
X2876300Y1050000D01*
X2812500Y1050000D02*
G01*
X2812500Y1071300D01*
X2815500Y1080399D01*
X2821599Y1086500D01*
X2827700Y1089499D01*
X2836800Y1092600D01*
X2851999Y1092600D01*
X2861099Y1089499D01*
X2867200Y1086500D01*
X2873299Y1080399D01*
X2876300Y1071300D01*
X2876300Y1050000D01*
X2812500Y1112699D02*
G01*
X2876300Y1112699D01*
X2812500Y1112699D02*
G01*
X2812500Y1140100D01*
X2815500Y1149200D01*
X2818500Y1152199D01*
X2824600Y1155300D01*
X2830699Y1155300D01*
X2836800Y1152199D01*
X2839799Y1149200D01*
X2842899Y1140100D01*
X2842899Y1112699D01*
X2842899Y1134000D02*
G01*
X2876300Y1155300D01*
X2812500Y1175300D02*
G01*
X2876300Y1199699D01*
X2812500Y1224000D02*
G01*
X2876300Y1199699D01*
X2812500Y1259299D02*
G01*
X2815500Y1250199D01*
X2821599Y1247100D01*
X2827700Y1247100D01*
X2833800Y1250199D01*
X2836800Y1256300D01*
X2839799Y1268400D01*
X2842899Y1277600D01*
X2848999Y1283600D01*
X2855100Y1286700D01*
X2864200Y1286700D01*
X2870299Y1283600D01*
X2873299Y1280599D01*
X2876300Y1271500D01*
X2876300Y1259299D01*
X2873299Y1250199D01*
X2870299Y1247100D01*
X2864200Y1244099D01*
X2855100Y1244099D01*
X2848999Y1247100D01*
X2842899Y1253200D01*
X2839799Y1262300D01*
X2836800Y1274499D01*
X2833800Y1280599D01*
X2827700Y1283600D01*
X2821599Y1283600D01*
X2815500Y1280599D01*
X2812500Y1271500D01*
X2812500Y1259299D01*
X2812500Y1321999D02*
G01*
X2815500Y1312800D01*
X2821599Y1309800D01*
X2827700Y1309800D01*
X2833800Y1312800D01*
X2836800Y1318899D01*
X2839799Y1331100D01*
X2842899Y1340199D01*
X2848999Y1346300D01*
X2855100Y1349400D01*
X2864200Y1349400D01*
X2870299Y1346300D01*
X2873299Y1343299D01*
X2876300Y1334099D01*
X2876300Y1321999D01*
X2873299Y1312800D01*
X2870299Y1309800D01*
X2864200Y1306799D01*
X2855100Y1306799D01*
X2848999Y1309800D01*
X2842899Y1315900D01*
X2839799Y1325000D01*
X2836800Y1337199D01*
X2833800Y1343299D01*
X2827700Y1346300D01*
X2821599Y1346300D01*
X2815500Y1343299D01*
X2812500Y1334099D01*
X2812500Y1321999D01*
X2812500Y1411999D02*
G01*
X2876300Y1381599D01*
X2812500Y1369400D02*
G01*
X2812500Y1411999D01*
X2824600Y1432100D02*
G01*
X2821599Y1438200D01*
X2812500Y1447300D01*
X2876300Y1447300D01*
D30*
X2708999Y1081799D02*
G01*
X2705399Y1080100D01*
X2701800Y1076500D01*
X2700000Y1072899D01*
X2700000Y1065700D01*
X2701800Y1062199D01*
X2705399Y1058600D01*
X2708999Y1056799D01*
X2714300Y1055000D01*
X2723299Y1055000D01*
X2728699Y1056799D01*
X2732200Y1058600D01*
X2735799Y1062199D01*
X2737600Y1065700D01*
X2737600Y1072899D01*
X2735799Y1076500D01*
X2732200Y1080100D01*
X2728699Y1081799D01*
X2723299Y1081799D01*
X2723299Y1072899D02*
G01*
X2723299Y1081799D01*
X2700000Y1093699D02*
G01*
X2737600Y1093699D01*
X2700000Y1093699D02*
G01*
X2737600Y1118699D01*
X2700000Y1118699D02*
G01*
X2737600Y1118699D01*
X2700000Y1130500D02*
G01*
X2737600Y1130500D01*
X2700000Y1130500D02*
G01*
X2700000Y1143000D01*
X2701800Y1148400D01*
X2705399Y1151999D01*
X2708999Y1153800D01*
X2714300Y1155599D01*
X2723299Y1155599D01*
X2728699Y1153800D01*
X2732200Y1151999D01*
X2735799Y1148400D01*
X2737600Y1143000D01*
X2737600Y1130500D01*
X2700000Y1175000D02*
G01*
X2737600Y1189299D01*
X2700000Y1203600D02*
G01*
X2737600Y1189299D01*
X2700000Y1215399D02*
G01*
X2737600Y1215399D01*
X2700000Y1215399D02*
G01*
X2737600Y1229800D01*
X2700000Y1244099D02*
G01*
X2737600Y1229800D01*
X2700000Y1244099D02*
G01*
X2737600Y1244099D01*
X2700000Y1285000D02*
G01*
X2737600Y1285000D01*
X2700000Y1296799D02*
G01*
X2737600Y1296799D01*
X2700000Y1296799D02*
G01*
X2737600Y1321900D01*
X2700000Y1321900D02*
G01*
X2737600Y1321900D01*
X2707200Y1333699D02*
G01*
X2705399Y1337300D01*
X2700000Y1342600D01*
X2737600Y1342600D01*
X2699998Y1385000D02*
G01*
X2737599Y1385000D01*
X2699998Y1396799D02*
G01*
X2737599Y1396799D01*
X2699998Y1396799D02*
G01*
X2737599Y1421900D01*
X2699998Y1421900D02*
G01*
X2737599Y1421900D01*
X2708999Y1435500D02*
G01*
X2707199Y1435500D01*
X2703599Y1437300D01*
X2701799Y1439000D01*
X2699998Y1442600D01*
X2699998Y1449800D01*
X2701799Y1453400D01*
X2703599Y1455199D01*
X2707199Y1456900D01*
X2710798Y1456900D01*
X2714299Y1455199D01*
X2719699Y1451599D01*
X2737599Y1433699D01*
X2737599Y1458699D01*
D31*
X3122500Y3470000D02*
G01*
X3058699Y3470000D01*
X3122500Y3470000D02*
G01*
X3122500Y3448699D01*
X3119499Y3439600D01*
X3113400Y3433499D01*
X3107299Y3430500D01*
X3098199Y3427399D01*
X3083000Y3427399D01*
X3073900Y3430500D01*
X3067799Y3433499D01*
X3061700Y3439600D01*
X3058699Y3448699D01*
X3058699Y3470000D01*
X3122500Y3407300D02*
G01*
X3058699Y3407300D01*
X3122500Y3407300D02*
G01*
X3122500Y3379899D01*
X3119499Y3370799D01*
X3116499Y3367800D01*
X3110399Y3364699D01*
X3104300Y3364699D01*
X3098199Y3367800D01*
X3095200Y3370799D01*
X3092100Y3379899D01*
X3092100Y3407300D01*
X3092100Y3385999D02*
G01*
X3058699Y3364699D01*
X3122500Y3344699D02*
G01*
X3058699Y3320300D01*
X3122500Y3295999D02*
G01*
X3058699Y3320300D01*
X3122500Y3260700D02*
G01*
X3119499Y3269800D01*
X3113400Y3272899D01*
X3107299Y3272899D01*
X3101199Y3269800D01*
X3098199Y3263699D01*
X3095200Y3251599D01*
X3092100Y3242399D01*
X3086000Y3236399D01*
X3079899Y3233299D01*
X3070799Y3233299D01*
X3064700Y3236399D01*
X3061700Y3239400D01*
X3058699Y3248499D01*
X3058699Y3260700D01*
X3061700Y3269800D01*
X3064700Y3272899D01*
X3070799Y3275900D01*
X3079899Y3275900D01*
X3086000Y3272899D01*
X3092100Y3266799D01*
X3095200Y3257700D01*
X3098199Y3245500D01*
X3101199Y3239400D01*
X3107299Y3236399D01*
X3113400Y3236399D01*
X3119499Y3239400D01*
X3122500Y3248499D01*
X3122500Y3260700D01*
X3122500Y3198000D02*
G01*
X3119499Y3207199D01*
X3113400Y3210200D01*
X3107299Y3210200D01*
X3101199Y3207199D01*
X3098199Y3201100D01*
X3095200Y3188899D01*
X3092100Y3179800D01*
X3086000Y3173699D01*
X3079899Y3170599D01*
X3070799Y3170599D01*
X3064700Y3173699D01*
X3061700Y3176700D01*
X3058699Y3185900D01*
X3058699Y3198000D01*
X3061700Y3207199D01*
X3064700Y3210200D01*
X3070799Y3213200D01*
X3079899Y3213200D01*
X3086000Y3210200D01*
X3092100Y3204099D01*
X3095200Y3195000D01*
X3098199Y3182800D01*
X3101199Y3176700D01*
X3107299Y3173699D01*
X3113400Y3173699D01*
X3119499Y3176700D01*
X3122500Y3185900D01*
X3122500Y3198000D01*
X3122500Y3108000D02*
G01*
X3058699Y3138400D01*
X3122500Y3150599D02*
G01*
X3122500Y3108000D01*
X3110399Y3087899D02*
G01*
X3113400Y3081799D01*
X3122500Y3072700D01*
X3058699Y3072700D01*
D30*
X3226000Y3438200D02*
G01*
X3229600Y3439899D01*
X3233199Y3443499D01*
X3235000Y3447100D01*
X3235000Y3454299D01*
X3233199Y3457800D01*
X3229600Y3461399D01*
X3226000Y3463200D01*
X3220699Y3465000D01*
X3211700Y3465000D01*
X3206300Y3463200D01*
X3202799Y3461399D01*
X3199200Y3457800D01*
X3197399Y3454299D01*
X3197399Y3447100D01*
X3199200Y3443499D01*
X3202799Y3439899D01*
X3206300Y3438200D01*
X3211700Y3438200D01*
X3211700Y3447100D02*
G01*
X3211700Y3438200D01*
X3235000Y3426300D02*
G01*
X3197399Y3426300D01*
X3235000Y3426300D02*
G01*
X3197399Y3401300D01*
X3235000Y3401300D02*
G01*
X3197399Y3401300D01*
X3235000Y3389499D02*
G01*
X3197399Y3389499D01*
X3235000Y3389499D02*
G01*
X3235000Y3376999D01*
X3233199Y3371599D01*
X3229600Y3368000D01*
X3226000Y3366199D01*
X3220699Y3364400D01*
X3211700Y3364400D01*
X3206300Y3366199D01*
X3202799Y3368000D01*
X3199200Y3371599D01*
X3197399Y3376999D01*
X3197399Y3389499D01*
X3235000Y3345000D02*
G01*
X3197399Y3330700D01*
X3235000Y3316399D02*
G01*
X3197399Y3330700D01*
X3235000Y3304600D02*
G01*
X3197399Y3304600D01*
X3235000Y3304600D02*
G01*
X3197399Y3290200D01*
X3235000Y3275900D02*
G01*
X3197399Y3290200D01*
X3235000Y3275900D02*
G01*
X3197399Y3275900D01*
X3235000Y3235000D02*
G01*
X3197399Y3235000D01*
X3235000Y3223200D02*
G01*
X3197399Y3223200D01*
X3235000Y3223200D02*
G01*
X3197399Y3198099D01*
X3235000Y3198099D02*
G01*
X3197399Y3198099D01*
X3227799Y3186300D02*
G01*
X3229600Y3182700D01*
X3235000Y3177399D01*
X3197399Y3177399D01*
X3235001Y3135000D02*
G01*
X3197401Y3135000D01*
X3235001Y3123200D02*
G01*
X3197401Y3123200D01*
X3235001Y3123200D02*
G01*
X3197401Y3098099D01*
X3235001Y3098099D02*
G01*
X3197401Y3098099D01*
X3226000Y3084499D02*
G01*
X3227800Y3084499D01*
X3231400Y3082700D01*
X3233200Y3080999D01*
X3235001Y3077399D01*
X3235001Y3070200D01*
X3233200Y3066599D01*
X3231400Y3064800D01*
X3227800Y3063099D01*
X3224201Y3063099D01*
X3220700Y3064800D01*
X3215300Y3068400D01*
X3197401Y3086300D01*
X3197401Y3061300D01*
D31*
X2102500Y3470000D02*
G01*
X2038699Y3470000D01*
X2102500Y3470000D02*
G01*
X2102500Y3448699D01*
X2099499Y3439600D01*
X2093400Y3433499D01*
X2087299Y3430500D01*
X2078199Y3427399D01*
X2063000Y3427399D01*
X2053900Y3430500D01*
X2047799Y3433499D01*
X2041700Y3439600D01*
X2038699Y3448699D01*
X2038699Y3470000D01*
X2102500Y3407300D02*
G01*
X2038699Y3407300D01*
X2102500Y3407300D02*
G01*
X2102500Y3379899D01*
X2099499Y3370799D01*
X2096499Y3367800D01*
X2090399Y3364699D01*
X2084300Y3364699D01*
X2078199Y3367800D01*
X2075200Y3370799D01*
X2072100Y3379899D01*
X2072100Y3407300D01*
X2072100Y3385999D02*
G01*
X2038699Y3364699D01*
X2102500Y3344699D02*
G01*
X2038699Y3320300D01*
X2102500Y3295999D02*
G01*
X2038699Y3320300D01*
X2102500Y3260700D02*
G01*
X2099499Y3269800D01*
X2093400Y3272899D01*
X2087299Y3272899D01*
X2081199Y3269800D01*
X2078199Y3263699D01*
X2075200Y3251599D01*
X2072100Y3242399D01*
X2066000Y3236399D01*
X2059899Y3233299D01*
X2050799Y3233299D01*
X2044700Y3236399D01*
X2041700Y3239400D01*
X2038699Y3248499D01*
X2038699Y3260700D01*
X2041700Y3269800D01*
X2044700Y3272899D01*
X2050799Y3275900D01*
X2059899Y3275900D01*
X2066000Y3272899D01*
X2072100Y3266799D01*
X2075200Y3257700D01*
X2078199Y3245500D01*
X2081199Y3239400D01*
X2087299Y3236399D01*
X2093400Y3236399D01*
X2099499Y3239400D01*
X2102500Y3248499D01*
X2102500Y3260700D01*
X2102500Y3198000D02*
G01*
X2099499Y3207199D01*
X2093400Y3210200D01*
X2087299Y3210200D01*
X2081199Y3207199D01*
X2078199Y3201100D01*
X2075200Y3188899D01*
X2072100Y3179800D01*
X2066000Y3173699D01*
X2059899Y3170599D01*
X2050799Y3170599D01*
X2044700Y3173699D01*
X2041700Y3176700D01*
X2038699Y3185900D01*
X2038699Y3198000D01*
X2041700Y3207199D01*
X2044700Y3210200D01*
X2050799Y3213200D01*
X2059899Y3213200D01*
X2066000Y3210200D01*
X2072100Y3204099D01*
X2075200Y3195000D01*
X2078199Y3182800D01*
X2081199Y3176700D01*
X2087299Y3173699D01*
X2093400Y3173699D01*
X2099499Y3176700D01*
X2102500Y3185900D01*
X2102500Y3198000D01*
X2102500Y3108000D02*
G01*
X2038699Y3138400D01*
X2102500Y3150599D02*
G01*
X2102500Y3108000D01*
X2090399Y3087899D02*
G01*
X2093400Y3081799D01*
X2102500Y3072700D01*
X2038699Y3072700D01*
D30*
X2206000Y3438200D02*
G01*
X2209600Y3439899D01*
X2213199Y3443499D01*
X2215000Y3447100D01*
X2215000Y3454299D01*
X2213199Y3457800D01*
X2209600Y3461399D01*
X2206000Y3463200D01*
X2200699Y3465000D01*
X2191700Y3465000D01*
X2186300Y3463200D01*
X2182799Y3461399D01*
X2179200Y3457800D01*
X2177399Y3454299D01*
X2177399Y3447100D01*
X2179200Y3443499D01*
X2182799Y3439899D01*
X2186300Y3438200D01*
X2191700Y3438200D01*
X2191700Y3447100D02*
G01*
X2191700Y3438200D01*
X2215000Y3426300D02*
G01*
X2177399Y3426300D01*
X2215000Y3426300D02*
G01*
X2177399Y3401300D01*
X2215000Y3401300D02*
G01*
X2177399Y3401300D01*
X2215000Y3389499D02*
G01*
X2177399Y3389499D01*
X2215000Y3389499D02*
G01*
X2215000Y3376999D01*
X2213199Y3371599D01*
X2209600Y3368000D01*
X2206000Y3366199D01*
X2200699Y3364400D01*
X2191700Y3364400D01*
X2186300Y3366199D01*
X2182799Y3368000D01*
X2179200Y3371599D01*
X2177399Y3376999D01*
X2177399Y3389499D01*
X2215000Y3345000D02*
G01*
X2177399Y3330700D01*
X2215000Y3316399D02*
G01*
X2177399Y3330700D01*
X2215000Y3304600D02*
G01*
X2177399Y3304600D01*
X2215000Y3304600D02*
G01*
X2177399Y3290200D01*
X2215000Y3275900D02*
G01*
X2177399Y3290200D01*
X2215000Y3275900D02*
G01*
X2177399Y3275900D01*
X2215000Y3235000D02*
G01*
X2177399Y3235000D01*
X2215000Y3223200D02*
G01*
X2177399Y3223200D01*
X2215000Y3223200D02*
G01*
X2177399Y3198099D01*
X2215000Y3198099D02*
G01*
X2177399Y3198099D01*
X2207799Y3186300D02*
G01*
X2209600Y3182700D01*
X2215000Y3177399D01*
X2177399Y3177399D01*
X2215001Y3135000D02*
G01*
X2177401Y3135000D01*
X2215001Y3123200D02*
G01*
X2177401Y3123200D01*
X2215001Y3123200D02*
G01*
X2177401Y3098099D01*
X2215001Y3098099D02*
G01*
X2177401Y3098099D01*
X2206000Y3084499D02*
G01*
X2207800Y3084499D01*
X2211400Y3082700D01*
X2213200Y3080999D01*
X2215001Y3077399D01*
X2215001Y3070200D01*
X2213200Y3066599D01*
X2211400Y3064800D01*
X2207800Y3063099D01*
X2204201Y3063099D01*
X2200700Y3064800D01*
X2195300Y3068400D01*
X2177401Y3086300D01*
X2177401Y3061300D01*
D31*
X1082500Y3470000D02*
G01*
X1018699Y3470000D01*
X1082500Y3470000D02*
G01*
X1082500Y3448699D01*
X1079499Y3439600D01*
X1073400Y3433499D01*
X1067299Y3430500D01*
X1058199Y3427399D01*
X1043000Y3427399D01*
X1033900Y3430500D01*
X1027799Y3433499D01*
X1021700Y3439600D01*
X1018699Y3448699D01*
X1018699Y3470000D01*
X1082500Y3407300D02*
G01*
X1018699Y3407300D01*
X1082500Y3407300D02*
G01*
X1082500Y3379899D01*
X1079499Y3370799D01*
X1076499Y3367800D01*
X1070399Y3364699D01*
X1064300Y3364699D01*
X1058199Y3367800D01*
X1055200Y3370799D01*
X1052100Y3379899D01*
X1052100Y3407300D01*
X1052100Y3385999D02*
G01*
X1018699Y3364699D01*
X1082500Y3344699D02*
G01*
X1018699Y3320300D01*
X1082500Y3295999D02*
G01*
X1018699Y3320300D01*
X1082500Y3260700D02*
G01*
X1079499Y3269800D01*
X1073400Y3272899D01*
X1067299Y3272899D01*
X1061199Y3269800D01*
X1058199Y3263699D01*
X1055200Y3251599D01*
X1052100Y3242399D01*
X1046000Y3236399D01*
X1039899Y3233299D01*
X1030799Y3233299D01*
X1024700Y3236399D01*
X1021700Y3239400D01*
X1018699Y3248499D01*
X1018699Y3260700D01*
X1021700Y3269800D01*
X1024700Y3272899D01*
X1030799Y3275900D01*
X1039899Y3275900D01*
X1046000Y3272899D01*
X1052100Y3266799D01*
X1055200Y3257700D01*
X1058199Y3245500D01*
X1061199Y3239400D01*
X1067299Y3236399D01*
X1073400Y3236399D01*
X1079499Y3239400D01*
X1082500Y3248499D01*
X1082500Y3260700D01*
X1082500Y3198000D02*
G01*
X1079499Y3207199D01*
X1073400Y3210200D01*
X1067299Y3210200D01*
X1061199Y3207199D01*
X1058199Y3201100D01*
X1055200Y3188899D01*
X1052100Y3179800D01*
X1046000Y3173699D01*
X1039899Y3170599D01*
X1030799Y3170599D01*
X1024700Y3173699D01*
X1021700Y3176700D01*
X1018699Y3185900D01*
X1018699Y3198000D01*
X1021700Y3207199D01*
X1024700Y3210200D01*
X1030799Y3213200D01*
X1039899Y3213200D01*
X1046000Y3210200D01*
X1052100Y3204099D01*
X1055200Y3195000D01*
X1058199Y3182800D01*
X1061199Y3176700D01*
X1067299Y3173699D01*
X1073400Y3173699D01*
X1079499Y3176700D01*
X1082500Y3185900D01*
X1082500Y3198000D01*
X1082500Y3108000D02*
G01*
X1018699Y3138400D01*
X1082500Y3150599D02*
G01*
X1082500Y3108000D01*
X1070399Y3087899D02*
G01*
X1073400Y3081799D01*
X1082500Y3072700D01*
X1018699Y3072700D01*
D30*
X1186000Y3438200D02*
G01*
X1189600Y3439899D01*
X1193199Y3443499D01*
X1195000Y3447100D01*
X1195000Y3454299D01*
X1193199Y3457800D01*
X1189600Y3461399D01*
X1186000Y3463200D01*
X1180699Y3465000D01*
X1171700Y3465000D01*
X1166300Y3463200D01*
X1162799Y3461399D01*
X1159200Y3457800D01*
X1157399Y3454299D01*
X1157399Y3447100D01*
X1159200Y3443499D01*
X1162799Y3439899D01*
X1166300Y3438200D01*
X1171700Y3438200D01*
X1171700Y3447100D02*
G01*
X1171700Y3438200D01*
X1195000Y3426300D02*
G01*
X1157399Y3426300D01*
X1195000Y3426300D02*
G01*
X1157399Y3401300D01*
X1195000Y3401300D02*
G01*
X1157399Y3401300D01*
X1195000Y3389499D02*
G01*
X1157399Y3389499D01*
X1195000Y3389499D02*
G01*
X1195000Y3376999D01*
X1193199Y3371599D01*
X1189600Y3368000D01*
X1186000Y3366199D01*
X1180699Y3364400D01*
X1171700Y3364400D01*
X1166300Y3366199D01*
X1162799Y3368000D01*
X1159200Y3371599D01*
X1157399Y3376999D01*
X1157399Y3389499D01*
X1195000Y3345000D02*
G01*
X1157399Y3330700D01*
X1195000Y3316399D02*
G01*
X1157399Y3330700D01*
X1195000Y3304600D02*
G01*
X1157399Y3304600D01*
X1195000Y3304600D02*
G01*
X1157399Y3290200D01*
X1195000Y3275900D02*
G01*
X1157399Y3290200D01*
X1195000Y3275900D02*
G01*
X1157399Y3275900D01*
X1195000Y3235000D02*
G01*
X1157399Y3235000D01*
X1195000Y3223200D02*
G01*
X1157399Y3223200D01*
X1195000Y3223200D02*
G01*
X1157399Y3198099D01*
X1195000Y3198099D02*
G01*
X1157399Y3198099D01*
X1187799Y3186300D02*
G01*
X1189600Y3182700D01*
X1195000Y3177399D01*
X1157399Y3177399D01*
X1195001Y3135000D02*
G01*
X1157400Y3135000D01*
X1195001Y3123200D02*
G01*
X1157400Y3123200D01*
X1195001Y3123200D02*
G01*
X1157400Y3098099D01*
X1195001Y3098099D02*
G01*
X1157400Y3098099D01*
X1186000Y3084499D02*
G01*
X1187800Y3084499D01*
X1191400Y3082700D01*
X1193200Y3080999D01*
X1195001Y3077399D01*
X1195001Y3070200D01*
X1193200Y3066599D01*
X1191400Y3064800D01*
X1187800Y3063099D01*
X1184201Y3063099D01*
X1180700Y3064800D01*
X1175300Y3068400D01*
X1157400Y3086300D01*
X1157400Y3061300D01*
D32*
X1280000Y2389699D02*
G01*
X1280000Y2352100D01*
X1280000Y2389699D02*
G01*
X1296099Y2389699D01*
X1301499Y2387899D01*
X1303299Y2386100D01*
X1305100Y2382600D01*
X1305100Y2377199D01*
X1303299Y2373600D01*
X1301499Y2371799D01*
X1296099Y2370000D01*
X1280000Y2370000D01*
X1338299Y2377199D02*
G01*
X1338299Y2352100D01*
X1338299Y2371799D02*
G01*
X1334799Y2375399D01*
X1331199Y2377199D01*
X1325799Y2377199D01*
X1322200Y2375399D01*
X1318699Y2371799D01*
X1316899Y2366500D01*
X1316899Y2362899D01*
X1318699Y2357500D01*
X1322200Y2353899D01*
X1325799Y2352100D01*
X1331199Y2352100D01*
X1334799Y2353899D01*
X1338299Y2357500D01*
X1350200Y2377199D02*
G01*
X1350200Y2352100D01*
X1350200Y2370000D02*
G01*
X1355500Y2375399D01*
X1359099Y2377199D01*
X1364499Y2377199D01*
X1368000Y2375399D01*
X1369799Y2370000D01*
X1369799Y2352100D01*
X691796Y1345803D02*
G01*
X690096Y1349403D01*
X686496Y1352903D01*
X682897Y1354702D01*
X675697Y1354702D01*
X672196Y1352903D01*
X668596Y1349403D01*
X666796Y1345803D01*
X664997Y1340403D01*
X664997Y1331502D01*
X666796Y1326102D01*
X668596Y1322503D01*
X672196Y1318903D01*
X675697Y1317103D01*
X682897Y1317103D01*
X686496Y1318903D01*
X690096Y1322503D01*
X691796Y1326102D01*
X691796Y1331502D01*
X682897Y1331502D02*
G01*
X691796Y1331502D01*
X703697Y1354702D02*
G01*
X703697Y1317103D01*
X703697Y1354702D02*
G01*
X728697Y1317103D01*
X728697Y1354702D02*
G01*
X728697Y1317103D01*
X740496Y1354702D02*
G01*
X740496Y1317103D01*
X740496Y1354702D02*
G01*
X752996Y1354702D01*
X758397Y1352903D01*
X761997Y1349403D01*
X763797Y1345803D01*
X765596Y1340403D01*
X765596Y1331502D01*
X763797Y1326102D01*
X761997Y1322503D01*
X758397Y1318903D01*
X752996Y1317103D01*
X740496Y1317103D01*
X723395Y1441001D02*
G01*
X721594Y1444502D01*
X716194Y1446302D01*
X712595Y1446302D01*
X707295Y1444502D01*
X703694Y1439202D01*
X701895Y1430201D01*
X701895Y1421302D01*
X703694Y1414101D01*
X707295Y1410502D01*
X712595Y1408701D01*
X714395Y1408701D01*
X719795Y1410502D01*
X723395Y1414101D01*
X725195Y1419502D01*
X725195Y1421302D01*
X723395Y1426601D01*
X719795Y1430201D01*
X714395Y1432002D01*
X712595Y1432002D01*
X707295Y1430201D01*
X703694Y1426601D01*
X701895Y1421302D01*
X736994Y1446302D02*
G01*
X751295Y1408701D01*
X765595Y1446302D02*
G01*
X751295Y1408701D01*
X740497Y1505603D02*
G01*
X744098Y1502103D01*
X749498Y1500302D01*
X756697Y1500302D01*
X761998Y1502103D01*
X765598Y1505603D01*
X765598Y1509203D01*
X763797Y1512802D01*
X761998Y1514603D01*
X758397Y1516403D01*
X747698Y1520003D01*
X744098Y1521703D01*
X742298Y1523503D01*
X740497Y1527103D01*
X740497Y1532503D01*
X744098Y1536102D01*
X749498Y1537903D01*
X756697Y1537903D01*
X761998Y1536102D01*
X765598Y1532503D01*
X525900Y1230000D02*
G01*
X523800Y1234299D01*
X517299Y1240700D01*
X562399Y1240700D01*
X528100Y1257100D02*
G01*
X525900Y1257100D01*
X521599Y1259200D01*
X519499Y1261399D01*
X517299Y1265599D01*
X517299Y1274200D01*
X519499Y1278499D01*
X521599Y1280700D01*
X525900Y1282800D01*
X530200Y1282800D01*
X534499Y1280700D01*
X540900Y1276399D01*
X562399Y1254899D01*
X562399Y1285000D01*
X517299Y1299099D02*
G01*
X562399Y1316300D01*
X517299Y1333499D02*
G01*
X562399Y1316300D01*
X528100Y1447199D02*
G01*
X523800Y1445100D01*
X519499Y1440799D01*
X517299Y1436500D01*
X517299Y1427899D01*
X519499Y1423600D01*
X523800Y1419299D01*
X528100Y1417100D01*
X534499Y1415000D01*
X545200Y1415000D01*
X551700Y1417100D01*
X556000Y1419299D01*
X560299Y1423600D01*
X562399Y1427899D01*
X562399Y1436500D01*
X560299Y1440799D01*
X556000Y1445100D01*
X551700Y1447199D01*
X545200Y1447199D01*
X545200Y1436500D02*
G01*
X545200Y1447199D01*
X517299Y1461399D02*
G01*
X562399Y1461399D01*
X517299Y1461399D02*
G01*
X562399Y1491399D01*
X517299Y1491399D02*
G01*
X562399Y1491399D01*
X517299Y1505599D02*
G01*
X562399Y1505599D01*
X517299Y1505599D02*
G01*
X517299Y1520700D01*
X519499Y1527100D01*
X523800Y1531399D01*
X528100Y1533499D01*
X534499Y1535700D01*
X545200Y1535700D01*
X551700Y1533499D01*
X556000Y1531399D01*
X560299Y1527100D01*
X562399Y1520700D01*
X562399Y1505599D01*
X266499Y599699D02*
G01*
X248600Y599699D01*
X246799Y583600D01*
X248600Y585399D01*
X253899Y587199D01*
X259299Y587199D01*
X264700Y585399D01*
X268299Y581799D01*
X270100Y576500D01*
X270100Y572899D01*
X268299Y567500D01*
X264700Y563899D01*
X259299Y562100D01*
X253899Y562100D01*
X248600Y563899D01*
X246799Y565700D01*
X245000Y569299D01*
X281899Y599699D02*
G01*
X296199Y562100D01*
X310500Y599699D02*
G01*
X296199Y562100D01*
X1071800Y590799D02*
G01*
X1070100Y594400D01*
X1066499Y597899D01*
X1062899Y599699D01*
X1055699Y599699D01*
X1052200Y597899D01*
X1048599Y594400D01*
X1046800Y590799D01*
X1045000Y585399D01*
X1045000Y576500D01*
X1046800Y571100D01*
X1048599Y567500D01*
X1052200Y563899D01*
X1055699Y562100D01*
X1062899Y562100D01*
X1066499Y563899D01*
X1070100Y567500D01*
X1071800Y571100D01*
X1071800Y576500D01*
X1062899Y576500D02*
G01*
X1071800Y576500D01*
X1083699Y599699D02*
G01*
X1083699Y562100D01*
X1083699Y599699D02*
G01*
X1108699Y562100D01*
X1108699Y599699D02*
G01*
X1108699Y562100D01*
X1120500Y599699D02*
G01*
X1120500Y562100D01*
X1120500Y599699D02*
G01*
X1133000Y599699D01*
X1138400Y597899D01*
X1141999Y594400D01*
X1143800Y590799D01*
X1145600Y585399D01*
X1145600Y576500D01*
X1143800Y571100D01*
X1141999Y567500D01*
X1138400Y563899D01*
X1133000Y562100D01*
X1120500Y562100D01*
X410000Y2772600D02*
G01*
X413599Y2774400D01*
X418900Y2779699D01*
X418900Y2742100D01*
X432500Y2770799D02*
G01*
X432500Y2772600D01*
X434300Y2776100D01*
X436099Y2777899D01*
X439700Y2779699D01*
X446899Y2779699D01*
X450399Y2777899D01*
X452200Y2776100D01*
X453999Y2772600D01*
X453999Y2769000D01*
X452200Y2765399D01*
X448699Y2760000D01*
X430799Y2742100D01*
X455799Y2742100D01*
X467600Y2779699D02*
G01*
X481899Y2742100D01*
X496300Y2779699D02*
G01*
X481899Y2742100D01*
X1937534Y810000D02*
G01*
X1926035Y779899D01*
X1937534Y810000D02*
G01*
X1948935Y779899D01*
X1930334Y789899D02*
G01*
X1944634Y789899D01*
X1958434Y804299D02*
G01*
X1961234Y805700D01*
X1965534Y810000D01*
X1965534Y779899D01*
X2032534Y807199D02*
G01*
X2021035Y777100D01*
X2032534Y807199D02*
G01*
X2043935Y777100D01*
X2025334Y787100D02*
G01*
X2039634Y787100D01*
X2054835Y800000D02*
G01*
X2054835Y801500D01*
X2056234Y804299D01*
X2057635Y805700D01*
X2060534Y807199D01*
X2066234Y807199D01*
X2069134Y805700D01*
X2070534Y804299D01*
X2072034Y801500D01*
X2072034Y798600D01*
X2070534Y795700D01*
X2067735Y791399D01*
X2053434Y777100D01*
X2073434Y777100D01*
X2132534Y807199D02*
G01*
X2121035Y777100D01*
X2132534Y807199D02*
G01*
X2143935Y777100D01*
X2125334Y787100D02*
G01*
X2139634Y787100D01*
X2156234Y807199D02*
G01*
X2172034Y807199D01*
X2163434Y795700D01*
X2167735Y795700D01*
X2170535Y794299D01*
X2172034Y792899D01*
X2173434Y788600D01*
X2173434Y785700D01*
X2172034Y781399D01*
X2169134Y778499D01*
X2164835Y777100D01*
X2160535Y777100D01*
X2156234Y778499D01*
X2154835Y780000D01*
X2153434Y782800D01*
X2227534Y807199D02*
G01*
X2216035Y777100D01*
X2227534Y807199D02*
G01*
X2238935Y777100D01*
X2220334Y787100D02*
G01*
X2234634Y787100D01*
X2262735Y807199D02*
G01*
X2248434Y787100D01*
X2269835Y787100D01*
X2262735Y807199D02*
G01*
X2262735Y777100D01*
X2327534Y807199D02*
G01*
X2316035Y777100D01*
X2327534Y807199D02*
G01*
X2338935Y777100D01*
X2320334Y787100D02*
G01*
X2334634Y787100D01*
X2365535Y807199D02*
G01*
X2351234Y807199D01*
X2349835Y794299D01*
X2351234Y795700D01*
X2355535Y797199D01*
X2359835Y797199D01*
X2364134Y795700D01*
X2367034Y792899D01*
X2368434Y788600D01*
X2368434Y785700D01*
X2367034Y781399D01*
X2364134Y778499D01*
X2359835Y777100D01*
X2355535Y777100D01*
X2351234Y778499D01*
X2349835Y780000D01*
X2348434Y782800D01*
X2432534Y807199D02*
G01*
X2421035Y777100D01*
X2432534Y807199D02*
G01*
X2443935Y777100D01*
X2425334Y787100D02*
G01*
X2439634Y787100D01*
X2470535Y802899D02*
G01*
X2469134Y805700D01*
X2464835Y807199D01*
X2461935Y807199D01*
X2457635Y805700D01*
X2454835Y801500D01*
X2453434Y794299D01*
X2453434Y787100D01*
X2454835Y781399D01*
X2457635Y778499D01*
X2461935Y777100D01*
X2463434Y777100D01*
X2467735Y778499D01*
X2470535Y781399D01*
X2472034Y785700D01*
X2472034Y787100D01*
X2470535Y791399D01*
X2467735Y794299D01*
X2463434Y795700D01*
X2461935Y795700D01*
X2457635Y794299D01*
X2454835Y791399D01*
X2453434Y787100D01*
X2532534Y807199D02*
G01*
X2521035Y777100D01*
X2532534Y807199D02*
G01*
X2543935Y777100D01*
X2525334Y787100D02*
G01*
X2539634Y787100D01*
X2573434Y807199D02*
G01*
X2559134Y777100D01*
X2553434Y807199D02*
G01*
X2573434Y807199D01*
X2707534Y807199D02*
G01*
X2696035Y777100D01*
X2707534Y807199D02*
G01*
X2718935Y777100D01*
X2700334Y787100D02*
G01*
X2714634Y787100D01*
X2735535Y807199D02*
G01*
X2731234Y805700D01*
X2729835Y802899D01*
X2729835Y800000D01*
X2731234Y797199D01*
X2734134Y795700D01*
X2739835Y794299D01*
X2744134Y792899D01*
X2747034Y790000D01*
X2748434Y787100D01*
X2748434Y782800D01*
X2747034Y780000D01*
X2745535Y778499D01*
X2741234Y777100D01*
X2735535Y777100D01*
X2731234Y778499D01*
X2729835Y780000D01*
X2728434Y782800D01*
X2728434Y787100D01*
X2729835Y790000D01*
X2732635Y792899D01*
X2736935Y794299D01*
X2742735Y795700D01*
X2745535Y797199D01*
X2747034Y800000D01*
X2747034Y802899D01*
X2745535Y805700D01*
X2741234Y807199D01*
X2735535Y807199D01*
X2807534Y807199D02*
G01*
X2796035Y777100D01*
X2807534Y807199D02*
G01*
X2818935Y777100D01*
X2800334Y787100D02*
G01*
X2814634Y787100D01*
X2847034Y797199D02*
G01*
X2845535Y792899D01*
X2842735Y790000D01*
X2838434Y788600D01*
X2836935Y788600D01*
X2832635Y790000D01*
X2829835Y792899D01*
X2828434Y797199D01*
X2828434Y798600D01*
X2829835Y802899D01*
X2832635Y805700D01*
X2836935Y807199D01*
X2838434Y807199D01*
X2842735Y805700D01*
X2845535Y802899D01*
X2847034Y797199D01*
X2847034Y790000D01*
X2845535Y782800D01*
X2842735Y778499D01*
X2838434Y777100D01*
X2835535Y777100D01*
X2831234Y778499D01*
X2829835Y781399D01*
X2912534Y807199D02*
G01*
X2901035Y777100D01*
X2912534Y807199D02*
G01*
X2923935Y777100D01*
X2905334Y787100D02*
G01*
X2919634Y787100D01*
X2933434Y801500D02*
G01*
X2936234Y802899D01*
X2940535Y807199D01*
X2940535Y777100D01*
X2958635Y807199D02*
G01*
X2954335Y805700D01*
X2951435Y801500D01*
X2950034Y794299D01*
X2950034Y790000D01*
X2951435Y782800D01*
X2954335Y778499D01*
X2958635Y777100D01*
X2961435Y777100D01*
X2965735Y778499D01*
X2968635Y782800D01*
X2970034Y790000D01*
X2970034Y794299D01*
X2968635Y801500D01*
X2965735Y805700D01*
X2961435Y807199D01*
X2958635Y807199D01*
X3012534Y807199D02*
G01*
X3001035Y777100D01*
X3012534Y807199D02*
G01*
X3023935Y777100D01*
X3005334Y787100D02*
G01*
X3019634Y787100D01*
X3033434Y801500D02*
G01*
X3036234Y802899D01*
X3040535Y807199D01*
X3040535Y777100D01*
X3050034Y801500D02*
G01*
X3052834Y802899D01*
X3057134Y807199D01*
X3057134Y777100D01*
X3107534Y807199D02*
G01*
X3096035Y777100D01*
X3107534Y807199D02*
G01*
X3118935Y777100D01*
X3100334Y787100D02*
G01*
X3114634Y787100D01*
X3128434Y801500D02*
G01*
X3131234Y802899D01*
X3135535Y807199D01*
X3135535Y777100D01*
X3146435Y800000D02*
G01*
X3146435Y801500D01*
X3147834Y804299D01*
X3149335Y805700D01*
X3152134Y807199D01*
X3157834Y807199D01*
X3160735Y805700D01*
X3162134Y804299D01*
X3163635Y801500D01*
X3163635Y798600D01*
X3162134Y795700D01*
X3159335Y791399D01*
X3145034Y777100D01*
X3165034Y777100D01*
X3207534Y807199D02*
G01*
X3196035Y777100D01*
X3207534Y807199D02*
G01*
X3218935Y777100D01*
X3200334Y787100D02*
G01*
X3214634Y787100D01*
X3228434Y801500D02*
G01*
X3231234Y802899D01*
X3235535Y807199D01*
X3235535Y777100D01*
X3247834Y807199D02*
G01*
X3263635Y807199D01*
X3255034Y795700D01*
X3259335Y795700D01*
X3262134Y794299D01*
X3263635Y792899D01*
X3265034Y788600D01*
X3265034Y785700D01*
X3263635Y781399D01*
X3260735Y778499D01*
X3256435Y777100D01*
X3252134Y777100D01*
X3247834Y778499D01*
X3246435Y780000D01*
X3245034Y782800D01*
X3312534Y807199D02*
G01*
X3301035Y777100D01*
X3312534Y807199D02*
G01*
X3323935Y777100D01*
X3305334Y787100D02*
G01*
X3319634Y787100D01*
X3333434Y801500D02*
G01*
X3336234Y802899D01*
X3340535Y807199D01*
X3340535Y777100D01*
X3364335Y807199D02*
G01*
X3350034Y787100D01*
X3371435Y787100D01*
X3364335Y807199D02*
G01*
X3364335Y777100D01*
X3412534Y807199D02*
G01*
X3401035Y777100D01*
X3412534Y807199D02*
G01*
X3423935Y777100D01*
X3405334Y787100D02*
G01*
X3419634Y787100D01*
X3433434Y801500D02*
G01*
X3436234Y802899D01*
X3440535Y807199D01*
X3440535Y777100D01*
X3467134Y807199D02*
G01*
X3452834Y807199D01*
X3451435Y794299D01*
X3452834Y795700D01*
X3457134Y797199D01*
X3461435Y797199D01*
X3465735Y795700D01*
X3468635Y792899D01*
X3470034Y788600D01*
X3470034Y785700D01*
X3468635Y781399D01*
X3465735Y778499D01*
X3461435Y777100D01*
X3457134Y777100D01*
X3452834Y778499D01*
X3451435Y780000D01*
X3450034Y782800D01*
D34*
X2312200Y1230300D02*
G01*
X2306099Y1228200D01*
X2301999Y1222100D01*
X2300000Y1211900D01*
X2300000Y1205799D01*
X2301999Y1195599D01*
X2306099Y1189499D01*
X2312200Y1187399D01*
X2316300Y1187399D01*
X2322399Y1189499D01*
X2326499Y1195599D01*
X2328599Y1205799D01*
X2328599Y1211900D01*
X2326499Y1222100D01*
X2322399Y1228200D01*
X2316300Y1230300D01*
X2312200Y1230300D01*
X2344099Y1197600D02*
G01*
X2341999Y1195599D01*
X2344099Y1193600D01*
X2346099Y1195599D01*
X2344099Y1197600D01*
X2359600Y1222100D02*
G01*
X2363699Y1224200D01*
X2369799Y1230300D01*
X2369799Y1187399D01*
X2383199Y1215999D02*
G01*
X2383199Y1195599D01*
X2385299Y1189499D01*
X2389399Y1187399D01*
X2395500Y1187399D01*
X2399600Y1189499D01*
X2405699Y1195599D01*
X2405699Y1215999D02*
G01*
X2405699Y1187399D01*
X2419099Y1230300D02*
G01*
X2419099Y1187399D01*
X2419099Y1230300D02*
G01*
X2445699Y1230300D01*
X2419099Y1209899D02*
G01*
X2435500Y1209899D01*
X1885000Y1547100D02*
G01*
X1889099Y1549200D01*
X1895200Y1555300D01*
X1895200Y1512399D01*
X1920900Y1555300D02*
G01*
X1914799Y1553200D01*
X1910699Y1547100D01*
X1908699Y1536900D01*
X1908699Y1530799D01*
X1910699Y1520599D01*
X1914799Y1514499D01*
X1920900Y1512399D01*
X1925000Y1512399D01*
X1931099Y1514499D01*
X1935200Y1520599D01*
X1937200Y1530799D01*
X1937200Y1536900D01*
X1935200Y1547100D01*
X1931099Y1553200D01*
X1925000Y1555300D01*
X1920900Y1555300D01*
X1962899Y1555300D02*
G01*
X1956800Y1553200D01*
X1952700Y1547100D01*
X1950699Y1536900D01*
X1950699Y1530799D01*
X1952700Y1520599D01*
X1956800Y1514499D01*
X1962899Y1512399D01*
X1966999Y1512399D01*
X1973100Y1514499D01*
X1977200Y1520599D01*
X1979300Y1530799D01*
X1979300Y1536900D01*
X1977200Y1547100D01*
X1973100Y1553200D01*
X1966999Y1555300D01*
X1962899Y1555300D01*
X1992700Y1540999D02*
G01*
X1992700Y1520599D01*
X1994799Y1514499D01*
X1998800Y1512399D01*
X2005000Y1512399D01*
X2008999Y1514499D01*
X2015200Y1520599D01*
X2015200Y1540999D02*
G01*
X2015200Y1512399D01*
X2028599Y1555300D02*
G01*
X2028599Y1512399D01*
X2028599Y1555300D02*
G01*
X2055100Y1555300D01*
X2028599Y1534899D02*
G01*
X2044899Y1534899D01*
X1595399Y1600300D02*
G01*
X1575000Y1571700D01*
X1605600Y1571700D01*
X1595399Y1600300D02*
G01*
X1595399Y1557399D01*
X1647600Y1600300D02*
G01*
X1627200Y1557399D01*
X1619099Y1600300D02*
G01*
X1647600Y1600300D01*
X1673299Y1600300D02*
G01*
X1667200Y1598200D01*
X1663100Y1592100D01*
X1661099Y1581900D01*
X1661099Y1575799D01*
X1663100Y1565599D01*
X1667200Y1559499D01*
X1673299Y1557399D01*
X1677399Y1557399D01*
X1683500Y1559499D01*
X1687600Y1565599D01*
X1689700Y1575799D01*
X1689700Y1581900D01*
X1687600Y1592100D01*
X1683500Y1598200D01*
X1677399Y1600300D01*
X1673299Y1600300D01*
X1703100Y1585999D02*
G01*
X1703100Y1565599D01*
X1705200Y1559499D01*
X1709200Y1557399D01*
X1715399Y1557399D01*
X1719399Y1559499D01*
X1725600Y1565599D01*
X1725600Y1585999D02*
G01*
X1725600Y1557399D01*
X1738999Y1600300D02*
G01*
X1738999Y1557399D01*
X1738999Y1600300D02*
G01*
X1765500Y1600300D01*
X1738999Y1579899D02*
G01*
X1755299Y1579899D01*
D32*
X3568599Y729699D02*
G01*
X3588299Y729699D01*
X3577500Y715399D01*
X3582899Y715399D01*
X3586499Y713600D01*
X3588299Y711799D01*
X3590100Y706500D01*
X3590100Y702899D01*
X3588299Y697500D01*
X3584700Y693899D01*
X3579300Y692100D01*
X3573900Y692100D01*
X3568599Y693899D01*
X3566800Y695700D01*
X3565000Y699299D01*
X3603699Y701100D02*
G01*
X3601899Y699299D01*
X3603699Y697500D01*
X3605399Y699299D01*
X3603699Y701100D01*
X3620799Y729699D02*
G01*
X3640500Y729699D01*
X3629799Y715399D01*
X3635200Y715399D01*
X3638699Y713600D01*
X3640500Y711799D01*
X3642299Y706500D01*
X3642299Y702899D01*
X3640500Y697500D01*
X3636899Y693899D01*
X3631599Y692100D01*
X3626199Y692100D01*
X3620799Y693899D01*
X3618999Y695700D01*
X3617299Y699299D01*
X3654099Y729699D02*
G01*
X3668400Y692100D01*
X3682799Y729699D02*
G01*
X3668400Y692100D01*
X3729600Y1423499D02*
G01*
X3732500Y1425000D01*
X3735399Y1427800D01*
X3736800Y1430700D01*
X3736800Y1436399D01*
X3735399Y1439299D01*
X3732500Y1442100D01*
X3729600Y1443600D01*
X3725299Y1445000D01*
X3718199Y1445000D01*
X3713900Y1443600D01*
X3711000Y1442100D01*
X3708100Y1439299D01*
X3706700Y1436399D01*
X3706700Y1430700D01*
X3708100Y1427800D01*
X3711000Y1425000D01*
X3713900Y1423499D01*
X3718199Y1423499D01*
X3718199Y1430700D02*
G01*
X3718199Y1423499D01*
X3736800Y1414099D02*
G01*
X3706700Y1414099D01*
X3736800Y1414099D02*
G01*
X3706700Y1394000D01*
X3736800Y1394000D02*
G01*
X3706700Y1394000D01*
X3736800Y1384600D02*
G01*
X3706700Y1384600D01*
X3736800Y1384600D02*
G01*
X3736800Y1374600D01*
X3735399Y1370300D01*
X3732500Y1367399D01*
X3729600Y1365999D01*
X3725299Y1364499D01*
X3718199Y1364499D01*
X3713900Y1365999D01*
X3711000Y1367399D01*
X3708100Y1370300D01*
X3706700Y1374600D01*
X3706700Y1384600D01*
X4011800Y1445000D02*
G01*
X3981700Y1433499D01*
X4011800Y1422100D02*
G01*
X3981700Y1433499D01*
X4004600Y1391199D02*
G01*
X4007500Y1392600D01*
X4010399Y1395500D01*
X4011800Y1398299D01*
X4011800Y1404099D01*
X4010399Y1406900D01*
X4007500Y1409800D01*
X4004600Y1411199D01*
X4000299Y1412600D01*
X3993199Y1412600D01*
X3988900Y1411199D01*
X3986000Y1409800D01*
X3983100Y1406900D01*
X3981700Y1404099D01*
X3981700Y1398299D01*
X3983100Y1395500D01*
X3986000Y1392600D01*
X3988900Y1391199D01*
X4004600Y1360199D02*
G01*
X4007500Y1361700D01*
X4010399Y1364499D01*
X4011800Y1367399D01*
X4011800Y1373099D01*
X4010399Y1375999D01*
X4007500Y1378899D01*
X4004600Y1380300D01*
X4000299Y1381700D01*
X3993199Y1381700D01*
X3988900Y1380300D01*
X3986000Y1378899D01*
X3983100Y1375999D01*
X3981700Y1373099D01*
X3981700Y1367399D01*
X3983100Y1364499D01*
X3986000Y1361700D01*
X3988900Y1360199D01*
X4009600Y1293499D02*
G01*
X4012500Y1295000D01*
X4015399Y1297800D01*
X4016800Y1300700D01*
X4016800Y1306399D01*
X4015399Y1309299D01*
X4012500Y1312100D01*
X4009600Y1313600D01*
X4005299Y1315000D01*
X3998199Y1315000D01*
X3993900Y1313600D01*
X3991000Y1312100D01*
X3988100Y1309299D01*
X3986700Y1306399D01*
X3986700Y1300700D01*
X3988100Y1297800D01*
X3991000Y1295000D01*
X3993900Y1293499D01*
X4012500Y1264000D02*
G01*
X4015399Y1266900D01*
X4016800Y1271199D01*
X4016800Y1276900D01*
X4015399Y1281199D01*
X4012500Y1284099D01*
X4009600Y1284099D01*
X4006800Y1282600D01*
X4005299Y1281199D01*
X4003900Y1278400D01*
X4001000Y1269800D01*
X3999600Y1266900D01*
X3998199Y1265500D01*
X3995299Y1264000D01*
X3991000Y1264000D01*
X3988100Y1266900D01*
X3986700Y1271199D01*
X3986700Y1276900D01*
X3988100Y1281199D01*
X3991000Y1284099D01*
X4016800Y1254600D02*
G01*
X3986700Y1254600D01*
X4016800Y1254600D02*
G01*
X3986700Y1234499D01*
X4016800Y1234499D02*
G01*
X3986700Y1234499D01*
X4011800Y1200000D02*
G01*
X3981700Y1200000D01*
X4011800Y1200000D02*
G01*
X3981700Y1188499D01*
X4011800Y1177100D02*
G01*
X3981700Y1188499D01*
X4011800Y1177100D02*
G01*
X3981700Y1177100D01*
X4011800Y1159099D02*
G01*
X4010399Y1161900D01*
X4007500Y1164800D01*
X4004600Y1166199D01*
X4000299Y1167600D01*
X3993199Y1167600D01*
X3988900Y1166199D01*
X3986000Y1164800D01*
X3983100Y1161900D01*
X3981700Y1159099D01*
X3981700Y1153299D01*
X3983100Y1150500D01*
X3986000Y1147600D01*
X3988900Y1146199D01*
X3993199Y1144699D01*
X4000299Y1144699D01*
X4004600Y1146199D01*
X4007500Y1147600D01*
X4010399Y1150500D01*
X4011800Y1153299D01*
X4011800Y1159099D01*
X4007500Y1115199D02*
G01*
X4010399Y1118099D01*
X4011800Y1122399D01*
X4011800Y1128099D01*
X4010399Y1132399D01*
X4007500Y1135300D01*
X4004600Y1135300D01*
X4001800Y1133899D01*
X4000299Y1132399D01*
X3998900Y1129600D01*
X3996000Y1120999D01*
X3994600Y1118099D01*
X3993199Y1116700D01*
X3990299Y1115199D01*
X3986000Y1115199D01*
X3983100Y1118099D01*
X3981700Y1122399D01*
X3981700Y1128099D01*
X3983100Y1132399D01*
X3986000Y1135300D01*
X4011800Y1105799D02*
G01*
X3981700Y1105799D01*
X3724600Y1293499D02*
G01*
X3727500Y1295000D01*
X3730399Y1297800D01*
X3731800Y1300700D01*
X3731800Y1306399D01*
X3730399Y1309299D01*
X3727500Y1312100D01*
X3724600Y1313600D01*
X3720299Y1315000D01*
X3713199Y1315000D01*
X3708900Y1313600D01*
X3706000Y1312100D01*
X3703100Y1309299D01*
X3701700Y1306399D01*
X3701700Y1300700D01*
X3703100Y1297800D01*
X3706000Y1295000D01*
X3708900Y1293499D01*
X3731800Y1284099D02*
G01*
X3701700Y1284099D01*
X3731800Y1284099D02*
G01*
X3731800Y1265500D01*
X3717500Y1284099D02*
G01*
X3717500Y1272600D01*
X3701700Y1284099D02*
G01*
X3701700Y1265500D01*
X3732500Y1179998D02*
G01*
X3735399Y1182799D01*
X3736800Y1187098D01*
X3736800Y1192799D01*
X3735399Y1197098D01*
X3732500Y1199998D01*
X3729600Y1199998D01*
X3726800Y1198598D01*
X3725299Y1197098D01*
X3723900Y1194299D01*
X3721000Y1185698D01*
X3719600Y1182799D01*
X3718199Y1181399D01*
X3715299Y1179998D01*
X3711000Y1179998D01*
X3708100Y1182799D01*
X3706700Y1187098D01*
X3706700Y1192799D01*
X3708100Y1197098D01*
X3711000Y1199998D01*
X3729600Y1148998D02*
G01*
X3732500Y1150498D01*
X3735399Y1153299D01*
X3736800Y1156199D01*
X3736800Y1161898D01*
X3735399Y1164798D01*
X3732500Y1167599D01*
X3729600Y1169099D01*
X3725299Y1170498D01*
X3718199Y1170498D01*
X3713900Y1169099D01*
X3711000Y1167599D01*
X3708100Y1164798D01*
X3706700Y1161898D01*
X3706700Y1156199D01*
X3708100Y1153299D01*
X3711000Y1150498D01*
X3713900Y1148998D01*
X3736800Y1139598D02*
G01*
X3706700Y1139598D01*
X3736800Y1119499D02*
G01*
X3716700Y1139598D01*
X3723900Y1132399D02*
G01*
X3706700Y1119499D01*
X3736800Y1070000D02*
G01*
X3706700Y1070000D01*
X3736800Y1070000D02*
G01*
X3706700Y1058499D01*
X3736800Y1047100D02*
G01*
X3706700Y1058499D01*
X3736800Y1047100D02*
G01*
X3706700Y1047100D01*
X3736800Y1037600D02*
G01*
X3706700Y1037600D01*
X3732500Y1008200D02*
G01*
X3735399Y1010999D01*
X3736800Y1015300D01*
X3736800Y1020999D01*
X3735399Y1025300D01*
X3732500Y1028200D01*
X3729600Y1028200D01*
X3726800Y1026799D01*
X3725299Y1025300D01*
X3723900Y1022500D01*
X3721000Y1013899D01*
X3719600Y1010999D01*
X3718199Y1009600D01*
X3715299Y1008200D01*
X3711000Y1008200D01*
X3708100Y1010999D01*
X3706700Y1015300D01*
X3706700Y1020999D01*
X3708100Y1025300D01*
X3711000Y1028200D01*
X3736800Y990100D02*
G01*
X3735399Y993000D01*
X3732500Y995799D01*
X3729600Y997300D01*
X3725299Y998699D01*
X3718199Y998699D01*
X3713900Y997300D01*
X3711000Y995799D01*
X3708100Y993000D01*
X3706700Y990100D01*
X3706700Y984400D01*
X3708100Y981500D01*
X3711000Y978699D01*
X3713900Y977199D01*
X3718199Y975799D01*
X3725299Y975799D01*
X3729600Y977199D01*
X3732500Y978699D01*
X3735399Y981500D01*
X3736800Y984400D01*
X3736800Y990100D01*
X4011800Y1070000D02*
G01*
X3981700Y1070000D01*
X4011800Y1060599D02*
G01*
X3981700Y1060599D01*
X4011800Y1060599D02*
G01*
X4011800Y1047699D01*
X4010399Y1043400D01*
X4008900Y1041900D01*
X4006099Y1040500D01*
X4003199Y1040500D01*
X4000299Y1041900D01*
X3998900Y1043400D01*
X3997500Y1047699D01*
X3997500Y1060599D01*
X3997500Y1050500D02*
G01*
X3981700Y1040500D01*
X4011800Y1022500D02*
G01*
X4010399Y1025300D01*
X4007500Y1028200D01*
X4004600Y1029600D01*
X4000299Y1031100D01*
X3993199Y1031100D01*
X3988900Y1029600D01*
X3986000Y1028200D01*
X3983100Y1025300D01*
X3981700Y1022500D01*
X3981700Y1016700D01*
X3983100Y1013899D01*
X3986000Y1010999D01*
X3988900Y1009600D01*
X3993199Y1008200D01*
X4000299Y1008200D01*
X4004600Y1009600D01*
X4007500Y1010999D01*
X4010399Y1013899D01*
X4011800Y1016700D01*
X4011800Y1022500D01*
X3987399Y1018200D02*
G01*
X3978900Y1009600D01*
D30*
X3693199Y1930799D02*
G01*
X3710900Y1930799D01*
X3701300Y1917899D01*
X3706099Y1917899D01*
X3709300Y1916300D01*
X3710900Y1914600D01*
X3712500Y1909800D01*
X3712500Y1906599D01*
X3710900Y1901799D01*
X3707700Y1898499D01*
X3702899Y1896900D01*
X3698100Y1896900D01*
X3693199Y1898499D01*
X3691599Y1900199D01*
X3690000Y1903400D01*
X3739300Y1930799D02*
G01*
X3723199Y1908200D01*
X3747299Y1908200D01*
X3739300Y1930799D02*
G01*
X3739300Y1896900D01*
X3693199Y1825799D02*
G01*
X3710900Y1825799D01*
X3701300Y1812899D01*
X3706099Y1812899D01*
X3709300Y1811300D01*
X3710900Y1809600D01*
X3712500Y1804800D01*
X3712500Y1801599D01*
X3710900Y1796799D01*
X3707700Y1793499D01*
X3702899Y1791900D01*
X3698100Y1791900D01*
X3693199Y1793499D01*
X3691599Y1795199D01*
X3690000Y1798400D01*
X3742500Y1820900D02*
G01*
X3740900Y1824099D01*
X3736099Y1825799D01*
X3732799Y1825799D01*
X3728000Y1824099D01*
X3724799Y1819299D01*
X3723199Y1811300D01*
X3723199Y1803200D01*
X3724799Y1796799D01*
X3728000Y1793499D01*
X3732799Y1791900D01*
X3734499Y1791900D01*
X3739300Y1793499D01*
X3742500Y1796799D01*
X3744099Y1801599D01*
X3744099Y1803200D01*
X3742500Y1808000D01*
X3739300Y1811300D01*
X3734499Y1812899D01*
X3732799Y1812899D01*
X3728000Y1811300D01*
X3724799Y1808000D01*
X3723199Y1803200D01*
X3706099Y1620799D02*
G01*
X3690000Y1598200D01*
X3714200Y1598200D01*
X3706099Y1620799D02*
G01*
X3706099Y1586900D01*
X3734499Y1620799D02*
G01*
X3729600Y1619099D01*
X3726400Y1614299D01*
X3724799Y1606300D01*
X3724799Y1601399D01*
X3726400Y1593400D01*
X3729600Y1588499D01*
X3734499Y1586900D01*
X3737700Y1586900D01*
X3742500Y1588499D01*
X3745699Y1593400D01*
X3747299Y1601399D01*
X3747299Y1606300D01*
X3745699Y1614299D01*
X3742500Y1619099D01*
X3737700Y1620799D01*
X3734499Y1620799D01*
X3693199Y1725799D02*
G01*
X3710900Y1725799D01*
X3701300Y1712899D01*
X3706099Y1712899D01*
X3709300Y1711300D01*
X3710900Y1709600D01*
X3712500Y1704800D01*
X3712500Y1701599D01*
X3710900Y1696799D01*
X3707700Y1693499D01*
X3702899Y1691900D01*
X3698100Y1691900D01*
X3693199Y1693499D01*
X3691599Y1695199D01*
X3690000Y1698400D01*
X3731199Y1725799D02*
G01*
X3726400Y1724099D01*
X3724799Y1720900D01*
X3724799Y1717699D01*
X3726400Y1714499D01*
X3729600Y1712899D01*
X3736099Y1711300D01*
X3740900Y1709600D01*
X3744099Y1706399D01*
X3745699Y1703200D01*
X3745699Y1698400D01*
X3744099Y1695199D01*
X3742500Y1693499D01*
X3737700Y1691900D01*
X3731199Y1691900D01*
X3726400Y1693499D01*
X3724799Y1695199D01*
X3723199Y1698400D01*
X3723199Y1703200D01*
X3724799Y1706399D01*
X3728000Y1709600D01*
X3732799Y1711300D01*
X3739300Y1712899D01*
X3742500Y1714499D01*
X3744099Y1717699D01*
X3744099Y1720900D01*
X3742500Y1724099D01*
X3737700Y1725799D01*
X3731199Y1725799D01*
X3706099Y1530799D02*
G01*
X3690000Y1508200D01*
X3714200Y1508200D01*
X3706099Y1530799D02*
G01*
X3706099Y1496900D01*
X3726400Y1522699D02*
G01*
X3726400Y1524299D01*
X3728000Y1527500D01*
X3729600Y1529099D01*
X3732799Y1530799D01*
X3739300Y1530799D01*
X3742500Y1529099D01*
X3744099Y1527500D01*
X3745699Y1524299D01*
X3745699Y1521100D01*
X3744099Y1517899D01*
X3740900Y1513000D01*
X3724799Y1496900D01*
X3747299Y1496900D01*
X3986099Y1620799D02*
G01*
X3970000Y1598200D01*
X3994200Y1598200D01*
X3986099Y1620799D02*
G01*
X3986099Y1586900D01*
X4004799Y1614299D02*
G01*
X4008000Y1615900D01*
X4012799Y1620799D01*
X4012799Y1586900D01*
X3986099Y1530799D02*
G01*
X3970000Y1508200D01*
X3994200Y1508200D01*
X3986099Y1530799D02*
G01*
X3986099Y1496900D01*
X4008000Y1530799D02*
G01*
X4025699Y1530799D01*
X4016099Y1517899D01*
X4020900Y1517899D01*
X4024099Y1516300D01*
X4025699Y1514600D01*
X4027299Y1509800D01*
X4027299Y1506599D01*
X4025699Y1501799D01*
X4022500Y1498499D01*
X4017700Y1496900D01*
X4012799Y1496900D01*
X4008000Y1498499D01*
X4006400Y1500199D01*
X4004799Y1503400D01*
X3973199Y1725799D02*
G01*
X3990900Y1725799D01*
X3981300Y1712899D01*
X3986099Y1712899D01*
X3989300Y1711300D01*
X3990900Y1709600D01*
X3992500Y1704800D01*
X3992500Y1701599D01*
X3990900Y1696799D01*
X3987700Y1693499D01*
X3982899Y1691900D01*
X3978100Y1691900D01*
X3973199Y1693499D01*
X3971599Y1695199D01*
X3970000Y1698400D01*
X4024099Y1714499D02*
G01*
X4022500Y1709600D01*
X4019300Y1706399D01*
X4014499Y1704800D01*
X4012799Y1704800D01*
X4008000Y1706399D01*
X4004799Y1709600D01*
X4003199Y1714499D01*
X4003199Y1716100D01*
X4004799Y1720900D01*
X4008000Y1724099D01*
X4012799Y1725799D01*
X4014499Y1725799D01*
X4019300Y1724099D01*
X4022500Y1720900D01*
X4024099Y1714499D01*
X4024099Y1706399D01*
X4022500Y1698400D01*
X4019300Y1693499D01*
X4014499Y1691900D01*
X4011199Y1691900D01*
X4006400Y1693499D01*
X4004799Y1696799D01*
X3973199Y1825799D02*
G01*
X3990900Y1825799D01*
X3981300Y1812899D01*
X3986099Y1812899D01*
X3989300Y1811300D01*
X3990900Y1809600D01*
X3992500Y1804800D01*
X3992500Y1801599D01*
X3990900Y1796799D01*
X3987700Y1793499D01*
X3982899Y1791900D01*
X3978100Y1791900D01*
X3973199Y1793499D01*
X3971599Y1795199D01*
X3970000Y1798400D01*
X4025699Y1825799D02*
G01*
X4009600Y1791900D01*
X4003199Y1825799D02*
G01*
X4025699Y1825799D01*
X3973199Y1950799D02*
G01*
X3990900Y1950799D01*
X3981300Y1937899D01*
X3986099Y1937899D01*
X3989300Y1936300D01*
X3990900Y1934600D01*
X3992500Y1929800D01*
X3992500Y1926599D01*
X3990900Y1921799D01*
X3987700Y1918499D01*
X3982899Y1916900D01*
X3978100Y1916900D01*
X3973199Y1918499D01*
X3971599Y1920199D01*
X3970000Y1923400D01*
X4022500Y1950799D02*
G01*
X4006400Y1950799D01*
X4004799Y1936300D01*
X4006400Y1937899D01*
X4011199Y1939499D01*
X4016099Y1939499D01*
X4020900Y1937899D01*
X4024099Y1934600D01*
X4025699Y1929800D01*
X4025699Y1926599D01*
X4024099Y1921799D01*
X4020900Y1918499D01*
X4016099Y1916900D01*
X4011199Y1916900D01*
X4006400Y1918499D01*
X4004799Y1920199D01*
X4003199Y1923400D01*
D32*
X854997Y1624702D02*
G01*
X856796Y1622903D01*
X858596Y1624702D01*
X856796Y1626502D01*
X854997Y1624702D01*
X856796Y1612202D02*
G01*
X856796Y1587103D01*
X870397Y1624702D02*
G01*
X870397Y1587103D01*
X870397Y1624702D02*
G01*
X886496Y1624702D01*
X891896Y1622903D01*
X893697Y1621102D01*
X895397Y1617602D01*
X895397Y1614002D01*
X893697Y1610403D01*
X891896Y1608602D01*
X886496Y1606803D01*
X870397Y1606803D02*
G01*
X886496Y1606803D01*
X891896Y1605003D01*
X893697Y1603303D01*
X895397Y1599702D01*
X895397Y1594303D01*
X893697Y1590702D01*
X891896Y1588903D01*
X886496Y1587103D01*
X870397Y1587103D01*
X907296Y1624702D02*
G01*
X907296Y1597903D01*
X908996Y1592503D01*
X912596Y1588903D01*
X917996Y1587103D01*
X921597Y1587103D01*
X926896Y1588903D01*
X930496Y1592503D01*
X932296Y1597903D01*
X932296Y1624702D01*
X969197Y1619403D02*
G01*
X965596Y1622903D01*
X960196Y1624702D01*
X953096Y1624702D01*
X947696Y1622903D01*
X944097Y1619403D01*
X944097Y1615803D01*
X945897Y1612202D01*
X947696Y1610403D01*
X951297Y1608602D01*
X961997Y1605003D01*
X965596Y1603303D01*
X967397Y1601502D01*
X969197Y1597903D01*
X969197Y1592503D01*
X965596Y1588903D01*
X960196Y1587103D01*
X953096Y1587103D01*
X947696Y1588903D01*
X944097Y1592503D01*
X2505000Y2696799D02*
G01*
X2505000Y2666700D01*
X2495000Y2696799D02*
G01*
X2515000Y2696799D01*
X2524499Y2696799D02*
G01*
X2544499Y2666700D01*
X2544499Y2696799D02*
G01*
X2524499Y2666700D01*
X2556800Y2696799D02*
G01*
X2572600Y2696799D01*
X2563999Y2685300D01*
X2568299Y2685300D01*
X2571199Y2683899D01*
X2572600Y2682500D01*
X2573999Y2678200D01*
X2573999Y2675300D01*
X2572600Y2670999D01*
X2569700Y2668099D01*
X2565399Y2666700D01*
X2561099Y2666700D01*
X2556800Y2668099D01*
X2555399Y2669600D01*
X2553999Y2672399D01*
X2590000Y2696799D02*
G01*
X2590000Y2666700D01*
X2590000Y2696799D02*
G01*
X2602899Y2696799D01*
X2607200Y2695399D01*
X2608599Y2693899D01*
X2610000Y2691100D01*
X2610000Y2688200D01*
X2608599Y2685300D01*
X2607200Y2683899D01*
X2602899Y2682500D01*
X2590000Y2682500D01*
X2600000Y2682500D02*
G01*
X2610000Y2666700D01*
X2619499Y2696799D02*
G01*
X2639499Y2666700D01*
X2639499Y2696799D02*
G01*
X2619499Y2666700D01*
X2651800Y2696799D02*
G01*
X2667600Y2696799D01*
X2658999Y2685300D01*
X2663299Y2685300D01*
X2666199Y2683899D01*
X2667600Y2682500D01*
X2668999Y2678200D01*
X2668999Y2675300D01*
X2667600Y2670999D01*
X2664700Y2668099D01*
X2660399Y2666700D01*
X2656099Y2666700D01*
X2651800Y2668099D01*
X2650399Y2669600D01*
X2648999Y2672399D01*
X2700000Y2696799D02*
G01*
X2700000Y2666700D01*
X2690000Y2696799D02*
G01*
X2710000Y2696799D01*
X2719499Y2696799D02*
G01*
X2739499Y2666700D01*
X2739499Y2696799D02*
G01*
X2719499Y2666700D01*
X2750399Y2689600D02*
G01*
X2750399Y2691100D01*
X2751800Y2693899D01*
X2753299Y2695399D01*
X2756099Y2696799D01*
X2761899Y2696799D01*
X2764700Y2695399D01*
X2766199Y2693899D01*
X2767600Y2691100D01*
X2767600Y2688200D01*
X2766199Y2685300D01*
X2763299Y2680999D01*
X2748999Y2666700D01*
X2768999Y2666700D01*
X2785000Y2696799D02*
G01*
X2785000Y2666700D01*
X2785000Y2696799D02*
G01*
X2797899Y2696799D01*
X2802200Y2695399D01*
X2803599Y2693899D01*
X2805000Y2691100D01*
X2805000Y2688200D01*
X2803599Y2685300D01*
X2802200Y2683899D01*
X2797899Y2682500D01*
X2785000Y2682500D01*
X2795000Y2682500D02*
G01*
X2805000Y2666700D01*
X2814499Y2696799D02*
G01*
X2834499Y2666700D01*
X2834499Y2696799D02*
G01*
X2814499Y2666700D01*
X2845399Y2689600D02*
G01*
X2845399Y2691100D01*
X2846800Y2693899D01*
X2848299Y2695399D01*
X2851099Y2696799D01*
X2856899Y2696799D01*
X2859700Y2695399D01*
X2861199Y2693899D01*
X2862600Y2691100D01*
X2862600Y2688200D01*
X2861199Y2685300D01*
X2858299Y2680999D01*
X2843999Y2666700D01*
X2863999Y2666700D01*
X2895000Y2696799D02*
G01*
X2895000Y2666700D01*
X2885000Y2696799D02*
G01*
X2905000Y2696799D01*
X2914499Y2696799D02*
G01*
X2934499Y2666700D01*
X2934499Y2696799D02*
G01*
X2914499Y2666700D01*
X2943999Y2691100D02*
G01*
X2946800Y2692500D01*
X2951099Y2696799D01*
X2951099Y2666700D01*
X2990000Y2696799D02*
G01*
X2990000Y2666700D01*
X2990000Y2696799D02*
G01*
X3002899Y2696799D01*
X3007200Y2695399D01*
X3008599Y2693899D01*
X3010000Y2691100D01*
X3010000Y2688200D01*
X3008599Y2685300D01*
X3007200Y2683899D01*
X3002899Y2682500D01*
X2990000Y2682500D01*
X3000000Y2682500D02*
G01*
X3010000Y2666700D01*
X3019499Y2696799D02*
G01*
X3039499Y2666700D01*
X3039499Y2696799D02*
G01*
X3019499Y2666700D01*
X3048999Y2691100D02*
G01*
X3051800Y2692500D01*
X3056099Y2696799D01*
X3056099Y2666700D01*
X3110000Y2692500D02*
G01*
X3107200Y2695399D01*
X3102899Y2696799D01*
X3097200Y2696799D01*
X3092899Y2695399D01*
X3090000Y2692500D01*
X3090000Y2689600D01*
X3091400Y2686799D01*
X3092899Y2685300D01*
X3095699Y2683899D01*
X3104300Y2680999D01*
X3107200Y2679600D01*
X3108599Y2678200D01*
X3110000Y2675300D01*
X3110000Y2670999D01*
X3107200Y2668099D01*
X3102899Y2666700D01*
X3097200Y2666700D01*
X3092899Y2668099D01*
X3090000Y2670999D01*
X3119499Y2696799D02*
G01*
X3119499Y2666700D01*
X3119499Y2696799D02*
G01*
X3129499Y2696799D01*
X3133800Y2695399D01*
X3136700Y2692500D01*
X3138100Y2689600D01*
X3139499Y2685300D01*
X3139499Y2678200D01*
X3138100Y2673899D01*
X3136700Y2670999D01*
X3133800Y2668099D01*
X3129499Y2666700D01*
X3119499Y2666700D01*
X3160399Y2696799D02*
G01*
X3148999Y2666700D01*
X3160399Y2696799D02*
G01*
X3171899Y2666700D01*
X3153299Y2676700D02*
G01*
X3167600Y2676700D01*
X3215000Y2692500D02*
G01*
X3212200Y2695399D01*
X3207899Y2696799D01*
X3202200Y2696799D01*
X3197899Y2695399D01*
X3195000Y2692500D01*
X3195000Y2689600D01*
X3196400Y2686799D01*
X3197899Y2685300D01*
X3200699Y2683899D01*
X3209300Y2680999D01*
X3212200Y2679600D01*
X3213599Y2678200D01*
X3215000Y2675300D01*
X3215000Y2670999D01*
X3212200Y2668099D01*
X3207899Y2666700D01*
X3202200Y2666700D01*
X3197899Y2668099D01*
X3195000Y2670999D01*
X3246000Y2689600D02*
G01*
X3244499Y2692500D01*
X3241700Y2695399D01*
X3238800Y2696799D01*
X3233100Y2696799D01*
X3230200Y2695399D01*
X3227399Y2692500D01*
X3225900Y2689600D01*
X3224499Y2685300D01*
X3224499Y2678200D01*
X3225900Y2673899D01*
X3227399Y2670999D01*
X3230200Y2668099D01*
X3233100Y2666700D01*
X3238800Y2666700D01*
X3241700Y2668099D01*
X3244499Y2670999D01*
X3246000Y2673899D01*
X3255399Y2696799D02*
G01*
X3255399Y2666700D01*
X3255399Y2666700D02*
G01*
X3272600Y2666700D01*
X2220000Y2701799D02*
G01*
X2220000Y2671700D01*
X2210000Y2701799D02*
G01*
X2230000Y2701799D01*
X2239499Y2701799D02*
G01*
X2259499Y2671700D01*
X2259499Y2701799D02*
G01*
X2239499Y2671700D01*
X2305000Y2701799D02*
G01*
X2305000Y2671700D01*
X2305000Y2701799D02*
G01*
X2317899Y2701799D01*
X2322200Y2700399D01*
X2323599Y2698899D01*
X2325000Y2696100D01*
X2325000Y2693200D01*
X2323599Y2690300D01*
X2322200Y2688899D01*
X2317899Y2687500D01*
X2305000Y2687500D01*
X2315000Y2687500D02*
G01*
X2325000Y2671700D01*
X2334499Y2701799D02*
G01*
X2354499Y2671700D01*
X2354499Y2701799D02*
G01*
X2334499Y2671700D01*
D34*
X1595399Y1250300D02*
G01*
X1575000Y1221700D01*
X1605600Y1221700D01*
X1595399Y1250300D02*
G01*
X1595399Y1207399D01*
X1647600Y1250300D02*
G01*
X1627200Y1207399D01*
X1619099Y1250300D02*
G01*
X1647600Y1250300D01*
X1673299Y1250300D02*
G01*
X1667200Y1248200D01*
X1663100Y1242100D01*
X1661099Y1231900D01*
X1661099Y1225799D01*
X1663100Y1215599D01*
X1667200Y1209499D01*
X1673299Y1207399D01*
X1677399Y1207399D01*
X1683500Y1209499D01*
X1687600Y1215599D01*
X1689700Y1225799D01*
X1689700Y1231900D01*
X1687600Y1242100D01*
X1683500Y1248200D01*
X1677399Y1250300D01*
X1673299Y1250300D01*
X1703100Y1235999D02*
G01*
X1703100Y1215599D01*
X1705200Y1209499D01*
X1709200Y1207399D01*
X1715399Y1207399D01*
X1719399Y1209499D01*
X1725600Y1215599D01*
X1725600Y1235999D02*
G01*
X1725600Y1207399D01*
X1738999Y1250300D02*
G01*
X1738999Y1207399D01*
X1738999Y1250300D02*
G01*
X1765500Y1250300D01*
X1738999Y1229899D02*
G01*
X1755299Y1229899D01*
D32*
X1466800Y2765799D02*
G01*
X1465100Y2769400D01*
X1461499Y2772899D01*
X1457899Y2774699D01*
X1450699Y2774699D01*
X1447200Y2772899D01*
X1443599Y2769400D01*
X1441800Y2765799D01*
X1440000Y2760399D01*
X1440000Y2751500D01*
X1441800Y2746100D01*
X1443599Y2742500D01*
X1447200Y2738899D01*
X1450699Y2737100D01*
X1457899Y2737100D01*
X1461499Y2738899D01*
X1465100Y2742500D01*
X1466800Y2746100D01*
X1466800Y2751500D01*
X1457899Y2751500D02*
G01*
X1466800Y2751500D01*
X1478699Y2774699D02*
G01*
X1478699Y2737100D01*
X1478699Y2774699D02*
G01*
X1503699Y2737100D01*
X1503699Y2774699D02*
G01*
X1503699Y2737100D01*
X1515500Y2774699D02*
G01*
X1515500Y2737100D01*
X1515500Y2774699D02*
G01*
X1528000Y2774699D01*
X1533400Y2772899D01*
X1536999Y2769400D01*
X1538800Y2765799D01*
X1540600Y2760399D01*
X1540600Y2751500D01*
X1538800Y2746100D01*
X1536999Y2742500D01*
X1533400Y2738899D01*
X1528000Y2737100D01*
X1515500Y2737100D01*
X1417500Y1619699D02*
G01*
X1417500Y1582100D01*
X1405000Y1619699D02*
G01*
X1430100Y1619699D01*
X1441899Y1619699D02*
G01*
X1443699Y1617899D01*
X1445399Y1619699D01*
X1443699Y1621500D01*
X1441899Y1619699D01*
X1443699Y1607199D02*
G01*
X1443699Y1582100D01*
X1457299Y1619699D02*
G01*
X1457299Y1582100D01*
X1474399Y1619699D02*
G01*
X1474399Y1589299D01*
X1476199Y1583899D01*
X1479799Y1582100D01*
X1483400Y1582100D01*
X1469099Y1607199D02*
G01*
X1481599Y1607199D01*
D35*
X269600Y2605000D02*
G01*
X302200Y2614299D01*
X269600Y2623600D02*
G01*
X302200Y2614299D01*
X269600Y2623600D02*
G01*
X302200Y2632899D01*
X269600Y2642199D02*
G01*
X302200Y2632899D01*
X269600Y2657600D02*
G01*
X302200Y2666900D01*
X269600Y2676199D02*
G01*
X302200Y2666900D01*
X269600Y2676199D02*
G01*
X302200Y2685500D01*
X269600Y2694800D02*
G01*
X302200Y2685500D01*
X269600Y2710200D02*
G01*
X302200Y2719499D01*
X269600Y2728800D02*
G01*
X302200Y2719499D01*
X269600Y2728800D02*
G01*
X302200Y2738099D01*
X269600Y2747399D02*
G01*
X302200Y2738099D01*
X290600Y2765100D02*
G01*
X292899Y2762700D01*
X295200Y2765100D01*
X292899Y2767399D01*
X290600Y2765100D01*
X253400Y2782700D02*
G01*
X302200Y2782700D01*
X253400Y2815300D02*
G01*
X302200Y2815300D01*
X276599Y2782700D02*
G01*
X276599Y2815300D01*
X269600Y2842300D02*
G01*
X271999Y2837600D01*
X276599Y2833000D01*
X283599Y2830700D01*
X288199Y2830700D01*
X295200Y2833000D01*
X299899Y2837600D01*
X302200Y2842300D01*
X302200Y2849299D01*
X299899Y2853899D01*
X295200Y2858600D01*
X288199Y2860900D01*
X283599Y2860900D01*
X276599Y2858600D01*
X271999Y2853899D01*
X269600Y2849299D01*
X269600Y2842300D01*
X269600Y2876300D02*
G01*
X302200Y2885599D01*
X269600Y2894899D02*
G01*
X302200Y2885599D01*
X269600Y2894899D02*
G01*
X302200Y2904200D01*
X269600Y2913499D02*
G01*
X302200Y2904200D01*
X253400Y2945100D02*
G01*
X302200Y2945100D01*
X253400Y2928800D02*
G01*
X253400Y2961399D01*
X269600Y2988400D02*
G01*
X271999Y2983699D01*
X276599Y2979099D01*
X283599Y2976799D01*
X288199Y2976799D01*
X295200Y2979099D01*
X299899Y2983699D01*
X302200Y2988400D01*
X302200Y2995399D01*
X299899Y3000000D01*
X295200Y3004699D01*
X288199Y3006999D01*
X283599Y3006999D01*
X276599Y3004699D01*
X271999Y3000000D01*
X269600Y2995399D01*
X269600Y2988400D01*
X253400Y3022399D02*
G01*
X302200Y3022399D01*
X253400Y3022399D02*
G01*
X302200Y3040999D01*
X253400Y3059600D02*
G01*
X302200Y3040999D01*
X253400Y3059600D02*
G01*
X302200Y3059600D01*
X283599Y3074899D02*
G01*
X283599Y3102899D01*
X278900Y3102899D01*
X274300Y3100500D01*
X271999Y3098200D01*
X269600Y3093499D01*
X269600Y3086599D01*
X271999Y3081900D01*
X276599Y3077300D01*
X283599Y3074899D01*
X288199Y3074899D01*
X295200Y3077300D01*
X299899Y3081900D01*
X302200Y3086599D01*
X302200Y3093499D01*
X299899Y3098200D01*
X295200Y3102899D01*
X276599Y3146100D02*
G01*
X271999Y3141500D01*
X269600Y3136799D01*
X269600Y3129800D01*
X271999Y3125200D01*
X276599Y3120500D01*
X283599Y3118200D01*
X288199Y3118200D01*
X295200Y3120500D01*
X299899Y3125200D01*
X302200Y3129800D01*
X302200Y3136799D01*
X299899Y3141500D01*
X295200Y3146100D01*
X253400Y3161500D02*
G01*
X302200Y3161500D01*
X278900Y3161500D02*
G01*
X271999Y3168499D01*
X269600Y3173099D01*
X269600Y3180100D01*
X271999Y3184699D01*
X278900Y3187100D01*
X302200Y3187100D01*
X269600Y3230300D02*
G01*
X302200Y3230300D01*
X276599Y3230300D02*
G01*
X271999Y3225700D01*
X269600Y3220999D01*
X269600Y3214099D01*
X271999Y3209400D01*
X276599Y3204699D01*
X283599Y3202399D01*
X288199Y3202399D01*
X295200Y3204699D01*
X299899Y3209400D01*
X302200Y3214099D01*
X302200Y3220999D01*
X299899Y3225700D01*
X295200Y3230300D01*
X253400Y3252700D02*
G01*
X292899Y3252700D01*
X299899Y3255000D01*
X302200Y3259699D01*
X302200Y3264299D01*
X269600Y3245700D02*
G01*
X269600Y3261999D01*
X269600Y3279699D02*
G01*
X302200Y3279699D01*
X283599Y3279699D02*
G01*
X276599Y3281999D01*
X271999Y3286599D01*
X269600Y3291300D01*
X269600Y3298299D01*
X269600Y3325300D02*
G01*
X271999Y3320599D01*
X276599Y3315999D01*
X283599Y3313600D01*
X288199Y3313600D01*
X295200Y3315999D01*
X299899Y3320599D01*
X302200Y3325300D01*
X302200Y3332199D01*
X299899Y3336900D01*
X295200Y3341500D01*
X288199Y3343899D01*
X283599Y3343899D01*
X276599Y3341500D01*
X271999Y3336900D01*
X269600Y3332199D01*
X269600Y3325300D01*
X269600Y3359200D02*
G01*
X302200Y3359200D01*
X278900Y3359200D02*
G01*
X271999Y3366199D01*
X269600Y3370900D01*
X269600Y3377800D01*
X271999Y3382500D01*
X278900Y3384800D01*
X302200Y3384800D01*
X253400Y3400200D02*
G01*
X255700Y3402500D01*
X253400Y3404800D01*
X250999Y3402500D01*
X253400Y3400200D01*
X269600Y3402500D02*
G01*
X302200Y3402500D01*
X276599Y3448099D02*
G01*
X271999Y3443400D01*
X269600Y3438800D01*
X269600Y3431799D01*
X271999Y3427199D01*
X276599Y3422500D01*
X283599Y3420200D01*
X288199Y3420200D01*
X295200Y3422500D01*
X299899Y3427199D01*
X302200Y3431799D01*
X302200Y3438800D01*
X299899Y3443400D01*
X295200Y3448099D01*
X276599Y3489000D02*
G01*
X271999Y3486700D01*
X269600Y3479699D01*
X269600Y3472800D01*
X271999Y3465799D01*
X276599Y3463400D01*
X281300Y3465799D01*
X283599Y3470399D01*
X285900Y3482100D01*
X288199Y3486700D01*
X292899Y3489000D01*
X295200Y3489000D01*
X299899Y3486700D01*
X302200Y3479699D01*
X302200Y3472800D01*
X299899Y3465799D01*
X295200Y3463400D01*
X290600Y3506700D02*
G01*
X292899Y3504400D01*
X295200Y3506700D01*
X292899Y3509000D01*
X290600Y3506700D01*
X276599Y3552300D02*
G01*
X271999Y3547700D01*
X269600Y3543000D01*
X269600Y3535999D01*
X271999Y3531399D01*
X276599Y3526700D01*
X283599Y3524400D01*
X288199Y3524400D01*
X295200Y3526700D01*
X299899Y3531399D01*
X302200Y3535999D01*
X302200Y3543000D01*
X299899Y3547700D01*
X295200Y3552300D01*
X269600Y3579299D02*
G01*
X271999Y3574600D01*
X276599Y3570000D01*
X283599Y3567700D01*
X288199Y3567700D01*
X295200Y3570000D01*
X299899Y3574600D01*
X302200Y3579299D01*
X302200Y3586300D01*
X299899Y3590900D01*
X295200Y3595599D01*
X288199Y3597899D01*
X283599Y3597899D01*
X276599Y3595599D01*
X271999Y3590900D01*
X269600Y3586300D01*
X269600Y3579299D01*
X269600Y3613299D02*
G01*
X302200Y3613299D01*
X278900Y3613299D02*
G01*
X271999Y3620200D01*
X269600Y3624899D01*
X269600Y3631900D01*
X271999Y3636500D01*
X278900Y3638899D01*
X302200Y3638899D01*
X278900Y3638899D02*
G01*
X271999Y3645799D01*
X269600Y3650500D01*
X269600Y3657500D01*
X271999Y3662100D01*
X278900Y3664400D01*
X302200Y3664400D01*
D30*
X3642200Y2956900D02*
G01*
X3640100Y2961199D01*
X3635799Y2965500D01*
X3631499Y2967700D01*
X3622899Y2967700D01*
X3618599Y2965500D01*
X3614300Y2961199D01*
X3612100Y2956900D01*
X3610000Y2950500D01*
X3610000Y2939800D01*
X3612100Y2933299D01*
X3614300Y2929000D01*
X3618599Y2924699D01*
X3622899Y2922600D01*
X3631499Y2922600D01*
X3635799Y2924699D01*
X3640100Y2929000D01*
X3642200Y2933299D01*
X3642200Y2939800D01*
X3631499Y2939800D02*
G01*
X3642200Y2939800D01*
X3656400Y2967700D02*
G01*
X3656400Y2922600D01*
X3656400Y2967700D02*
G01*
X3675699Y2967700D01*
X3682200Y2965500D01*
X3684300Y2963400D01*
X3686400Y2959099D01*
X3686400Y2952600D01*
X3684300Y2948299D01*
X3682200Y2946199D01*
X3675699Y2944099D01*
X3656400Y2944099D01*
X3730699Y2961199D02*
G01*
X3726400Y2965500D01*
X3719899Y2967700D01*
X3711400Y2967700D01*
X3704899Y2965500D01*
X3700600Y2961199D01*
X3700600Y2956900D01*
X3702799Y2952600D01*
X3704899Y2950500D01*
X3709200Y2948299D01*
X3722100Y2944099D01*
X3726400Y2941900D01*
X3728500Y2939800D01*
X3730699Y2935500D01*
X3730699Y2929000D01*
X3726400Y2924699D01*
X3719899Y2922600D01*
X3711400Y2922600D01*
X3704899Y2924699D01*
X3700600Y2929000D01*
X3890198Y2935799D02*
G01*
X3890198Y2901900D01*
X3890198Y2935799D02*
G01*
X3904697Y2935799D01*
X3909498Y2934099D01*
X3911098Y2932500D01*
X3912698Y2929299D01*
X3912698Y2926100D01*
X3911098Y2922899D01*
X3909498Y2921300D01*
X3904697Y2919600D01*
X3890198Y2919600D01*
X3901498Y2919600D02*
G01*
X3912698Y2901900D01*
X3923397Y2935799D02*
G01*
X3945897Y2901900D01*
X3945897Y2935799D02*
G01*
X3923397Y2901900D01*
X3901498Y2810799D02*
G01*
X3901498Y2776900D01*
X3890198Y2810799D02*
G01*
X3912698Y2810799D01*
X3923397Y2810799D02*
G01*
X3945897Y2776900D01*
X3945897Y2810799D02*
G01*
X3923397Y2776900D01*
X3914398Y2702700D02*
G01*
X3912698Y2705900D01*
X3909498Y2709099D01*
X3906297Y2710799D01*
X3899898Y2710799D01*
X3896598Y2709099D01*
X3893397Y2705900D01*
X3891797Y2702700D01*
X3890198Y2697899D01*
X3890198Y2689800D01*
X3891797Y2685000D01*
X3893397Y2681799D01*
X3896598Y2678499D01*
X3899898Y2676900D01*
X3906297Y2676900D01*
X3909498Y2678499D01*
X3912698Y2681799D01*
X3914398Y2685000D01*
X3914398Y2689800D01*
X3906297Y2689800D02*
G01*
X3914398Y2689800D01*
X3924997Y2710799D02*
G01*
X3924997Y2676900D01*
X3924997Y2710799D02*
G01*
X3947497Y2676900D01*
X3947497Y2710799D02*
G01*
X3947497Y2676900D01*
X3958198Y2710799D02*
G01*
X3958198Y2676900D01*
X3958198Y2710799D02*
G01*
X3969398Y2710799D01*
X3974297Y2709099D01*
X3977497Y2705900D01*
X3979098Y2702700D01*
X3980698Y2697899D01*
X3980698Y2689800D01*
X3979098Y2685000D01*
X3977497Y2681799D01*
X3974297Y2678499D01*
X3969398Y2676900D01*
X3958198Y2676900D01*
X3890198Y2605799D02*
G01*
X3903098Y2571900D01*
X3915997Y2605799D02*
G01*
X3903098Y2571900D01*
X3950798Y2597700D02*
G01*
X3949098Y2600900D01*
X3945897Y2604099D01*
X3942698Y2605799D01*
X3936297Y2605799D01*
X3932997Y2604099D01*
X3929798Y2600900D01*
X3928198Y2597700D01*
X3926598Y2592899D01*
X3926598Y2584800D01*
X3928198Y2580000D01*
X3929798Y2576799D01*
X3932997Y2573499D01*
X3936297Y2571900D01*
X3942698Y2571900D01*
X3945897Y2573499D01*
X3949098Y2576799D01*
X3950798Y2580000D01*
X3985497Y2597700D02*
G01*
X3983897Y2600900D01*
X3980698Y2604099D01*
X3977497Y2605799D01*
X3971098Y2605799D01*
X3967798Y2604099D01*
X3964597Y2600900D01*
X3962997Y2597700D01*
X3961397Y2592899D01*
X3961397Y2584800D01*
X3962997Y2580000D01*
X3964597Y2576799D01*
X3967798Y2573499D01*
X3971098Y2571900D01*
X3977497Y2571900D01*
X3980698Y2573499D01*
X3983897Y2576799D01*
X3985497Y2580000D01*
X3752200Y2521900D02*
G01*
X3750100Y2526199D01*
X3745799Y2530500D01*
X3741499Y2532700D01*
X3732899Y2532700D01*
X3728599Y2530500D01*
X3724300Y2526199D01*
X3722100Y2521900D01*
X3720000Y2515500D01*
X3720000Y2504800D01*
X3722100Y2498299D01*
X3724300Y2494000D01*
X3728599Y2489699D01*
X3732899Y2487600D01*
X3741499Y2487600D01*
X3745799Y2489699D01*
X3750100Y2494000D01*
X3752200Y2498299D01*
X3777100Y2517600D02*
G01*
X3772799Y2515500D01*
X3768500Y2511199D01*
X3766400Y2504800D01*
X3766400Y2500500D01*
X3768500Y2494000D01*
X3772799Y2489699D01*
X3777100Y2487600D01*
X3783599Y2487600D01*
X3787899Y2489699D01*
X3792200Y2494000D01*
X3794300Y2500500D01*
X3794300Y2504800D01*
X3792200Y2511199D01*
X3787899Y2515500D01*
X3783599Y2517600D01*
X3777100Y2517600D01*
X3808500Y2517600D02*
G01*
X3808500Y2487600D01*
X3808500Y2509099D02*
G01*
X3814899Y2515500D01*
X3819200Y2517600D01*
X3825699Y2517600D01*
X3829899Y2515500D01*
X3832100Y2509099D01*
X3832100Y2487600D01*
X3832100Y2509099D02*
G01*
X3838500Y2515500D01*
X3842799Y2517600D01*
X3849300Y2517600D01*
X3853599Y2515500D01*
X3855699Y2509099D01*
X3855699Y2487600D01*
X3869899Y2517600D02*
G01*
X3869899Y2472500D01*
X3869899Y2511199D02*
G01*
X3874200Y2515500D01*
X3878500Y2517600D01*
X3884899Y2517600D01*
X3889200Y2515500D01*
X3893500Y2511199D01*
X3895699Y2504800D01*
X3895699Y2500500D01*
X3893500Y2494000D01*
X3889200Y2489699D01*
X3884899Y2487600D01*
X3878500Y2487600D01*
X3874200Y2489699D01*
X3869899Y2494000D01*
X3935600Y2517600D02*
G01*
X3935600Y2487600D01*
X3935600Y2511199D02*
G01*
X3931300Y2515500D01*
X3926999Y2517600D01*
X3920600Y2517600D01*
X3916300Y2515500D01*
X3911999Y2511199D01*
X3909799Y2504800D01*
X3909799Y2500500D01*
X3911999Y2494000D01*
X3916300Y2489699D01*
X3920600Y2487600D01*
X3926999Y2487600D01*
X3931300Y2489699D01*
X3935600Y2494000D01*
X3973400Y2511199D02*
G01*
X3971300Y2515500D01*
X3964799Y2517600D01*
X3958400Y2517600D01*
X3951899Y2515500D01*
X3949799Y2511199D01*
X3951899Y2506900D01*
X3956199Y2504800D01*
X3966999Y2502600D01*
X3971300Y2500500D01*
X3973400Y2496199D01*
X3973400Y2494000D01*
X3971300Y2489699D01*
X3964799Y2487600D01*
X3958400Y2487600D01*
X3951899Y2489699D01*
X3949799Y2494000D01*
X4011199Y2511199D02*
G01*
X4008999Y2515500D01*
X4002600Y2517600D01*
X3996199Y2517600D01*
X3989700Y2515500D01*
X3987600Y2511199D01*
X3989700Y2506900D01*
X3993999Y2504800D01*
X4004799Y2502600D01*
X4008999Y2500500D01*
X4011199Y2496199D01*
X4011199Y2494000D01*
X4008999Y2489699D01*
X4002600Y2487600D01*
X3996199Y2487600D01*
X3989700Y2489699D01*
X3987600Y2494000D01*
X3917500Y2400900D02*
G01*
X3914300Y2404099D01*
X3909499Y2405799D01*
X3903100Y2405799D01*
X3898199Y2404099D01*
X3895000Y2400900D01*
X3895000Y2397700D01*
X3896599Y2394499D01*
X3898199Y2392899D01*
X3901400Y2391300D01*
X3911099Y2388000D01*
X3914300Y2386399D01*
X3915900Y2384800D01*
X3917500Y2381599D01*
X3917500Y2376799D01*
X3914300Y2373499D01*
X3909499Y2371900D01*
X3903100Y2371900D01*
X3898199Y2373499D01*
X3895000Y2376799D01*
X3928199Y2405799D02*
G01*
X3928199Y2371900D01*
X3928199Y2405799D02*
G01*
X3939499Y2405799D01*
X3944300Y2404099D01*
X3947500Y2400900D01*
X3949099Y2397700D01*
X3950699Y2392899D01*
X3950699Y2384800D01*
X3949099Y2380000D01*
X3947500Y2376799D01*
X3944300Y2373499D01*
X3939499Y2371900D01*
X3928199Y2371900D01*
X3974200Y2405799D02*
G01*
X3961400Y2371900D01*
X3974200Y2405799D02*
G01*
X3987100Y2371900D01*
X3966199Y2383200D02*
G01*
X3982299Y2383200D01*
X3917500Y2275900D02*
G01*
X3914300Y2279099D01*
X3909499Y2280799D01*
X3903100Y2280799D01*
X3898199Y2279099D01*
X3895000Y2275900D01*
X3895000Y2272700D01*
X3896599Y2269499D01*
X3898199Y2267899D01*
X3901400Y2266300D01*
X3911099Y2263000D01*
X3914300Y2261399D01*
X3915900Y2259800D01*
X3917500Y2256599D01*
X3917500Y2251799D01*
X3914300Y2248499D01*
X3909499Y2246900D01*
X3903100Y2246900D01*
X3898199Y2248499D01*
X3895000Y2251799D01*
X3952299Y2272700D02*
G01*
X3950699Y2275900D01*
X3947500Y2279099D01*
X3944300Y2280799D01*
X3937799Y2280799D01*
X3934600Y2279099D01*
X3931400Y2275900D01*
X3929799Y2272700D01*
X3928199Y2267899D01*
X3928199Y2259800D01*
X3929799Y2255000D01*
X3931400Y2251799D01*
X3934600Y2248499D01*
X3937799Y2246900D01*
X3944300Y2246900D01*
X3947500Y2248499D01*
X3950699Y2251799D01*
X3952299Y2255000D01*
X3963000Y2280799D02*
G01*
X3963000Y2246900D01*
X3963000Y2246900D02*
G01*
X3982299Y2246900D01*
X3919200Y2172700D02*
G01*
X3917500Y2175900D01*
X3914300Y2179099D01*
X3911099Y2180799D01*
X3904700Y2180799D01*
X3901400Y2179099D01*
X3898199Y2175900D01*
X3896599Y2172700D01*
X3895000Y2167899D01*
X3895000Y2159800D01*
X3896599Y2155000D01*
X3898199Y2151799D01*
X3901400Y2148499D01*
X3904700Y2146900D01*
X3911099Y2146900D01*
X3914300Y2148499D01*
X3917500Y2151799D01*
X3919200Y2155000D01*
X3919200Y2159800D01*
X3911099Y2159800D02*
G01*
X3919200Y2159800D01*
X3929799Y2180799D02*
G01*
X3929799Y2146900D01*
X3929799Y2180799D02*
G01*
X3952299Y2146900D01*
X3952299Y2180799D02*
G01*
X3952299Y2146900D01*
X3963000Y2180799D02*
G01*
X3963000Y2146900D01*
X3963000Y2180799D02*
G01*
X3974200Y2180799D01*
X3979099Y2179099D01*
X3982299Y2175900D01*
X3983900Y2172700D01*
X3985500Y2167899D01*
X3985500Y2159800D01*
X3983900Y2155000D01*
X3982299Y2151799D01*
X3979099Y2148499D01*
X3974200Y2146900D01*
X3963000Y2146900D01*
X3895000Y2075799D02*
G01*
X3907899Y2041900D01*
X3920799Y2075799D02*
G01*
X3907899Y2041900D01*
X3955600Y2067699D02*
G01*
X3953900Y2070900D01*
X3950699Y2074099D01*
X3947500Y2075799D01*
X3941099Y2075799D01*
X3937799Y2074099D01*
X3934600Y2070900D01*
X3933000Y2067699D01*
X3931400Y2062899D01*
X3931400Y2054800D01*
X3933000Y2050000D01*
X3934600Y2046799D01*
X3937799Y2043499D01*
X3941099Y2041900D01*
X3947500Y2041900D01*
X3950699Y2043499D01*
X3953900Y2046799D01*
X3955600Y2050000D01*
X3990299Y2067699D02*
G01*
X3988699Y2070900D01*
X3985500Y2074099D01*
X3982299Y2075799D01*
X3975900Y2075799D01*
X3972600Y2074099D01*
X3969399Y2070900D01*
X3967799Y2067699D01*
X3966199Y2062899D01*
X3966199Y2054800D01*
X3967799Y2050000D01*
X3969399Y2046799D01*
X3972600Y2043499D01*
X3975900Y2041900D01*
X3982299Y2041900D01*
X3985500Y2043499D01*
X3988699Y2046799D01*
X3990299Y2050000D01*
D35*
X3645000Y3581500D02*
G01*
X3645000Y3513899D01*
X3645000Y3581500D02*
G01*
X3670799Y3513899D01*
X3696499Y3581500D02*
G01*
X3670799Y3513899D01*
X3696499Y3581500D02*
G01*
X3696499Y3513899D01*
X3756499Y3559000D02*
G01*
X3756499Y3513899D01*
X3756499Y3549299D02*
G01*
X3750000Y3555700D01*
X3743599Y3559000D01*
X3733900Y3559000D01*
X3727500Y3555700D01*
X3721000Y3549299D01*
X3717799Y3539600D01*
X3717799Y3533200D01*
X3721000Y3523499D01*
X3727500Y3517100D01*
X3733900Y3513899D01*
X3743599Y3513899D01*
X3750000Y3517100D01*
X3756499Y3523499D01*
X3777700Y3559000D02*
G01*
X3777700Y3513899D01*
X3777700Y3539600D02*
G01*
X3780900Y3549299D01*
X3787399Y3555700D01*
X3793800Y3559000D01*
X3803500Y3559000D01*
X3860200Y3549299D02*
G01*
X3856999Y3555700D01*
X3847299Y3559000D01*
X3837600Y3559000D01*
X3828000Y3555700D01*
X3824700Y3549299D01*
X3828000Y3542899D01*
X3834399Y3539600D01*
X3850500Y3536399D01*
X3856999Y3533200D01*
X3860200Y3526799D01*
X3860200Y3523499D01*
X3856999Y3517100D01*
X3847299Y3513899D01*
X3837600Y3513899D01*
X3828000Y3517100D01*
X3824700Y3523499D01*
X3615649Y3406500D02*
G01*
X3615649Y3338899D01*
X3615649Y3406500D02*
G01*
X3644650Y3406500D01*
X3654350Y3403299D01*
X3657550Y3400100D01*
X3660749Y3393600D01*
X3660749Y3387199D01*
X3657550Y3380700D01*
X3654350Y3377500D01*
X3644650Y3374299D01*
X3615649Y3374299D01*
X3638149Y3374299D02*
G01*
X3660749Y3338899D01*
X3698149Y3384000D02*
G01*
X3691649Y3380700D01*
X3685249Y3374299D01*
X3682049Y3364600D01*
X3682049Y3358200D01*
X3685249Y3348499D01*
X3691649Y3342100D01*
X3698149Y3338899D01*
X3707749Y3338899D01*
X3714250Y3342100D01*
X3720649Y3348499D01*
X3723850Y3358200D01*
X3723850Y3364600D01*
X3720649Y3374299D01*
X3714250Y3380700D01*
X3707749Y3384000D01*
X3698149Y3384000D01*
X3745150Y3384000D02*
G01*
X3764449Y3338899D01*
X3783750Y3384000D02*
G01*
X3764449Y3338899D01*
X3805050Y3364600D02*
G01*
X3843750Y3364600D01*
X3843750Y3371100D01*
X3840450Y3377500D01*
X3837250Y3380700D01*
X3830850Y3384000D01*
X3821149Y3384000D01*
X3814750Y3380700D01*
X3808249Y3374299D01*
X3805050Y3364600D01*
X3805050Y3358200D01*
X3808249Y3348499D01*
X3814750Y3342100D01*
X3821149Y3338899D01*
X3830850Y3338899D01*
X3837250Y3342100D01*
X3843750Y3348499D01*
X3864949Y3384000D02*
G01*
X3864949Y3338899D01*
X3864949Y3364600D02*
G01*
X3868149Y3374299D01*
X3874650Y3380700D01*
X3881049Y3384000D01*
X3890749Y3384000D01*
X3683599Y3686500D02*
G01*
X3683599Y3618899D01*
X3683599Y3686500D02*
G01*
X3706099Y3686500D01*
X3715799Y3683299D01*
X3722299Y3676799D01*
X3725500Y3670399D01*
X3728699Y3660700D01*
X3728699Y3644600D01*
X3725500Y3635000D01*
X3722299Y3628499D01*
X3715799Y3622100D01*
X3706099Y3618899D01*
X3683599Y3618899D01*
X3750000Y3686500D02*
G01*
X3750000Y3618899D01*
X3771199Y3686500D02*
G01*
X3796999Y3654299D01*
X3796999Y3618899D01*
X3822799Y3686500D02*
G01*
X3796999Y3654299D01*
D30*
X3629300Y3055799D02*
G01*
X3613199Y3055799D01*
X3611599Y3041300D01*
X3613199Y3042899D01*
X3618100Y3044499D01*
X3622899Y3044499D01*
X3627700Y3042899D01*
X3630900Y3039600D01*
X3632500Y3034800D01*
X3632500Y3031599D01*
X3630900Y3026799D01*
X3627700Y3023499D01*
X3622899Y3021900D01*
X3618100Y3021900D01*
X3613199Y3023499D01*
X3611599Y3025200D01*
X3610000Y3028400D01*
X3643199Y3055799D02*
G01*
X3656099Y3021900D01*
X3668900Y3055799D02*
G01*
X3656099Y3021900D01*
X3859200Y3047700D02*
G01*
X3857500Y3050900D01*
X3854300Y3054099D01*
X3851099Y3055799D01*
X3844700Y3055799D01*
X3841400Y3054099D01*
X3838199Y3050900D01*
X3836599Y3047700D01*
X3835000Y3042899D01*
X3835000Y3034800D01*
X3836599Y3030000D01*
X3838199Y3026799D01*
X3841400Y3023499D01*
X3844700Y3021900D01*
X3851099Y3021900D01*
X3854300Y3023499D01*
X3857500Y3026799D01*
X3859200Y3030000D01*
X3859200Y3034800D01*
X3851099Y3034800D02*
G01*
X3859200Y3034800D01*
X3869799Y3055799D02*
G01*
X3869799Y3021900D01*
X3869799Y3055799D02*
G01*
X3892299Y3021900D01*
X3892299Y3055799D02*
G01*
X3892299Y3021900D01*
X3903000Y3055799D02*
G01*
X3903000Y3021900D01*
X3903000Y3055799D02*
G01*
X3914200Y3055799D01*
X3919099Y3054099D01*
X3922299Y3050900D01*
X3923900Y3047700D01*
X3925500Y3042899D01*
X3925500Y3034800D01*
X3923900Y3030000D01*
X3922299Y3026799D01*
X3919099Y3023499D01*
X3914200Y3021900D01*
X3903000Y3021900D01*
X3690000Y3060799D02*
G01*
X3690000Y3026900D01*
X3690000Y3060799D02*
G01*
X3701300Y3060799D01*
X3706099Y3059099D01*
X3709300Y3055900D01*
X3710900Y3052700D01*
X3712500Y3047899D01*
X3712500Y3039800D01*
X3710900Y3035000D01*
X3709300Y3031799D01*
X3706099Y3028499D01*
X3701300Y3026900D01*
X3690000Y3026900D01*
X3742500Y3049499D02*
G01*
X3742500Y3026900D01*
X3742500Y3044600D02*
G01*
X3739300Y3047899D01*
X3736099Y3049499D01*
X3731199Y3049499D01*
X3728000Y3047899D01*
X3724799Y3044600D01*
X3723199Y3039800D01*
X3723199Y3036599D01*
X3724799Y3031799D01*
X3728000Y3028499D01*
X3731199Y3026900D01*
X3736099Y3026900D01*
X3739300Y3028499D01*
X3742500Y3031799D01*
X3758000Y3060799D02*
G01*
X3758000Y3033400D01*
X3759600Y3028499D01*
X3762799Y3026900D01*
X3766000Y3026900D01*
X3753100Y3049499D02*
G01*
X3764399Y3049499D01*
X3796000Y3049499D02*
G01*
X3796000Y3026900D01*
X3796000Y3044600D02*
G01*
X3792799Y3047899D01*
X3789499Y3049499D01*
X3784700Y3049499D01*
X3781499Y3047899D01*
X3778299Y3044600D01*
X3776599Y3039800D01*
X3776599Y3036599D01*
X3778299Y3031799D01*
X3781499Y3028499D01*
X3784700Y3026900D01*
X3789499Y3026900D01*
X3792799Y3028499D01*
X3796000Y3031799D01*
X3720000Y3257700D02*
G01*
X3720000Y3212600D01*
X3720000Y3257700D02*
G01*
X3735000Y3257700D01*
X3741499Y3255500D01*
X3745799Y3251199D01*
X3747899Y3246900D01*
X3750100Y3240500D01*
X3750100Y3229800D01*
X3747899Y3223299D01*
X3745799Y3219000D01*
X3741499Y3214699D01*
X3735000Y3212600D01*
X3720000Y3212600D01*
X3764200Y3257700D02*
G01*
X3764200Y3212600D01*
X3794300Y3257700D02*
G01*
X3794300Y3212600D01*
X3764200Y3236199D02*
G01*
X3794300Y3236199D01*
X3823500Y3257700D02*
G01*
X3823500Y3212600D01*
X3808500Y3257700D02*
G01*
X3838500Y3257700D01*
X3854899Y3246900D02*
G01*
X3854899Y3249099D01*
X3856999Y3253400D01*
X3859200Y3255500D01*
X3863500Y3257700D01*
X3871999Y3257700D01*
X3876300Y3255500D01*
X3878500Y3253400D01*
X3880600Y3249099D01*
X3880600Y3244800D01*
X3878500Y3240500D01*
X3874200Y3234099D01*
X3852700Y3212600D01*
X3882799Y3212600D01*
X3899099Y3246900D02*
G01*
X3899099Y3249099D01*
X3901199Y3253400D01*
X3903400Y3255500D01*
X3907700Y3257700D01*
X3916300Y3257700D01*
X3920600Y3255500D01*
X3922700Y3253400D01*
X3924899Y3249099D01*
X3924899Y3244800D01*
X3922700Y3240500D01*
X3918400Y3234099D01*
X3896999Y3212600D01*
X3926999Y3212600D01*
D36*
X3510000Y3485399D02*
G01*
X3510000Y3471100D01*
X3526400Y3485399D02*
G01*
X3526400Y3471100D01*
X3539899Y3485399D02*
G01*
X3539899Y3442500D01*
X3539899Y3485399D02*
G01*
X3558299Y3485399D01*
X3564399Y3483400D01*
X3566499Y3481300D01*
X3568500Y3477199D01*
X3568500Y3471100D01*
X3566499Y3466999D01*
X3564399Y3465000D01*
X3558299Y3462899D01*
X3539899Y3462899D01*
X3581999Y3458800D02*
G01*
X3606499Y3458800D01*
X3606499Y3462899D01*
X3604499Y3466999D01*
X3602500Y3469000D01*
X3598400Y3471100D01*
X3592200Y3471100D01*
X3588100Y3469000D01*
X3583999Y3465000D01*
X3581999Y3458800D01*
X3581999Y3454699D01*
X3583999Y3448600D01*
X3588100Y3444499D01*
X3592200Y3442500D01*
X3598400Y3442500D01*
X3602500Y3444499D01*
X3606499Y3448600D01*
X3620000Y3471100D02*
G01*
X3620000Y3442500D01*
X3620000Y3458800D02*
G01*
X3622100Y3465000D01*
X3626199Y3469000D01*
X3630299Y3471100D01*
X3636400Y3471100D01*
X3672399Y3465000D02*
G01*
X3670399Y3469000D01*
X3664200Y3471100D01*
X3658100Y3471100D01*
X3651999Y3469000D01*
X3649899Y3465000D01*
X3651999Y3460900D01*
X3656000Y3458800D01*
X3666300Y3456799D01*
X3670399Y3454699D01*
X3672399Y3450599D01*
X3672399Y3448600D01*
X3670399Y3444499D01*
X3664200Y3442500D01*
X3658100Y3442500D01*
X3651999Y3444499D01*
X3649899Y3448600D01*
X3685900Y3458800D02*
G01*
X3710500Y3458800D01*
X3710500Y3462899D01*
X3708400Y3466999D01*
X3706400Y3469000D01*
X3702299Y3471100D01*
X3696099Y3471100D01*
X3691999Y3469000D01*
X3688000Y3465000D01*
X3685900Y3458800D01*
X3685900Y3454699D01*
X3688000Y3448600D01*
X3691999Y3444499D01*
X3696099Y3442500D01*
X3702299Y3442500D01*
X3706400Y3444499D01*
X3710500Y3448600D01*
X3723999Y3471100D02*
G01*
X3736199Y3442500D01*
X3748500Y3471100D02*
G01*
X3736199Y3442500D01*
X3761999Y3458800D02*
G01*
X3786499Y3458800D01*
X3786499Y3462899D01*
X3784499Y3466999D01*
X3782500Y3469000D01*
X3778400Y3471100D01*
X3772200Y3471100D01*
X3768100Y3469000D01*
X3763999Y3465000D01*
X3761999Y3458800D01*
X3761999Y3454699D01*
X3763999Y3448600D01*
X3768100Y3444499D01*
X3772200Y3442500D01*
X3778400Y3442500D01*
X3782500Y3444499D01*
X3786499Y3448600D01*
X3800000Y3471100D02*
G01*
X3800000Y3442500D01*
X3800000Y3458800D02*
G01*
X3802100Y3465000D01*
X3806199Y3469000D01*
X3810299Y3471100D01*
X3816400Y3471100D01*
X3854499Y3471100D02*
G01*
X3854499Y3442500D01*
X3854499Y3465000D02*
G01*
X3850399Y3469000D01*
X3846300Y3471100D01*
X3840100Y3471100D01*
X3836000Y3469000D01*
X3831999Y3465000D01*
X3829899Y3458800D01*
X3829899Y3454699D01*
X3831999Y3448600D01*
X3836000Y3444499D01*
X3840100Y3442500D01*
X3846300Y3442500D01*
X3850399Y3444499D01*
X3854499Y3448600D01*
X3868000Y3471100D02*
G01*
X3868000Y3442500D01*
X3868000Y3462899D02*
G01*
X3874099Y3469000D01*
X3878199Y3471100D01*
X3884300Y3471100D01*
X3888400Y3469000D01*
X3890500Y3462899D01*
X3890500Y3442500D01*
X3928500Y3465000D02*
G01*
X3924399Y3469000D01*
X3920299Y3471100D01*
X3914200Y3471100D01*
X3910100Y3469000D01*
X3906000Y3465000D01*
X3903999Y3458800D01*
X3903999Y3454699D01*
X3906000Y3448600D01*
X3910100Y3444499D01*
X3914200Y3442500D01*
X3920299Y3442500D01*
X3924399Y3444499D01*
X3928500Y3448600D01*
X3941999Y3458800D02*
G01*
X3966499Y3458800D01*
X3966499Y3462899D01*
X3964499Y3466999D01*
X3962500Y3469000D01*
X3958400Y3471100D01*
X3952200Y3471100D01*
X3948100Y3469000D01*
X3943999Y3465000D01*
X3941999Y3458800D01*
X3941999Y3454699D01*
X3943999Y3448600D01*
X3948100Y3444499D01*
X3952200Y3442500D01*
X3958400Y3442500D01*
X3962500Y3444499D01*
X3966499Y3448600D01*
X3980000Y3485399D02*
G01*
X3980000Y3471100D01*
X3996400Y3485399D02*
G01*
X3996400Y3471100D01*
D30*
X3552600Y3150000D02*
G01*
X3554399Y3146399D01*
X3559700Y3141100D01*
X3522100Y3141100D01*
X3559700Y3118499D02*
G01*
X3557899Y3123899D01*
X3552600Y3127500D01*
X3543599Y3129200D01*
X3538299Y3129200D01*
X3529300Y3127500D01*
X3523900Y3123899D01*
X3522100Y3118499D01*
X3522100Y3114899D01*
X3523900Y3109600D01*
X3529300Y3105999D01*
X3538299Y3104200D01*
X3543599Y3104200D01*
X3552600Y3105999D01*
X3557899Y3109600D01*
X3559700Y3114899D01*
X3559700Y3118499D01*
X3559700Y3092399D02*
G01*
X3522100Y3092399D01*
X3559700Y3067300D02*
G01*
X3534700Y3092399D01*
X3543599Y3083400D02*
G01*
X3522100Y3067300D01*
D37*
X125000Y302651D02*
G01*
X1699570Y302651D01*
X2467752Y302651D02*
G01*
X4042322Y302651D01*
X185000Y287651D02*
G01*
X125000Y302651D01*
X185000Y317651D01*
X3982322Y287651D02*
G01*
X4042322Y302651D01*
X3982322Y317651D01*
X1778699Y371700D02*
G01*
X1774099Y358099D01*
X1765000Y349000D01*
X1751400Y344499D01*
X1746800Y344499D01*
X1733199Y349000D01*
X1724099Y358099D01*
X1719600Y371700D01*
X1719600Y376300D01*
X1724099Y389899D01*
X1733199Y399000D01*
X1746800Y403600D01*
X1751400Y403600D01*
X1765000Y399000D01*
X1774099Y389899D01*
X1778699Y371700D01*
X1778699Y349000D01*
X1774099Y326300D01*
X1765000Y312699D01*
X1751400Y308099D01*
X1742299Y308099D01*
X1728699Y312699D01*
X1724099Y321700D01*
X1867799Y371700D02*
G01*
X1863199Y358099D01*
X1854099Y349000D01*
X1840500Y344499D01*
X1835900Y344499D01*
X1822299Y349000D01*
X1813199Y358099D01*
X1808699Y371700D01*
X1808699Y376300D01*
X1813199Y389899D01*
X1822299Y399000D01*
X1835900Y403600D01*
X1840500Y403600D01*
X1854099Y399000D01*
X1863199Y389899D01*
X1867799Y371700D01*
X1867799Y349000D01*
X1863199Y326300D01*
X1854099Y312699D01*
X1840500Y308099D01*
X1831400Y308099D01*
X1817799Y312699D01*
X1813199Y321700D01*
X1902299Y330799D02*
G01*
X1897799Y326300D01*
X1902299Y321700D01*
X1906800Y326300D01*
X1902299Y330799D01*
X1991400Y403600D02*
G01*
X1945900Y403600D01*
X1941400Y362699D01*
X1945900Y367199D01*
X1959600Y371700D01*
X1973199Y371700D01*
X1986800Y367199D01*
X1995900Y358099D01*
X2000500Y344499D01*
X2000500Y335399D01*
X1995900Y321700D01*
X1986800Y312699D01*
X1973199Y308099D01*
X1959600Y308099D01*
X1945900Y312699D01*
X1941400Y317199D01*
X1936800Y326300D01*
X2057799Y403600D02*
G01*
X2044099Y399000D01*
X2035000Y385399D01*
X2030500Y362699D01*
X2030500Y349000D01*
X2035000Y326300D01*
X2044099Y312699D01*
X2057799Y308099D01*
X2066800Y308099D01*
X2080500Y312699D01*
X2089600Y326300D01*
X2094099Y349000D01*
X2094099Y362699D01*
X2089600Y385399D01*
X2080500Y399000D01*
X2066800Y403600D01*
X2057799Y403600D01*
X2151400Y403600D02*
G01*
X2137799Y399000D01*
X2128699Y385399D01*
X2124099Y362699D01*
X2124099Y349000D01*
X2128699Y326300D01*
X2137799Y312699D01*
X2151400Y308099D01*
X2160500Y308099D01*
X2174099Y312699D01*
X2183199Y326300D01*
X2187799Y349000D01*
X2187799Y362699D01*
X2183199Y385399D01*
X2174099Y399000D01*
X2160500Y403600D01*
X2151400Y403600D01*
X2217799Y371700D02*
G01*
X2217799Y308099D01*
X2217799Y353600D02*
G01*
X2231400Y367199D01*
X2240500Y371700D01*
X2254099Y371700D01*
X2263199Y367199D01*
X2267799Y353600D01*
X2267799Y308099D01*
X2267799Y353600D02*
G01*
X2281400Y367199D01*
X2290500Y371700D01*
X2304099Y371700D01*
X2313199Y367199D01*
X2317799Y353600D01*
X2317799Y308099D01*
X2347799Y371700D02*
G01*
X2347799Y308099D01*
X2347799Y353600D02*
G01*
X2361400Y367199D01*
X2370500Y371700D01*
X2384099Y371700D01*
X2393199Y367199D01*
X2397799Y353600D01*
X2397799Y308099D01*
X2397799Y353600D02*
G01*
X2411400Y367199D01*
X2420500Y371700D01*
X2434099Y371700D01*
X2443199Y367199D01*
X2447799Y353600D01*
X2447799Y308099D01*
X125000Y490000D02*
G01*
X125000Y202651D01*
X4042322Y485000D02*
G01*
X4042322Y202651D01*
D36*
X938245Y2484848D02*
G01*
X936145Y2488948D01*
X932046Y2493047D01*
X928046Y2495048D01*
X919845Y2495048D01*
X915745Y2493047D01*
X911646Y2488948D01*
X909546Y2484848D01*
X907546Y2478647D01*
X907546Y2468447D01*
X909546Y2462348D01*
X911646Y2458247D01*
X915745Y2454148D01*
X919845Y2452148D01*
X928046Y2452148D01*
X932046Y2454148D01*
X936145Y2458247D01*
X938245Y2462348D01*
X953746Y2484848D02*
G01*
X953746Y2486848D01*
X955846Y2490947D01*
X957845Y2493047D01*
X961945Y2495048D01*
X970146Y2495048D01*
X974246Y2493047D01*
X976246Y2490947D01*
X978346Y2486848D01*
X978346Y2482748D01*
X976246Y2478647D01*
X972146Y2472548D01*
X951746Y2452148D01*
X980345Y2452148D01*
D31*
X986000Y2297001D02*
G01*
X986000Y2355001D01*
X1015000Y2326001D02*
G01*
X956999Y2326001D01*
X720000Y2366799D02*
G01*
X720000Y2328600D01*
X720000Y2366799D02*
G01*
X734499Y2328600D01*
X749099Y2366799D02*
G01*
X734499Y2328600D01*
X749099Y2366799D02*
G01*
X749099Y2328600D01*
X786499Y2361399D02*
G01*
X782899Y2365000D01*
X777500Y2366799D01*
X770200Y2366799D01*
X764700Y2365000D01*
X761099Y2361399D01*
X761099Y2357700D01*
X762899Y2354099D01*
X764700Y2352300D01*
X768400Y2350500D01*
X779300Y2346799D01*
X782899Y2345000D01*
X784700Y2343200D01*
X786499Y2339499D01*
X786499Y2334099D01*
X782899Y2330500D01*
X777500Y2328600D01*
X770200Y2328600D01*
X764700Y2330500D01*
X761099Y2334099D01*
X798500Y2359499D02*
G01*
X802200Y2361399D01*
X807600Y2366799D01*
X807600Y2328600D01*
X720000Y2266799D02*
G01*
X720000Y2228600D01*
X720000Y2266799D02*
G01*
X734499Y2228600D01*
X749099Y2266799D02*
G01*
X734499Y2228600D01*
X749099Y2266799D02*
G01*
X749099Y2228600D01*
X786499Y2261399D02*
G01*
X782899Y2265000D01*
X777500Y2266799D01*
X770200Y2266799D01*
X764700Y2265000D01*
X761099Y2261399D01*
X761099Y2257700D01*
X762899Y2254099D01*
X764700Y2252300D01*
X768400Y2250500D01*
X779300Y2246799D01*
X782899Y2245000D01*
X784700Y2243200D01*
X786499Y2239499D01*
X786499Y2234099D01*
X782899Y2230500D01*
X777500Y2228600D01*
X770200Y2228600D01*
X764700Y2230500D01*
X761099Y2234099D01*
X800399Y2257700D02*
G01*
X800399Y2259499D01*
X802200Y2263200D01*
X803999Y2265000D01*
X807600Y2266799D01*
X814899Y2266799D01*
X818500Y2265000D01*
X820399Y2263200D01*
X822200Y2259499D01*
X822200Y2255900D01*
X820399Y2252300D01*
X816700Y2246799D01*
X798500Y2228600D01*
X823999Y2228600D01*
X720000Y2166799D02*
G01*
X720000Y2128600D01*
X720000Y2166799D02*
G01*
X734499Y2128600D01*
X749099Y2166799D02*
G01*
X734499Y2128600D01*
X749099Y2166799D02*
G01*
X749099Y2128600D01*
X786499Y2161399D02*
G01*
X782899Y2165000D01*
X777500Y2166799D01*
X770200Y2166799D01*
X764700Y2165000D01*
X761099Y2161399D01*
X761099Y2157700D01*
X762899Y2154099D01*
X764700Y2152300D01*
X768400Y2150500D01*
X779300Y2146799D01*
X782899Y2145000D01*
X784700Y2143200D01*
X786499Y2139499D01*
X786499Y2134099D01*
X782899Y2130500D01*
X777500Y2128600D01*
X770200Y2128600D01*
X764700Y2130500D01*
X761099Y2134099D01*
X802200Y2166799D02*
G01*
X822200Y2166799D01*
X811300Y2152300D01*
X816700Y2152300D01*
X820399Y2150500D01*
X822200Y2148600D01*
X823999Y2143200D01*
X823999Y2139499D01*
X822200Y2134099D01*
X818500Y2130500D01*
X813100Y2128600D01*
X807600Y2128600D01*
X802200Y2130500D01*
X800399Y2132300D01*
X798500Y2135900D01*
X745500Y1861399D02*
G01*
X741800Y1865000D01*
X736400Y1866799D01*
X729099Y1866799D01*
X723599Y1865000D01*
X720000Y1861399D01*
X720000Y1857699D01*
X721800Y1854099D01*
X723599Y1852300D01*
X727299Y1850500D01*
X738199Y1846799D01*
X741800Y1845000D01*
X743599Y1843200D01*
X745500Y1839499D01*
X745500Y1834099D01*
X741800Y1830500D01*
X736400Y1828600D01*
X729099Y1828600D01*
X723599Y1830500D01*
X720000Y1834099D01*
X770200Y1866799D02*
G01*
X770200Y1828600D01*
X757500Y1866799D02*
G01*
X782899Y1866799D01*
X794899Y1866799D02*
G01*
X794899Y1828600D01*
X794899Y1866799D02*
G01*
X818500Y1866799D01*
X794899Y1848600D02*
G01*
X809499Y1848600D01*
X794899Y1828600D02*
G01*
X818500Y1828600D01*
X830500Y1866799D02*
G01*
X830500Y1828600D01*
X830500Y1866799D02*
G01*
X846899Y1866799D01*
X852399Y1865000D01*
X854200Y1863200D01*
X856000Y1859499D01*
X856000Y1854099D01*
X854200Y1850500D01*
X852399Y1848600D01*
X846899Y1846799D01*
X830500Y1846799D01*
X720000Y1766799D02*
G01*
X720000Y1728600D01*
X720000Y1766799D02*
G01*
X732700Y1766799D01*
X738199Y1765000D01*
X741800Y1761399D01*
X743599Y1757699D01*
X745500Y1752300D01*
X745500Y1743200D01*
X743599Y1737699D01*
X741800Y1734099D01*
X738199Y1730500D01*
X732700Y1728600D01*
X720000Y1728600D01*
X757500Y1766799D02*
G01*
X757500Y1728600D01*
X769499Y1766799D02*
G01*
X769499Y1728600D01*
X769499Y1766799D02*
G01*
X785799Y1766799D01*
X791300Y1765000D01*
X793100Y1763200D01*
X794899Y1759499D01*
X794899Y1755900D01*
X793100Y1752300D01*
X791300Y1750500D01*
X785799Y1748600D01*
X769499Y1748600D01*
X782200Y1748600D02*
G01*
X794899Y1728600D01*
X1052299Y1757699D02*
G01*
X1050500Y1761399D01*
X1046800Y1765000D01*
X1043199Y1766799D01*
X1035900Y1766799D01*
X1032299Y1765000D01*
X1028599Y1761399D01*
X1026800Y1757699D01*
X1025000Y1752300D01*
X1025000Y1743200D01*
X1026800Y1737699D01*
X1028599Y1734099D01*
X1032299Y1730500D01*
X1035900Y1728600D01*
X1043199Y1728600D01*
X1046800Y1730500D01*
X1050500Y1734099D01*
X1052299Y1737699D01*
X1052299Y1743200D01*
X1043199Y1743200D02*
G01*
X1052299Y1743200D01*
X1064300Y1766799D02*
G01*
X1064300Y1728600D01*
X1064300Y1766799D02*
G01*
X1089700Y1728600D01*
X1089700Y1766799D02*
G01*
X1089700Y1728600D01*
X1101700Y1766799D02*
G01*
X1101700Y1728600D01*
X1101700Y1766799D02*
G01*
X1114499Y1766799D01*
X1119899Y1765000D01*
X1123500Y1761399D01*
X1125399Y1757699D01*
X1127200Y1752300D01*
X1127200Y1743200D01*
X1125399Y1737699D01*
X1123500Y1734099D01*
X1119899Y1730500D01*
X1114499Y1728600D01*
X1101700Y1728600D01*
X1023203Y1866799D02*
G01*
X1037703Y1828600D01*
X1052303Y1866799D02*
G01*
X1037703Y1828600D01*
X1064303Y1866799D02*
G01*
X1064303Y1828600D01*
X1064303Y1866799D02*
G01*
X1077003Y1866799D01*
X1082502Y1865000D01*
X1086103Y1861399D01*
X1087902Y1857699D01*
X1089702Y1852300D01*
X1089702Y1843200D01*
X1087902Y1837699D01*
X1086103Y1834099D01*
X1082502Y1830500D01*
X1077003Y1828600D01*
X1064303Y1828600D01*
X1101702Y1866799D02*
G01*
X1101702Y1828600D01*
X1101702Y1866799D02*
G01*
X1114503Y1866799D01*
X1119903Y1865000D01*
X1123603Y1861399D01*
X1125402Y1857699D01*
X1127202Y1852300D01*
X1127202Y1843200D01*
X1125402Y1837699D01*
X1123603Y1834099D01*
X1119903Y1830500D01*
X1114503Y1828600D01*
X1101702Y1828600D01*
X1080703Y1959499D02*
G01*
X1084303Y1961399D01*
X1089803Y1966799D01*
X1089803Y1928600D01*
X1101803Y1966799D02*
G01*
X1101803Y1928600D01*
X1101803Y1966799D02*
G01*
X1118203Y1966799D01*
X1123603Y1965000D01*
X1125402Y1963200D01*
X1127202Y1959499D01*
X1127202Y1955900D01*
X1125402Y1952300D01*
X1123603Y1950500D01*
X1118203Y1948600D01*
X1101803Y1948600D02*
G01*
X1118203Y1948600D01*
X1123603Y1946799D01*
X1125402Y1945000D01*
X1127202Y1941399D01*
X1127202Y1935900D01*
X1125402Y1932300D01*
X1123603Y1930500D01*
X1118203Y1928600D01*
X1101803Y1928600D01*
X1077002Y2059499D02*
G01*
X1080601Y2061399D01*
X1086102Y2066799D01*
X1086102Y2028600D01*
X1112601Y2066799D02*
G01*
X1098101Y2028600D01*
X1112601Y2066799D02*
G01*
X1127201Y2028600D01*
X1103501Y2041399D02*
G01*
X1121701Y2041399D01*
X1062502Y2157700D02*
G01*
X1062502Y2159499D01*
X1064303Y2163200D01*
X1066202Y2165000D01*
X1069803Y2166799D01*
X1077102Y2166799D01*
X1080703Y2165000D01*
X1082502Y2163200D01*
X1084303Y2159499D01*
X1084303Y2155900D01*
X1082502Y2152300D01*
X1078903Y2146799D01*
X1060703Y2128600D01*
X1086202Y2128600D01*
X1112703Y2166799D02*
G01*
X1098203Y2128600D01*
X1112703Y2166799D02*
G01*
X1127202Y2128600D01*
X1103603Y2141399D02*
G01*
X1121803Y2141399D01*
X1066102Y2257700D02*
G01*
X1066102Y2259499D01*
X1067902Y2263200D01*
X1069801Y2265000D01*
X1073401Y2266799D01*
X1080702Y2266799D01*
X1084301Y2265000D01*
X1086102Y2263200D01*
X1087902Y2259499D01*
X1087902Y2255900D01*
X1086102Y2252300D01*
X1082502Y2246799D01*
X1064301Y2228600D01*
X1089801Y2228600D01*
X1101801Y2266799D02*
G01*
X1101801Y2228600D01*
X1101801Y2266799D02*
G01*
X1118101Y2266799D01*
X1123602Y2265000D01*
X1125402Y2263200D01*
X1127201Y2259499D01*
X1127201Y2255900D01*
X1125402Y2252300D01*
X1123602Y2250500D01*
X1118101Y2248600D01*
X1101801Y2248600D02*
G01*
X1118101Y2248600D01*
X1123602Y2246799D01*
X1125402Y2245000D01*
X1127201Y2241399D01*
X1127201Y2235900D01*
X1125402Y2232300D01*
X1123602Y2230500D01*
X1118101Y2228600D01*
X1101801Y2228600D01*
X1052299Y2357700D02*
G01*
X1050500Y2361399D01*
X1046800Y2365000D01*
X1043199Y2366799D01*
X1035900Y2366799D01*
X1032299Y2365000D01*
X1028599Y2361399D01*
X1026800Y2357700D01*
X1025000Y2352300D01*
X1025000Y2343200D01*
X1026800Y2337700D01*
X1028599Y2334099D01*
X1032299Y2330500D01*
X1035900Y2328600D01*
X1043199Y2328600D01*
X1046800Y2330500D01*
X1050500Y2334099D01*
X1052299Y2337700D01*
X1052299Y2343200D01*
X1043199Y2343200D02*
G01*
X1052299Y2343200D01*
X1064300Y2366799D02*
G01*
X1064300Y2328600D01*
X1064300Y2366799D02*
G01*
X1089700Y2328600D01*
X1089700Y2366799D02*
G01*
X1089700Y2328600D01*
X1101700Y2366799D02*
G01*
X1101700Y2328600D01*
X1101700Y2366799D02*
G01*
X1114499Y2366799D01*
X1119899Y2365000D01*
X1123500Y2361399D01*
X1125399Y2357700D01*
X1127200Y2352300D01*
X1127200Y2343200D01*
X1125399Y2337700D01*
X1123500Y2334099D01*
X1119899Y2330500D01*
X1114499Y2328600D01*
X1101700Y2328600D01*
X978500Y2466799D02*
G01*
X993001Y2428600D01*
X1007601Y2466799D02*
G01*
X993001Y2428600D01*
X1019601Y2466799D02*
G01*
X1019601Y2428600D01*
X1019601Y2466799D02*
G01*
X1034101Y2428600D01*
X1048701Y2466799D02*
G01*
X1034101Y2428600D01*
X1048701Y2466799D02*
G01*
X1048701Y2428600D01*
X1071601Y2466799D02*
G01*
X1068001Y2465000D01*
X1064300Y2461399D01*
X1062501Y2457700D01*
X1060700Y2452300D01*
X1060700Y2443200D01*
X1062501Y2437700D01*
X1064300Y2434099D01*
X1068001Y2430500D01*
X1071601Y2428600D01*
X1078900Y2428600D01*
X1082501Y2430500D01*
X1086100Y2434099D01*
X1088001Y2437700D01*
X1089800Y2443200D01*
X1089800Y2452300D01*
X1088001Y2457700D01*
X1086100Y2461399D01*
X1082501Y2465000D01*
X1078900Y2466799D01*
X1071601Y2466799D01*
X1114501Y2466799D02*
G01*
X1114501Y2428600D01*
X1101800Y2466799D02*
G01*
X1127200Y2466799D01*
X720000Y2466799D02*
G01*
X720000Y2428600D01*
X720000Y2466799D02*
G01*
X743599Y2466799D01*
X720000Y2448600D02*
G01*
X734499Y2448600D01*
X720000Y2428600D02*
G01*
X743599Y2428600D01*
X755600Y2466799D02*
G01*
X755600Y2428600D01*
X755600Y2466799D02*
G01*
X781099Y2428600D01*
X781099Y2466799D02*
G01*
X781099Y2428600D01*
X720000Y2066799D02*
G01*
X720000Y2028600D01*
X720000Y2066799D02*
G01*
X736400Y2066799D01*
X741800Y2065000D01*
X743599Y2063200D01*
X745500Y2059499D01*
X745500Y2055900D01*
X743599Y2052300D01*
X741800Y2050500D01*
X736400Y2048600D01*
X720000Y2048600D01*
X732700Y2048600D02*
G01*
X745500Y2028600D01*
X782899Y2061399D02*
G01*
X779300Y2065000D01*
X773800Y2066799D01*
X766499Y2066799D01*
X761099Y2065000D01*
X757500Y2061399D01*
X757500Y2057699D01*
X759300Y2054099D01*
X761099Y2052300D01*
X764700Y2050500D01*
X775600Y2046799D01*
X779300Y2045000D01*
X781099Y2043200D01*
X782899Y2039499D01*
X782899Y2034099D01*
X779300Y2030500D01*
X773800Y2028600D01*
X766499Y2028600D01*
X761099Y2030500D01*
X757500Y2034099D01*
X807600Y2066799D02*
G01*
X807600Y2028600D01*
X794899Y2066799D02*
G01*
X820399Y2066799D01*
X745500Y1961399D02*
G01*
X741800Y1965000D01*
X736400Y1966799D01*
X729099Y1966799D01*
X723599Y1965000D01*
X720000Y1961399D01*
X720000Y1957699D01*
X721800Y1954099D01*
X723599Y1952300D01*
X727299Y1950500D01*
X738199Y1946799D01*
X741800Y1945000D01*
X743599Y1943200D01*
X745500Y1939499D01*
X745500Y1934099D01*
X741800Y1930500D01*
X736400Y1928600D01*
X729099Y1928600D01*
X723599Y1930500D01*
X720000Y1934099D01*
X757500Y1966799D02*
G01*
X757500Y1928600D01*
X757500Y1928600D02*
G01*
X779300Y1928600D01*
X791300Y1966799D02*
G01*
X791300Y1928600D01*
X791300Y1966799D02*
G01*
X807600Y1966799D01*
X813100Y1965000D01*
X814899Y1963200D01*
X816700Y1959499D01*
X816700Y1954099D01*
X814899Y1950500D01*
X813100Y1948600D01*
X807600Y1946799D01*
X791300Y1946799D01*
X463900Y2352700D02*
G01*
X466800Y2346999D01*
X475399Y2338400D01*
X415200Y2338400D01*
X459729Y2150210D02*
G01*
X462629Y2150210D01*
X468329Y2147410D01*
X471229Y2144510D01*
X474129Y2138809D01*
X474129Y2127310D01*
X471229Y2121610D01*
X468329Y2118710D01*
X462629Y2115909D01*
X456930Y2115909D01*
X451229Y2118710D01*
X442629Y2124510D01*
X413930Y2153110D01*
X413930Y2113009D01*
D32*
X537299Y1692899D02*
G01*
X539499Y1688600D01*
X543800Y1684299D01*
X548100Y1682100D01*
X554499Y1680000D01*
X565200Y1680000D01*
X571700Y1682100D01*
X576000Y1684299D01*
X580299Y1688600D01*
X582399Y1692899D01*
X582399Y1701500D01*
X580299Y1705799D01*
X576000Y1710100D01*
X571700Y1712199D01*
X565200Y1714400D01*
X554499Y1714400D01*
X548100Y1712199D01*
X543800Y1710100D01*
X539499Y1705799D01*
X537299Y1701500D01*
X537299Y1692899D01*
X537299Y1728499D02*
G01*
X582399Y1728499D01*
X537299Y1728499D02*
G01*
X582399Y1758600D01*
X537299Y1758600D02*
G01*
X582399Y1758600D01*
X528699Y1811399D02*
G01*
X597500Y1772800D01*
X537299Y1838499D02*
G01*
X539499Y1834200D01*
X543800Y1829899D01*
X548100Y1827699D01*
X554499Y1825599D01*
X565200Y1825599D01*
X571700Y1827699D01*
X576000Y1829899D01*
X580299Y1834200D01*
X582399Y1838499D01*
X582399Y1847100D01*
X580299Y1851399D01*
X576000Y1855700D01*
X571700Y1857800D01*
X565200Y1860000D01*
X554499Y1860000D01*
X548100Y1857800D01*
X543800Y1855700D01*
X539499Y1851399D01*
X537299Y1847100D01*
X537299Y1838499D01*
X537299Y1874099D02*
G01*
X582399Y1874099D01*
X537299Y1874099D02*
G01*
X537299Y1901999D01*
X558800Y1874099D02*
G01*
X558800Y1891300D01*
X537299Y1916199D02*
G01*
X582399Y1916199D01*
X537299Y1916199D02*
G01*
X537299Y1944099D01*
X558800Y1916199D02*
G01*
X558800Y1933400D01*
D31*
X463900Y1917699D02*
G01*
X466800Y1911999D01*
X475399Y1903400D01*
X415200Y1903400D01*
X459700Y1715199D02*
G01*
X462600Y1715199D01*
X468299Y1712399D01*
X471199Y1709499D01*
X474099Y1703800D01*
X474099Y1692300D01*
X471199Y1686599D01*
X468299Y1683699D01*
X462600Y1680900D01*
X456899Y1680900D01*
X451199Y1683699D01*
X442600Y1689499D01*
X413900Y1718099D01*
X413900Y1678000D01*
X468900Y1047699D02*
G01*
X471800Y1041999D01*
X480399Y1033400D01*
X420200Y1033400D01*
X464729Y845210D02*
G01*
X467629Y845210D01*
X473329Y842409D01*
X476229Y839510D01*
X479129Y833809D01*
X479129Y822310D01*
X476229Y816610D01*
X473329Y813710D01*
X467629Y810909D01*
X461930Y810909D01*
X456229Y813710D01*
X447629Y819510D01*
X418930Y848110D01*
X418930Y808009D01*
X463900Y1482699D02*
G01*
X466800Y1476999D01*
X475399Y1468400D01*
X415200Y1468400D01*
X459729Y1280210D02*
G01*
X462629Y1280210D01*
X468329Y1277409D01*
X471229Y1274510D01*
X474129Y1268809D01*
X474129Y1257310D01*
X471229Y1251610D01*
X468329Y1248710D01*
X462629Y1245909D01*
X456930Y1245909D01*
X451229Y1248710D01*
X442629Y1254510D01*
X413930Y1283110D01*
X413930Y1243009D01*
D36*
X1675699Y1419299D02*
G01*
X1673599Y1423398D01*
X1669499Y1427498D01*
X1665500Y1429499D01*
X1657299Y1429499D01*
X1653199Y1427498D01*
X1649099Y1423398D01*
X1646999Y1419299D01*
X1645000Y1413198D01*
X1645000Y1402998D01*
X1646999Y1396799D01*
X1649099Y1392698D01*
X1653199Y1388598D01*
X1657299Y1386599D01*
X1665500Y1386599D01*
X1669499Y1388598D01*
X1673599Y1392698D01*
X1675699Y1396799D01*
X1689200Y1421399D02*
G01*
X1693299Y1423398D01*
X1699399Y1429499D01*
X1699399Y1386599D01*
X1665649Y1055149D02*
G01*
X1663649Y1059250D01*
X1659549Y1063350D01*
X1655450Y1065450D01*
X1647250Y1065450D01*
X1643149Y1063350D01*
X1639049Y1059250D01*
X1637049Y1055149D01*
X1635050Y1049050D01*
X1635050Y1038850D01*
X1637049Y1032649D01*
X1639049Y1028550D01*
X1643149Y1024450D01*
X1647250Y1022449D01*
X1655450Y1022449D01*
X1659549Y1024450D01*
X1663649Y1028550D01*
X1665649Y1032649D01*
X1683249Y1065450D02*
G01*
X1705749Y1065450D01*
X1693549Y1049050D01*
X1699650Y1049050D01*
X1703750Y1046950D01*
X1705749Y1044949D01*
X1707849Y1038850D01*
X1707849Y1034749D01*
X1705749Y1028550D01*
X1701649Y1024450D01*
X1695550Y1022449D01*
X1689449Y1022449D01*
X1683249Y1024450D01*
X1681250Y1026550D01*
X1679149Y1030650D01*
D30*
X2278699Y1639299D02*
G01*
X2237399Y1655000D01*
X2278699Y1639299D02*
G01*
X2237399Y1623499D01*
X2251099Y1649099D02*
G01*
X2251099Y1629400D01*
X2278699Y1610500D02*
G01*
X2237399Y1610500D01*
X2278699Y1610500D02*
G01*
X2237399Y1594800D01*
X2278699Y1579000D02*
G01*
X2237399Y1594800D01*
X2278699Y1579000D02*
G01*
X2237399Y1579000D01*
X2272799Y1538499D02*
G01*
X2276700Y1542399D01*
X2278699Y1548299D01*
X2278699Y1556199D01*
X2276700Y1562100D01*
X2272799Y1565999D01*
X2268900Y1565999D01*
X2264899Y1564099D01*
X2263000Y1562100D01*
X2261000Y1558099D01*
X2256999Y1546300D01*
X2255100Y1542399D01*
X2253100Y1540399D01*
X2249200Y1538499D01*
X2243299Y1538499D01*
X2239300Y1542399D01*
X2237399Y1548299D01*
X2237399Y1556199D01*
X2239300Y1562100D01*
X2243299Y1565999D01*
X2270799Y1525500D02*
G01*
X2272799Y1521500D01*
X2278699Y1515599D01*
X2237399Y1515599D01*
X2270799Y1502600D02*
G01*
X2272799Y1498699D01*
X2278699Y1492800D01*
X2237399Y1492800D01*
X2270799Y1479800D02*
G01*
X2272799Y1475900D01*
X2278699Y1470000D01*
X2237399Y1470000D01*
X2278699Y1429400D02*
G01*
X2237399Y1449099D01*
X2278699Y1456999D02*
G01*
X2278699Y1429400D01*
D36*
X3845699Y769299D02*
G01*
X3843599Y773400D01*
X3839499Y777500D01*
X3835500Y779499D01*
X3827299Y779499D01*
X3823199Y777500D01*
X3819099Y773400D01*
X3816999Y769299D01*
X3815000Y763200D01*
X3815000Y753000D01*
X3816999Y746799D01*
X3819099Y742699D01*
X3823199Y738600D01*
X3827299Y736599D01*
X3835500Y736599D01*
X3839499Y738600D01*
X3843599Y742699D01*
X3845699Y746799D01*
X3883699Y779499D02*
G01*
X3863299Y779499D01*
X3861199Y761100D01*
X3863299Y763200D01*
X3869399Y765199D01*
X3875500Y765199D01*
X3881700Y763200D01*
X3885799Y759099D01*
X3887799Y753000D01*
X3887799Y748899D01*
X3885799Y742699D01*
X3881700Y738600D01*
X3875500Y736599D01*
X3869399Y736599D01*
X3863299Y738600D01*
X3861199Y740700D01*
X3859200Y744800D01*
D31*
X3684002Y853998D02*
G01*
X3684002Y795999D01*
X3655002Y824998D02*
G01*
X3713001Y824998D01*
G36*
X1775000Y1620000D02*
G01*
X1775000Y1380000D01*
X1780460Y1384300D01*
X1785720Y1388839D01*
X1790760Y1393640D01*
X1795580Y1398660D01*
X1800160Y1403880D01*
X1804500Y1409319D01*
X1808560Y1414960D01*
X1812380Y1420780D01*
X1815920Y1426780D01*
X1819160Y1432920D01*
X1822120Y1439199D01*
X1824800Y1445620D01*
X1827160Y1452160D01*
X1829240Y1458800D01*
X1830980Y1465540D01*
X1832420Y1472340D01*
X1833560Y1479199D01*
X1834360Y1486120D01*
X1834840Y1493040D01*
X1835000Y1500000D01*
X1834840Y1506960D01*
X1834360Y1513880D01*
X1833560Y1520800D01*
X1832420Y1527660D01*
X1830980Y1534460D01*
X1829240Y1541200D01*
X1827160Y1547840D01*
X1824800Y1554379D01*
X1822120Y1560800D01*
X1819160Y1567080D01*
X1815920Y1573220D01*
X1812380Y1579220D01*
X1808560Y1585040D01*
X1804500Y1590680D01*
X1800160Y1596120D01*
X1795580Y1601339D01*
X1790760Y1606360D01*
X1785720Y1611160D01*
X1780460Y1615700D01*
G37*
G36*
X1775000Y1260000D02*
G01*
X1775000Y1020000D01*
X1780460Y1024300D01*
X1785720Y1028840D01*
X1790760Y1033640D01*
X1795580Y1038660D01*
X1800160Y1043880D01*
X1804500Y1049320D01*
X1808560Y1054960D01*
X1812380Y1060780D01*
X1815920Y1066780D01*
X1819160Y1072920D01*
X1822120Y1079200D01*
X1824800Y1085620D01*
X1827160Y1092160D01*
X1829240Y1098800D01*
X1830980Y1105540D01*
X1832420Y1112340D01*
X1833560Y1119200D01*
X1834360Y1126120D01*
X1834840Y1133040D01*
X1835000Y1140000D01*
X1834840Y1146960D01*
X1834360Y1153880D01*
X1833560Y1160800D01*
X1832420Y1167660D01*
X1830980Y1174460D01*
X1829240Y1181200D01*
X1827160Y1187840D01*
X1824800Y1194380D01*
X1822120Y1200800D01*
X1819160Y1207080D01*
X1815920Y1213220D01*
X1812380Y1219220D01*
X1808560Y1225040D01*
X1804500Y1230680D01*
X1800160Y1236120D01*
X1795580Y1241340D01*
X1790760Y1246360D01*
X1785720Y1251160D01*
X1780460Y1255700D01*
G37*
G36*
X1875000Y1270000D02*
G01*
X1879300Y1265480D01*
X1883820Y1261180D01*
X1888560Y1257120D01*
X1893520Y1253320D01*
X1898640Y1249760D01*
X1903959Y1246480D01*
X1909420Y1243480D01*
X1915040Y1240760D01*
X1920800Y1238340D01*
X1926660Y1236220D01*
X1932640Y1234400D01*
X1938680Y1232880D01*
X1944820Y1231700D01*
X1950980Y1230820D01*
X1957200Y1230260D01*
X1963440Y1230020D01*
X1969680Y1230100D01*
X1975900Y1230500D01*
X1982100Y1231220D01*
X1988260Y1232260D01*
X1991320Y1232880D01*
X1997360Y1234400D01*
X2003340Y1236220D01*
X2009199Y1238340D01*
X2014960Y1240760D01*
X2020580Y1243480D01*
X2026040Y1246480D01*
X2031360Y1249760D01*
X2036480Y1253320D01*
X2041440Y1257120D01*
X2046180Y1261180D01*
X2050700Y1265480D01*
X2055000Y1270000D01*
G37*
D16*
X3600000Y3185000D02*
G01*
X3925000Y3185000D01*
X3925000Y3075000D01*
X3600000Y3075000D01*
X3600000Y3075000D02*
G01*
X3600000Y3185000D01*
X3860200Y2980000D02*
G01*
X3860200Y2555000D01*
X3750200Y2555000D01*
X3750200Y2980000D01*
X3860200Y2980000D01*
X3865002Y2450000D02*
G01*
X3865002Y2025000D01*
X3755002Y2025000D01*
X3755002Y2450000D01*
X3865002Y2450000D01*
X1570000Y2815000D02*
G01*
X1995000Y2815000D01*
X1995000Y2705000D01*
X1570000Y2705000D01*
X1570000Y2815000D01*
X515000Y2815000D02*
G01*
X940000Y2815000D01*
X940000Y2705000D01*
X515000Y2705000D01*
X515000Y2815000D01*
D10*
X1420000Y3655000D02*
G01*
X1420000Y2855000D01*
X435000Y2855000D01*
X435000Y3695000D01*
X1420000Y3695000D01*
X1420000Y3655000D01*
X2440000Y3655000D02*
G01*
X2440000Y2855000D01*
X1455000Y2855000D01*
X1455000Y3695000D01*
X2440000Y3695000D01*
X2440000Y3655000D01*
X3460000Y3655000D02*
G01*
X3460000Y2855000D01*
X2475000Y2855000D01*
X2475000Y3695000D01*
X3460000Y3695000D01*
X3460000Y3655000D01*
D15*
X3960000Y1560000D02*
G01*
X3960000Y1560000D01*
X3960000Y1465000D01*
X3760000Y1465000D01*
X3760000Y1975000D01*
X3960000Y1975000D01*
X3960000Y1560000D01*
X3955000Y1010000D02*
G01*
X3760000Y1010000D01*
X3760000Y1425000D01*
X3960000Y1425000D01*
X3960000Y1010000D01*
D16*
X3555000Y655000D02*
G01*
X3985000Y655000D01*
X3985000Y545000D01*
X3555000Y545000D01*
X3555000Y655000D01*
X1270000Y635000D02*
G01*
X1795000Y635000D01*
X1795000Y525000D01*
X1175000Y525000D01*
X1175000Y635000D01*
X1270000Y635000D01*
X535000Y635000D02*
G01*
X955000Y635000D01*
X955000Y525000D01*
X335000Y525000D01*
X335000Y635000D01*
X535000Y635000D01*
D10*
X2135000Y1375000D02*
G01*
X2355000Y1375000D01*
X2355000Y1255000D01*
X2135000Y1255000D01*
X2135000Y1255000D02*
G01*
X2135000Y1375000D01*
X1390000Y1885000D02*
G01*
X1270000Y1885000D01*
X1270000Y1885000D02*
G01*
X1270000Y2310000D01*
X1390000Y2310000D01*
X1390000Y2305000D02*
G01*
X1390000Y1885000D01*
X2475000Y865000D02*
G01*
X2475000Y1665000D01*
X3460000Y1665000D01*
X3460000Y825000D01*
X2475000Y825000D01*
X2475000Y865000D01*
X2475000Y1745000D02*
G01*
X2475000Y2545000D01*
X3460000Y2545000D01*
X3460000Y1705000D01*
X2475000Y1705000D01*
X2475000Y1745000D01*
X1450000Y1745000D02*
G01*
X1450000Y2545000D01*
X2435000Y2545000D01*
X2435000Y1705000D01*
X1450000Y1705000D01*
X1450000Y1745000D01*
D28*
X1225000Y1695000D02*
G01*
X625000Y1695000D01*
X625000Y2495000D01*
X1225000Y2495000D01*
X1225000Y1695000D01*
D10*
X491899Y2431799D02*
G01*
X176900Y2431799D01*
X491899Y2038099D02*
G01*
X176900Y2038099D01*
X176900Y2431799D02*
G01*
X176900Y2038099D01*
X491899Y2431799D02*
G01*
X491899Y2038099D01*
X197800Y2431799D02*
G01*
X197800Y2038099D01*
X397399Y2429499D02*
G01*
X397399Y2040500D01*
X491899Y1996799D02*
G01*
X176900Y1996799D01*
X491899Y1603099D02*
G01*
X176900Y1603099D01*
X176900Y1996799D02*
G01*
X176900Y1603099D01*
X491899Y1996799D02*
G01*
X491899Y1603099D01*
X197800Y1996799D02*
G01*
X197800Y1603099D01*
X397399Y1994499D02*
G01*
X397399Y1605500D01*
X1995000Y1190000D02*
G01*
X2195000Y1190000D01*
X2195000Y1190000D02*
G01*
X2195000Y1160000D01*
X2195000Y1160000D02*
G01*
X2195000Y1130000D01*
X2195000Y1130000D02*
G01*
X1995000Y1130000D01*
X1995000Y1130000D02*
G01*
X1995000Y1160000D01*
X1995000Y1160000D02*
G01*
X1995000Y1190000D01*
X2195000Y1160000D02*
G01*
X2205000Y1160000D01*
X1995000Y1160000D02*
G01*
X1985000Y1160000D01*
X496899Y1126799D02*
G01*
X181900Y1126799D01*
X496899Y733099D02*
G01*
X181900Y733099D01*
X181900Y1126799D02*
G01*
X181900Y733099D01*
X496899Y1126799D02*
G01*
X496899Y733099D01*
X202800Y1126799D02*
G01*
X202800Y733099D01*
X402399Y1124499D02*
G01*
X402399Y735500D01*
X491899Y1561799D02*
G01*
X176900Y1561799D01*
X491899Y1168099D02*
G01*
X176900Y1168099D01*
X176900Y1561799D02*
G01*
X176900Y1168099D01*
X491899Y1561799D02*
G01*
X491899Y1168099D01*
X197800Y1561799D02*
G01*
X197800Y1168099D01*
X397399Y1559499D02*
G01*
X397399Y1170500D01*
X1925000Y1085000D02*
G01*
X2125000Y1085000D01*
X2125000Y1085000D02*
G01*
X2125000Y1055000D01*
X2125000Y1055000D02*
G01*
X2125000Y1025000D01*
X2125000Y1025000D02*
G01*
X1925000Y1025000D01*
X1925000Y1025000D02*
G01*
X1925000Y1055000D01*
X1925000Y1055000D02*
G01*
X1925000Y1085000D01*
X2125000Y1055000D02*
G01*
X2135000Y1055000D01*
X1925000Y1055000D02*
G01*
X1915000Y1055000D01*
X1525000Y1500000D02*
G01*
X1565000Y1500000D01*
X1545000Y1530000D02*
G01*
X1545000Y1470000D01*
X1525000Y1140000D02*
G01*
X1565000Y1140000D01*
X1545000Y1170000D02*
G01*
X1545000Y1110000D01*
D29*
X2195900Y1407899D02*
G01*
X2195900Y1671700D01*
X2323800Y1671700D01*
X2323800Y1407899D01*
X2195900Y1407899D01*
D10*
X2045000Y1405000D02*
G01*
X2005000Y1405000D01*
X2025000Y1425000D02*
G01*
X2025000Y1385000D01*
X3570000Y3215000D02*
G01*
X3570000Y3015000D01*
X3570000Y3015000D02*
G01*
X3540000Y3015000D01*
X3540000Y3015000D02*
G01*
X3510000Y3015000D01*
X3510000Y3015000D02*
G01*
X3510000Y3215000D01*
X3510000Y3215000D02*
G01*
X3540000Y3215000D01*
X3540000Y3215000D02*
G01*
X3570000Y3215000D01*
X3540000Y3015000D02*
G01*
X3540000Y3005000D01*
X3540000Y3215000D02*
G01*
X3540000Y3225000D01*
G75*
G01
X1059800Y2395000D02*
G03X1059800Y2395000I-124000J0D01*
G75*
G01
X373700Y2335000D02*
G03X373700Y2335000I-78700J0D01*
G75*
G01
X373700Y2135000D02*
G03X373700Y2135000I-78700J0D01*
G75*
G01
X373700Y1900000D02*
G03X373700Y1900000I-78700J0D01*
G75*
G01
X373700Y1700000D02*
G03X373700Y1700000I-78700J0D01*
G75*
G01
X378700Y1030000D02*
G03X378700Y1030000I-78700J0D01*
G75*
G01
X378700Y830000D02*
G03X378700Y830000I-78700J0D01*
G75*
G01
X373700Y1465000D02*
G03X373700Y1465000I-78700J0D01*
G75*
G01
X373700Y1265000D02*
G03X373700Y1265000I-78700J0D01*
G75*
G01
X1832500Y1500000D02*
G03X1832500Y1500000I-157500J0D01*
G75*
G01
X1832500Y1140000D02*
G03X1832500Y1140000I-157500J0D01*
G75*
G01
X2089000Y1355000D02*
G03X2089000Y1355000I-124000J0D01*
G75*
G01
X3973200Y840000D02*
G03X3973200Y840000I-124000J0D01*
M02*
